G04 #@! TF.GenerationSoftware,KiCad,Pcbnew,5.1.2*
G04 #@! TF.CreationDate,2019-08-04T19:59:17+02:00*
G04 #@! TF.ProjectId,neutron-c,6e657574-726f-46e2-9d63-2e6b69636164,rev?*
G04 #@! TF.SameCoordinates,Original*
G04 #@! TF.FileFunction,Soldermask,Top*
G04 #@! TF.FilePolarity,Negative*
%FSLAX46Y46*%
G04 Gerber Fmt 4.6, Leading zero omitted, Abs format (unit mm)*
G04 Created by KiCad (PCBNEW 5.1.2) date 2019-08-04 19:59:17*
%MOMM*%
%LPD*%
G04 APERTURE LIST*
%ADD10C,0.100000*%
G04 APERTURE END LIST*
D10*
G36*
X177910442Y-60065518D02*
G01*
X177976627Y-60072037D01*
X178146466Y-60123557D01*
X178302991Y-60207222D01*
X178338729Y-60236552D01*
X178440186Y-60319814D01*
X178523448Y-60421271D01*
X178552778Y-60457009D01*
X178636443Y-60613534D01*
X178687963Y-60783373D01*
X178705359Y-60960000D01*
X178687963Y-61136627D01*
X178636443Y-61306466D01*
X178552778Y-61462991D01*
X178523448Y-61498729D01*
X178440186Y-61600186D01*
X178338729Y-61683448D01*
X178302991Y-61712778D01*
X178146466Y-61796443D01*
X177976627Y-61847963D01*
X177910443Y-61854481D01*
X177844260Y-61861000D01*
X177755740Y-61861000D01*
X177689557Y-61854481D01*
X177623373Y-61847963D01*
X177453534Y-61796443D01*
X177297009Y-61712778D01*
X177261271Y-61683448D01*
X177159814Y-61600186D01*
X177076552Y-61498729D01*
X177047222Y-61462991D01*
X176963557Y-61306466D01*
X176912037Y-61136627D01*
X176894641Y-60960000D01*
X176912037Y-60783373D01*
X176963557Y-60613534D01*
X177047222Y-60457009D01*
X177076552Y-60421271D01*
X177159814Y-60319814D01*
X177261271Y-60236552D01*
X177297009Y-60207222D01*
X177453534Y-60123557D01*
X177623373Y-60072037D01*
X177689558Y-60065518D01*
X177755740Y-60059000D01*
X177844260Y-60059000D01*
X177910442Y-60065518D01*
X177910442Y-60065518D01*
G37*
G36*
X180450442Y-60065518D02*
G01*
X180516627Y-60072037D01*
X180686466Y-60123557D01*
X180842991Y-60207222D01*
X180878729Y-60236552D01*
X180980186Y-60319814D01*
X181063448Y-60421271D01*
X181092778Y-60457009D01*
X181176443Y-60613534D01*
X181227963Y-60783373D01*
X181245359Y-60960000D01*
X181227963Y-61136627D01*
X181176443Y-61306466D01*
X181092778Y-61462991D01*
X181063448Y-61498729D01*
X180980186Y-61600186D01*
X180878729Y-61683448D01*
X180842991Y-61712778D01*
X180686466Y-61796443D01*
X180516627Y-61847963D01*
X180450443Y-61854481D01*
X180384260Y-61861000D01*
X180295740Y-61861000D01*
X180229557Y-61854481D01*
X180163373Y-61847963D01*
X179993534Y-61796443D01*
X179837009Y-61712778D01*
X179801271Y-61683448D01*
X179699814Y-61600186D01*
X179616552Y-61498729D01*
X179587222Y-61462991D01*
X179503557Y-61306466D01*
X179452037Y-61136627D01*
X179434641Y-60960000D01*
X179452037Y-60783373D01*
X179503557Y-60613534D01*
X179587222Y-60457009D01*
X179616552Y-60421271D01*
X179699814Y-60319814D01*
X179801271Y-60236552D01*
X179837009Y-60207222D01*
X179993534Y-60123557D01*
X180163373Y-60072037D01*
X180229558Y-60065518D01*
X180295740Y-60059000D01*
X180384260Y-60059000D01*
X180450442Y-60065518D01*
X180450442Y-60065518D01*
G37*
G36*
X167750442Y-60065518D02*
G01*
X167816627Y-60072037D01*
X167986466Y-60123557D01*
X168142991Y-60207222D01*
X168178729Y-60236552D01*
X168280186Y-60319814D01*
X168363448Y-60421271D01*
X168392778Y-60457009D01*
X168476443Y-60613534D01*
X168527963Y-60783373D01*
X168545359Y-60960000D01*
X168527963Y-61136627D01*
X168476443Y-61306466D01*
X168392778Y-61462991D01*
X168363448Y-61498729D01*
X168280186Y-61600186D01*
X168178729Y-61683448D01*
X168142991Y-61712778D01*
X167986466Y-61796443D01*
X167816627Y-61847963D01*
X167750443Y-61854481D01*
X167684260Y-61861000D01*
X167595740Y-61861000D01*
X167529557Y-61854481D01*
X167463373Y-61847963D01*
X167293534Y-61796443D01*
X167137009Y-61712778D01*
X167101271Y-61683448D01*
X166999814Y-61600186D01*
X166916552Y-61498729D01*
X166887222Y-61462991D01*
X166803557Y-61306466D01*
X166752037Y-61136627D01*
X166734641Y-60960000D01*
X166752037Y-60783373D01*
X166803557Y-60613534D01*
X166887222Y-60457009D01*
X166916552Y-60421271D01*
X166999814Y-60319814D01*
X167101271Y-60236552D01*
X167137009Y-60207222D01*
X167293534Y-60123557D01*
X167463373Y-60072037D01*
X167529558Y-60065518D01*
X167595740Y-60059000D01*
X167684260Y-60059000D01*
X167750442Y-60065518D01*
X167750442Y-60065518D01*
G37*
G36*
X185530442Y-60065518D02*
G01*
X185596627Y-60072037D01*
X185766466Y-60123557D01*
X185922991Y-60207222D01*
X185958729Y-60236552D01*
X186060186Y-60319814D01*
X186143448Y-60421271D01*
X186172778Y-60457009D01*
X186256443Y-60613534D01*
X186307963Y-60783373D01*
X186325359Y-60960000D01*
X186307963Y-61136627D01*
X186256443Y-61306466D01*
X186172778Y-61462991D01*
X186143448Y-61498729D01*
X186060186Y-61600186D01*
X185958729Y-61683448D01*
X185922991Y-61712778D01*
X185766466Y-61796443D01*
X185596627Y-61847963D01*
X185530443Y-61854481D01*
X185464260Y-61861000D01*
X185375740Y-61861000D01*
X185309557Y-61854481D01*
X185243373Y-61847963D01*
X185073534Y-61796443D01*
X184917009Y-61712778D01*
X184881271Y-61683448D01*
X184779814Y-61600186D01*
X184696552Y-61498729D01*
X184667222Y-61462991D01*
X184583557Y-61306466D01*
X184532037Y-61136627D01*
X184514641Y-60960000D01*
X184532037Y-60783373D01*
X184583557Y-60613534D01*
X184667222Y-60457009D01*
X184696552Y-60421271D01*
X184779814Y-60319814D01*
X184881271Y-60236552D01*
X184917009Y-60207222D01*
X185073534Y-60123557D01*
X185243373Y-60072037D01*
X185309558Y-60065518D01*
X185375740Y-60059000D01*
X185464260Y-60059000D01*
X185530442Y-60065518D01*
X185530442Y-60065518D01*
G37*
G36*
X175370442Y-60065518D02*
G01*
X175436627Y-60072037D01*
X175606466Y-60123557D01*
X175762991Y-60207222D01*
X175798729Y-60236552D01*
X175900186Y-60319814D01*
X175983448Y-60421271D01*
X176012778Y-60457009D01*
X176096443Y-60613534D01*
X176147963Y-60783373D01*
X176165359Y-60960000D01*
X176147963Y-61136627D01*
X176096443Y-61306466D01*
X176012778Y-61462991D01*
X175983448Y-61498729D01*
X175900186Y-61600186D01*
X175798729Y-61683448D01*
X175762991Y-61712778D01*
X175606466Y-61796443D01*
X175436627Y-61847963D01*
X175370443Y-61854481D01*
X175304260Y-61861000D01*
X175215740Y-61861000D01*
X175149557Y-61854481D01*
X175083373Y-61847963D01*
X174913534Y-61796443D01*
X174757009Y-61712778D01*
X174721271Y-61683448D01*
X174619814Y-61600186D01*
X174536552Y-61498729D01*
X174507222Y-61462991D01*
X174423557Y-61306466D01*
X174372037Y-61136627D01*
X174354641Y-60960000D01*
X174372037Y-60783373D01*
X174423557Y-60613534D01*
X174507222Y-60457009D01*
X174536552Y-60421271D01*
X174619814Y-60319814D01*
X174721271Y-60236552D01*
X174757009Y-60207222D01*
X174913534Y-60123557D01*
X175083373Y-60072037D01*
X175149558Y-60065518D01*
X175215740Y-60059000D01*
X175304260Y-60059000D01*
X175370442Y-60065518D01*
X175370442Y-60065518D01*
G37*
G36*
X173621000Y-61861000D02*
G01*
X171819000Y-61861000D01*
X171819000Y-60059000D01*
X173621000Y-60059000D01*
X173621000Y-61861000D01*
X173621000Y-61861000D01*
G37*
G36*
X167750443Y-57525519D02*
G01*
X167816627Y-57532037D01*
X167986466Y-57583557D01*
X168142991Y-57667222D01*
X168178729Y-57696552D01*
X168280186Y-57779814D01*
X168363448Y-57881271D01*
X168392778Y-57917009D01*
X168476443Y-58073534D01*
X168527963Y-58243373D01*
X168545359Y-58420000D01*
X168527963Y-58596627D01*
X168476443Y-58766466D01*
X168392778Y-58922991D01*
X168363448Y-58958729D01*
X168280186Y-59060186D01*
X168178729Y-59143448D01*
X168142991Y-59172778D01*
X167986466Y-59256443D01*
X167816627Y-59307963D01*
X167750442Y-59314482D01*
X167684260Y-59321000D01*
X167595740Y-59321000D01*
X167529558Y-59314482D01*
X167463373Y-59307963D01*
X167293534Y-59256443D01*
X167137009Y-59172778D01*
X167101271Y-59143448D01*
X166999814Y-59060186D01*
X166916552Y-58958729D01*
X166887222Y-58922991D01*
X166803557Y-58766466D01*
X166752037Y-58596627D01*
X166734641Y-58420000D01*
X166752037Y-58243373D01*
X166803557Y-58073534D01*
X166887222Y-57917009D01*
X166916552Y-57881271D01*
X166999814Y-57779814D01*
X167101271Y-57696552D01*
X167137009Y-57667222D01*
X167293534Y-57583557D01*
X167463373Y-57532037D01*
X167529557Y-57525519D01*
X167595740Y-57519000D01*
X167684260Y-57519000D01*
X167750443Y-57525519D01*
X167750443Y-57525519D01*
G37*
G36*
X185530443Y-57525519D02*
G01*
X185596627Y-57532037D01*
X185766466Y-57583557D01*
X185922991Y-57667222D01*
X185958729Y-57696552D01*
X186060186Y-57779814D01*
X186143448Y-57881271D01*
X186172778Y-57917009D01*
X186256443Y-58073534D01*
X186307963Y-58243373D01*
X186325359Y-58420000D01*
X186307963Y-58596627D01*
X186256443Y-58766466D01*
X186172778Y-58922991D01*
X186143448Y-58958729D01*
X186060186Y-59060186D01*
X185958729Y-59143448D01*
X185922991Y-59172778D01*
X185766466Y-59256443D01*
X185596627Y-59307963D01*
X185530442Y-59314482D01*
X185464260Y-59321000D01*
X185375740Y-59321000D01*
X185309558Y-59314482D01*
X185243373Y-59307963D01*
X185073534Y-59256443D01*
X184917009Y-59172778D01*
X184881271Y-59143448D01*
X184779814Y-59060186D01*
X184696552Y-58958729D01*
X184667222Y-58922991D01*
X184583557Y-58766466D01*
X184532037Y-58596627D01*
X184514641Y-58420000D01*
X184532037Y-58243373D01*
X184583557Y-58073534D01*
X184667222Y-57917009D01*
X184696552Y-57881271D01*
X184779814Y-57779814D01*
X184881271Y-57696552D01*
X184917009Y-57667222D01*
X185073534Y-57583557D01*
X185243373Y-57532037D01*
X185309557Y-57525519D01*
X185375740Y-57519000D01*
X185464260Y-57519000D01*
X185530443Y-57525519D01*
X185530443Y-57525519D01*
G37*
G36*
X176331000Y-58721000D02*
G01*
X175629000Y-58721000D01*
X175629000Y-58119000D01*
X176331000Y-58119000D01*
X176331000Y-58721000D01*
X176331000Y-58721000D01*
G37*
G36*
X177431000Y-58721000D02*
G01*
X176729000Y-58721000D01*
X176729000Y-58119000D01*
X177431000Y-58119000D01*
X177431000Y-58721000D01*
X177431000Y-58721000D01*
G37*
G36*
X185530443Y-54985519D02*
G01*
X185596627Y-54992037D01*
X185766466Y-55043557D01*
X185922991Y-55127222D01*
X185958729Y-55156552D01*
X186060186Y-55239814D01*
X186143448Y-55341271D01*
X186172778Y-55377009D01*
X186256443Y-55533534D01*
X186307963Y-55703373D01*
X186325359Y-55880000D01*
X186307963Y-56056627D01*
X186256443Y-56226466D01*
X186172778Y-56382991D01*
X186143448Y-56418729D01*
X186060186Y-56520186D01*
X185958729Y-56603448D01*
X185922991Y-56632778D01*
X185766466Y-56716443D01*
X185596627Y-56767963D01*
X185530443Y-56774481D01*
X185464260Y-56781000D01*
X185375740Y-56781000D01*
X185309557Y-56774481D01*
X185243373Y-56767963D01*
X185073534Y-56716443D01*
X184917009Y-56632778D01*
X184881271Y-56603448D01*
X184779814Y-56520186D01*
X184696552Y-56418729D01*
X184667222Y-56382991D01*
X184583557Y-56226466D01*
X184532037Y-56056627D01*
X184514641Y-55880000D01*
X184532037Y-55703373D01*
X184583557Y-55533534D01*
X184667222Y-55377009D01*
X184696552Y-55341271D01*
X184779814Y-55239814D01*
X184881271Y-55156552D01*
X184917009Y-55127222D01*
X185073534Y-55043557D01*
X185243373Y-54992037D01*
X185309557Y-54985519D01*
X185375740Y-54979000D01*
X185464260Y-54979000D01*
X185530443Y-54985519D01*
X185530443Y-54985519D01*
G37*
G36*
X167750443Y-54985519D02*
G01*
X167816627Y-54992037D01*
X167986466Y-55043557D01*
X168142991Y-55127222D01*
X168178729Y-55156552D01*
X168280186Y-55239814D01*
X168363448Y-55341271D01*
X168392778Y-55377009D01*
X168476443Y-55533534D01*
X168527963Y-55703373D01*
X168545359Y-55880000D01*
X168527963Y-56056627D01*
X168476443Y-56226466D01*
X168392778Y-56382991D01*
X168363448Y-56418729D01*
X168280186Y-56520186D01*
X168178729Y-56603448D01*
X168142991Y-56632778D01*
X167986466Y-56716443D01*
X167816627Y-56767963D01*
X167750443Y-56774481D01*
X167684260Y-56781000D01*
X167595740Y-56781000D01*
X167529557Y-56774481D01*
X167463373Y-56767963D01*
X167293534Y-56716443D01*
X167137009Y-56632778D01*
X167101271Y-56603448D01*
X166999814Y-56520186D01*
X166916552Y-56418729D01*
X166887222Y-56382991D01*
X166803557Y-56226466D01*
X166752037Y-56056627D01*
X166734641Y-55880000D01*
X166752037Y-55703373D01*
X166803557Y-55533534D01*
X166887222Y-55377009D01*
X166916552Y-55341271D01*
X166999814Y-55239814D01*
X167101271Y-55156552D01*
X167137009Y-55127222D01*
X167293534Y-55043557D01*
X167463373Y-54992037D01*
X167529557Y-54985519D01*
X167595740Y-54979000D01*
X167684260Y-54979000D01*
X167750443Y-54985519D01*
X167750443Y-54985519D01*
G37*
G36*
X173571000Y-56096000D02*
G01*
X171869000Y-56096000D01*
X171869000Y-54394000D01*
X173571000Y-54394000D01*
X173571000Y-56096000D01*
X173571000Y-56096000D01*
G37*
G36*
X180506823Y-54406313D02*
G01*
X180667242Y-54454976D01*
X180799906Y-54525886D01*
X180815078Y-54533996D01*
X180944659Y-54640341D01*
X181051004Y-54769922D01*
X181051005Y-54769924D01*
X181130024Y-54917758D01*
X181178687Y-55078177D01*
X181195117Y-55245000D01*
X181178687Y-55411823D01*
X181130024Y-55572242D01*
X181059933Y-55703373D01*
X181051004Y-55720078D01*
X180944659Y-55849659D01*
X180815078Y-55956004D01*
X180815076Y-55956005D01*
X180667242Y-56035024D01*
X180506823Y-56083687D01*
X180381804Y-56096000D01*
X180298196Y-56096000D01*
X180173177Y-56083687D01*
X180012758Y-56035024D01*
X179864924Y-55956005D01*
X179864922Y-55956004D01*
X179735341Y-55849659D01*
X179628996Y-55720078D01*
X179620067Y-55703373D01*
X179549976Y-55572242D01*
X179501313Y-55411823D01*
X179484883Y-55245000D01*
X179501313Y-55078177D01*
X179549976Y-54917758D01*
X179628995Y-54769924D01*
X179628996Y-54769922D01*
X179735341Y-54640341D01*
X179864922Y-54533996D01*
X179880094Y-54525886D01*
X180012758Y-54454976D01*
X180173177Y-54406313D01*
X180298196Y-54394000D01*
X180381804Y-54394000D01*
X180506823Y-54406313D01*
X180506823Y-54406313D01*
G37*
G36*
X185530443Y-52445519D02*
G01*
X185596627Y-52452037D01*
X185766466Y-52503557D01*
X185922991Y-52587222D01*
X185958729Y-52616552D01*
X186060186Y-52699814D01*
X186143448Y-52801271D01*
X186172778Y-52837009D01*
X186256443Y-52993534D01*
X186307963Y-53163373D01*
X186325359Y-53340000D01*
X186307963Y-53516627D01*
X186256443Y-53686466D01*
X186172778Y-53842991D01*
X186143448Y-53878729D01*
X186060186Y-53980186D01*
X185958729Y-54063448D01*
X185922991Y-54092778D01*
X185766466Y-54176443D01*
X185596627Y-54227963D01*
X185530442Y-54234482D01*
X185464260Y-54241000D01*
X185375740Y-54241000D01*
X185309558Y-54234482D01*
X185243373Y-54227963D01*
X185073534Y-54176443D01*
X184917009Y-54092778D01*
X184881271Y-54063448D01*
X184779814Y-53980186D01*
X184696552Y-53878729D01*
X184667222Y-53842991D01*
X184583557Y-53686466D01*
X184532037Y-53516627D01*
X184514641Y-53340000D01*
X184532037Y-53163373D01*
X184583557Y-52993534D01*
X184667222Y-52837009D01*
X184696552Y-52801271D01*
X184779814Y-52699814D01*
X184881271Y-52616552D01*
X184917009Y-52587222D01*
X185073534Y-52503557D01*
X185243373Y-52452037D01*
X185309558Y-52445518D01*
X185375740Y-52439000D01*
X185464260Y-52439000D01*
X185530443Y-52445519D01*
X185530443Y-52445519D01*
G37*
G36*
X167750443Y-52445519D02*
G01*
X167816627Y-52452037D01*
X167986466Y-52503557D01*
X168142991Y-52587222D01*
X168178729Y-52616552D01*
X168280186Y-52699814D01*
X168363448Y-52801271D01*
X168392778Y-52837009D01*
X168476443Y-52993534D01*
X168527963Y-53163373D01*
X168545359Y-53340000D01*
X168527963Y-53516627D01*
X168476443Y-53686466D01*
X168392778Y-53842991D01*
X168363448Y-53878729D01*
X168280186Y-53980186D01*
X168178729Y-54063448D01*
X168142991Y-54092778D01*
X167986466Y-54176443D01*
X167816627Y-54227963D01*
X167750442Y-54234482D01*
X167684260Y-54241000D01*
X167595740Y-54241000D01*
X167529558Y-54234482D01*
X167463373Y-54227963D01*
X167293534Y-54176443D01*
X167137009Y-54092778D01*
X167101271Y-54063448D01*
X166999814Y-53980186D01*
X166916552Y-53878729D01*
X166887222Y-53842991D01*
X166803557Y-53686466D01*
X166752037Y-53516627D01*
X166734641Y-53340000D01*
X166752037Y-53163373D01*
X166803557Y-52993534D01*
X166887222Y-52837009D01*
X166916552Y-52801271D01*
X166999814Y-52699814D01*
X167101271Y-52616552D01*
X167137009Y-52587222D01*
X167293534Y-52503557D01*
X167463373Y-52452037D01*
X167529558Y-52445518D01*
X167595740Y-52439000D01*
X167684260Y-52439000D01*
X167750443Y-52445519D01*
X167750443Y-52445519D01*
G37*
G36*
X174595000Y-52263000D02*
G01*
X173893000Y-52263000D01*
X173893000Y-51761000D01*
X174595000Y-51761000D01*
X174595000Y-52263000D01*
X174595000Y-52263000D01*
G37*
G36*
X173071000Y-52263000D02*
G01*
X172369000Y-52263000D01*
X172369000Y-51761000D01*
X173071000Y-51761000D01*
X173071000Y-52263000D01*
X173071000Y-52263000D01*
G37*
G36*
X167750442Y-49905518D02*
G01*
X167816627Y-49912037D01*
X167986466Y-49963557D01*
X168142991Y-50047222D01*
X168178729Y-50076552D01*
X168280186Y-50159814D01*
X168363448Y-50261271D01*
X168392778Y-50297009D01*
X168476443Y-50453534D01*
X168527963Y-50623373D01*
X168545359Y-50800000D01*
X168527963Y-50976627D01*
X168476443Y-51146466D01*
X168392778Y-51302991D01*
X168363448Y-51338729D01*
X168280186Y-51440186D01*
X168178729Y-51523448D01*
X168142991Y-51552778D01*
X167986466Y-51636443D01*
X167816627Y-51687963D01*
X167750442Y-51694482D01*
X167684260Y-51701000D01*
X167595740Y-51701000D01*
X167529558Y-51694482D01*
X167463373Y-51687963D01*
X167293534Y-51636443D01*
X167137009Y-51552778D01*
X167101271Y-51523448D01*
X166999814Y-51440186D01*
X166916552Y-51338729D01*
X166887222Y-51302991D01*
X166803557Y-51146466D01*
X166752037Y-50976627D01*
X166734641Y-50800000D01*
X166752037Y-50623373D01*
X166803557Y-50453534D01*
X166887222Y-50297009D01*
X166916552Y-50261271D01*
X166999814Y-50159814D01*
X167101271Y-50076552D01*
X167137009Y-50047222D01*
X167293534Y-49963557D01*
X167463373Y-49912037D01*
X167529557Y-49905519D01*
X167595740Y-49899000D01*
X167684260Y-49899000D01*
X167750442Y-49905518D01*
X167750442Y-49905518D01*
G37*
G36*
X185530442Y-49905518D02*
G01*
X185596627Y-49912037D01*
X185766466Y-49963557D01*
X185922991Y-50047222D01*
X185958729Y-50076552D01*
X186060186Y-50159814D01*
X186143448Y-50261271D01*
X186172778Y-50297009D01*
X186256443Y-50453534D01*
X186307963Y-50623373D01*
X186325359Y-50800000D01*
X186307963Y-50976627D01*
X186256443Y-51146466D01*
X186172778Y-51302991D01*
X186143448Y-51338729D01*
X186060186Y-51440186D01*
X185958729Y-51523448D01*
X185922991Y-51552778D01*
X185766466Y-51636443D01*
X185596627Y-51687963D01*
X185530442Y-51694482D01*
X185464260Y-51701000D01*
X185375740Y-51701000D01*
X185309558Y-51694482D01*
X185243373Y-51687963D01*
X185073534Y-51636443D01*
X184917009Y-51552778D01*
X184881271Y-51523448D01*
X184779814Y-51440186D01*
X184696552Y-51338729D01*
X184667222Y-51302991D01*
X184583557Y-51146466D01*
X184532037Y-50976627D01*
X184514641Y-50800000D01*
X184532037Y-50623373D01*
X184583557Y-50453534D01*
X184667222Y-50297009D01*
X184696552Y-50261271D01*
X184779814Y-50159814D01*
X184881271Y-50076552D01*
X184917009Y-50047222D01*
X185073534Y-49963557D01*
X185243373Y-49912037D01*
X185309557Y-49905519D01*
X185375740Y-49899000D01*
X185464260Y-49899000D01*
X185530442Y-49905518D01*
X185530442Y-49905518D01*
G37*
G36*
X181841000Y-51528000D02*
G01*
X180689000Y-51528000D01*
X180689000Y-50326000D01*
X181841000Y-50326000D01*
X181841000Y-51528000D01*
X181841000Y-51528000D01*
G37*
G36*
X179991000Y-51528000D02*
G01*
X178839000Y-51528000D01*
X178839000Y-50326000D01*
X179991000Y-50326000D01*
X179991000Y-51528000D01*
X179991000Y-51528000D01*
G37*
G36*
X174595000Y-51363000D02*
G01*
X173893000Y-51363000D01*
X173893000Y-50861000D01*
X174595000Y-50861000D01*
X174595000Y-51363000D01*
X174595000Y-51363000D01*
G37*
G36*
X173071000Y-51363000D02*
G01*
X172369000Y-51363000D01*
X172369000Y-50861000D01*
X173071000Y-50861000D01*
X173071000Y-51363000D01*
X173071000Y-51363000D01*
G37*
G36*
X182511000Y-49831000D02*
G01*
X181809000Y-49831000D01*
X181809000Y-49229000D01*
X182511000Y-49229000D01*
X182511000Y-49831000D01*
X182511000Y-49831000D01*
G37*
G36*
X178871000Y-49831000D02*
G01*
X178169000Y-49831000D01*
X178169000Y-49229000D01*
X178871000Y-49229000D01*
X178871000Y-49831000D01*
X178871000Y-49831000D01*
G37*
G36*
X181411000Y-49831000D02*
G01*
X180709000Y-49831000D01*
X180709000Y-49229000D01*
X181411000Y-49229000D01*
X181411000Y-49831000D01*
X181411000Y-49831000D01*
G37*
G36*
X179971000Y-49831000D02*
G01*
X179269000Y-49831000D01*
X179269000Y-49229000D01*
X179971000Y-49229000D01*
X179971000Y-49831000D01*
X179971000Y-49831000D01*
G37*
G36*
X171603793Y-45934416D02*
G01*
X171687879Y-45951142D01*
X171693786Y-45952934D01*
X171693787Y-45952934D01*
X171703401Y-45955850D01*
X171703404Y-45955851D01*
X171709301Y-45957640D01*
X171788520Y-45990455D01*
X171793952Y-45993358D01*
X171793956Y-45993360D01*
X171798078Y-45995564D01*
X171808253Y-46001002D01*
X171879545Y-46048638D01*
X171884313Y-46052551D01*
X171892080Y-46058924D01*
X171892084Y-46058928D01*
X171896851Y-46062840D01*
X171909870Y-46075860D01*
X171918966Y-46084104D01*
X171933203Y-46095787D01*
X172313431Y-46476015D01*
X172323718Y-46488550D01*
X172330879Y-46501947D01*
X172336337Y-46515125D01*
X172349950Y-46535500D01*
X172367276Y-46552828D01*
X172387650Y-46566442D01*
X172410289Y-46575820D01*
X172412464Y-46576253D01*
X173283114Y-47446903D01*
X173287101Y-47460047D01*
X173298652Y-47481658D01*
X173314197Y-47500600D01*
X173333139Y-47516145D01*
X173354750Y-47527696D01*
X173359863Y-47529525D01*
X173370240Y-47535072D01*
X173382775Y-47545359D01*
X173763003Y-47925587D01*
X173774686Y-47939824D01*
X173782930Y-47948920D01*
X173795950Y-47961939D01*
X173799862Y-47966706D01*
X173799866Y-47966710D01*
X173804931Y-47972883D01*
X173810152Y-47979245D01*
X173857788Y-48050537D01*
X173868335Y-48070270D01*
X173901150Y-48149489D01*
X173907648Y-48170911D01*
X173924374Y-48254997D01*
X173926568Y-48277276D01*
X173926568Y-48363012D01*
X173924374Y-48385291D01*
X173907648Y-48469378D01*
X173901150Y-48490802D01*
X173868338Y-48570014D01*
X173857786Y-48589756D01*
X173810152Y-48661044D01*
X173795955Y-48678344D01*
X173782925Y-48691374D01*
X173774685Y-48700466D01*
X173763000Y-48714705D01*
X173418131Y-49059574D01*
X173403892Y-49071259D01*
X173394800Y-49079499D01*
X173381770Y-49092529D01*
X173364470Y-49106726D01*
X173293182Y-49154360D01*
X173273440Y-49164912D01*
X173194228Y-49197724D01*
X173172804Y-49204222D01*
X173088717Y-49220948D01*
X173066438Y-49223142D01*
X172980702Y-49223142D01*
X172958423Y-49220948D01*
X172874337Y-49204222D01*
X172868429Y-49202430D01*
X172858815Y-49199514D01*
X172858812Y-49199513D01*
X172852915Y-49197724D01*
X172773696Y-49164909D01*
X172768264Y-49162006D01*
X172768260Y-49162004D01*
X172764138Y-49159800D01*
X172753963Y-49154362D01*
X172682671Y-49106726D01*
X172676309Y-49101505D01*
X172670136Y-49096440D01*
X172670132Y-49096436D01*
X172665365Y-49092524D01*
X172652346Y-49079504D01*
X172643250Y-49071260D01*
X172629013Y-49059577D01*
X172248785Y-48679349D01*
X172238498Y-48666814D01*
X172231337Y-48653417D01*
X172225879Y-48640239D01*
X172212266Y-48619864D01*
X172194940Y-48602536D01*
X172174566Y-48588922D01*
X172151927Y-48579544D01*
X172149752Y-48579111D01*
X171279102Y-47708461D01*
X171275115Y-47695317D01*
X171263564Y-47673706D01*
X171248019Y-47654764D01*
X171229077Y-47639219D01*
X171207466Y-47627668D01*
X171202353Y-47625839D01*
X171191976Y-47620292D01*
X171179441Y-47610005D01*
X170799213Y-47229777D01*
X170787530Y-47215540D01*
X170779286Y-47206444D01*
X170766266Y-47193425D01*
X170762354Y-47188658D01*
X170762350Y-47188654D01*
X170755977Y-47180887D01*
X170752064Y-47176119D01*
X170704428Y-47104827D01*
X170693881Y-47085094D01*
X170661066Y-47005875D01*
X170654568Y-46984453D01*
X170637842Y-46900367D01*
X170635648Y-46878088D01*
X170635648Y-46792352D01*
X170637842Y-46770073D01*
X170654568Y-46685986D01*
X170661066Y-46664562D01*
X170693878Y-46585350D01*
X170704430Y-46565608D01*
X170752064Y-46494320D01*
X170766261Y-46477020D01*
X170779291Y-46463990D01*
X170787531Y-46454898D01*
X170799216Y-46440659D01*
X171144085Y-46095790D01*
X171158324Y-46084105D01*
X171167416Y-46075865D01*
X171180446Y-46062835D01*
X171197746Y-46048638D01*
X171269034Y-46001004D01*
X171288776Y-45990452D01*
X171367988Y-45957640D01*
X171389412Y-45951142D01*
X171473499Y-45934416D01*
X171495778Y-45932222D01*
X171581514Y-45932222D01*
X171603793Y-45934416D01*
X171603793Y-45934416D01*
G37*
G36*
X167750443Y-47365519D02*
G01*
X167816627Y-47372037D01*
X167986466Y-47423557D01*
X168142991Y-47507222D01*
X168166402Y-47526435D01*
X168280186Y-47619814D01*
X168363448Y-47721271D01*
X168392778Y-47757009D01*
X168476443Y-47913534D01*
X168527963Y-48083373D01*
X168545359Y-48260000D01*
X168527963Y-48436627D01*
X168476443Y-48606466D01*
X168392778Y-48762991D01*
X168363448Y-48798729D01*
X168280186Y-48900186D01*
X168178729Y-48983448D01*
X168142991Y-49012778D01*
X167986466Y-49096443D01*
X167816627Y-49147963D01*
X167751676Y-49154360D01*
X167684260Y-49161000D01*
X167595740Y-49161000D01*
X167528324Y-49154360D01*
X167463373Y-49147963D01*
X167293534Y-49096443D01*
X167137009Y-49012778D01*
X167101271Y-48983448D01*
X166999814Y-48900186D01*
X166916552Y-48798729D01*
X166887222Y-48762991D01*
X166803557Y-48606466D01*
X166752037Y-48436627D01*
X166734641Y-48260000D01*
X166752037Y-48083373D01*
X166803557Y-47913534D01*
X166887222Y-47757009D01*
X166916552Y-47721271D01*
X166999814Y-47619814D01*
X167113598Y-47526435D01*
X167137009Y-47507222D01*
X167293534Y-47423557D01*
X167463373Y-47372037D01*
X167529557Y-47365519D01*
X167595740Y-47359000D01*
X167684260Y-47359000D01*
X167750443Y-47365519D01*
X167750443Y-47365519D01*
G37*
G36*
X185530443Y-47365519D02*
G01*
X185596627Y-47372037D01*
X185766466Y-47423557D01*
X185922991Y-47507222D01*
X185946402Y-47526435D01*
X186060186Y-47619814D01*
X186143448Y-47721271D01*
X186172778Y-47757009D01*
X186256443Y-47913534D01*
X186307963Y-48083373D01*
X186325359Y-48260000D01*
X186307963Y-48436627D01*
X186256443Y-48606466D01*
X186172778Y-48762991D01*
X186143448Y-48798729D01*
X186060186Y-48900186D01*
X185958729Y-48983448D01*
X185922991Y-49012778D01*
X185766466Y-49096443D01*
X185596627Y-49147963D01*
X185531676Y-49154360D01*
X185464260Y-49161000D01*
X185375740Y-49161000D01*
X185308324Y-49154360D01*
X185243373Y-49147963D01*
X185073534Y-49096443D01*
X184917009Y-49012778D01*
X184881271Y-48983448D01*
X184779814Y-48900186D01*
X184696552Y-48798729D01*
X184667222Y-48762991D01*
X184583557Y-48606466D01*
X184532037Y-48436627D01*
X184514641Y-48260000D01*
X184532037Y-48083373D01*
X184583557Y-47913534D01*
X184667222Y-47757009D01*
X184696552Y-47721271D01*
X184779814Y-47619814D01*
X184893598Y-47526435D01*
X184917009Y-47507222D01*
X185073534Y-47423557D01*
X185243373Y-47372037D01*
X185309557Y-47365519D01*
X185375740Y-47359000D01*
X185464260Y-47359000D01*
X185530443Y-47365519D01*
X185530443Y-47365519D01*
G37*
G36*
X175980690Y-48685011D02*
G01*
X175625723Y-49039978D01*
X175129334Y-48543589D01*
X175484301Y-48188622D01*
X175980690Y-48685011D01*
X175980690Y-48685011D01*
G37*
G36*
X176617086Y-48048615D02*
G01*
X176262119Y-48403582D01*
X175765730Y-47907193D01*
X176120697Y-47552226D01*
X176617086Y-48048615D01*
X176617086Y-48048615D01*
G37*
G36*
X179864000Y-48099000D02*
G01*
X178712000Y-48099000D01*
X178712000Y-46897000D01*
X179864000Y-46897000D01*
X179864000Y-48099000D01*
X179864000Y-48099000D01*
G37*
G36*
X181714000Y-48099000D02*
G01*
X180562000Y-48099000D01*
X180562000Y-46897000D01*
X181714000Y-46897000D01*
X181714000Y-48099000D01*
X181714000Y-48099000D01*
G37*
G36*
X173579449Y-43958760D02*
G01*
X173663535Y-43975486D01*
X173669442Y-43977278D01*
X173669443Y-43977278D01*
X173679057Y-43980194D01*
X173679060Y-43980195D01*
X173684957Y-43981984D01*
X173764176Y-44014799D01*
X173769608Y-44017702D01*
X173769612Y-44017704D01*
X173773734Y-44019908D01*
X173783909Y-44025346D01*
X173855201Y-44072982D01*
X173859969Y-44076895D01*
X173867736Y-44083268D01*
X173867740Y-44083272D01*
X173872507Y-44087184D01*
X173885526Y-44100204D01*
X173894622Y-44108448D01*
X173908859Y-44120131D01*
X174289087Y-44500359D01*
X174299374Y-44512894D01*
X174306535Y-44526291D01*
X174311993Y-44539469D01*
X174325606Y-44559844D01*
X174342932Y-44577172D01*
X174363306Y-44590786D01*
X174385945Y-44600164D01*
X174388120Y-44600597D01*
X175258770Y-45471247D01*
X175262757Y-45484391D01*
X175274308Y-45506002D01*
X175289853Y-45524944D01*
X175308795Y-45540489D01*
X175330406Y-45552040D01*
X175335519Y-45553869D01*
X175345896Y-45559416D01*
X175358431Y-45569703D01*
X175738659Y-45949931D01*
X175750342Y-45964168D01*
X175758586Y-45973264D01*
X175771606Y-45986283D01*
X175775518Y-45991050D01*
X175775522Y-45991054D01*
X175777414Y-45993360D01*
X175785808Y-46003589D01*
X175833444Y-46074881D01*
X175843991Y-46094614D01*
X175876806Y-46173833D01*
X175883304Y-46195255D01*
X175900030Y-46279341D01*
X175902224Y-46301620D01*
X175902224Y-46387356D01*
X175900030Y-46409635D01*
X175883304Y-46493722D01*
X175876806Y-46515146D01*
X175843994Y-46594358D01*
X175833442Y-46614100D01*
X175785808Y-46685388D01*
X175771611Y-46702688D01*
X175758581Y-46715718D01*
X175750341Y-46724810D01*
X175738656Y-46739049D01*
X175393787Y-47083918D01*
X175379548Y-47095603D01*
X175370456Y-47103843D01*
X175357426Y-47116873D01*
X175340126Y-47131070D01*
X175268838Y-47178704D01*
X175249096Y-47189256D01*
X175169884Y-47222068D01*
X175148460Y-47228566D01*
X175064373Y-47245292D01*
X175042094Y-47247486D01*
X174956358Y-47247486D01*
X174934079Y-47245292D01*
X174849993Y-47228566D01*
X174844085Y-47226774D01*
X174834471Y-47223858D01*
X174834468Y-47223857D01*
X174828571Y-47222068D01*
X174749352Y-47189253D01*
X174743920Y-47186350D01*
X174743916Y-47186348D01*
X174739794Y-47184144D01*
X174729619Y-47178706D01*
X174658327Y-47131070D01*
X174651965Y-47125849D01*
X174645792Y-47120784D01*
X174645788Y-47120780D01*
X174641021Y-47116868D01*
X174628002Y-47103848D01*
X174618906Y-47095604D01*
X174604669Y-47083921D01*
X174224441Y-46703693D01*
X174214154Y-46691158D01*
X174206993Y-46677761D01*
X174201535Y-46664583D01*
X174187922Y-46644208D01*
X174170596Y-46626880D01*
X174150222Y-46613266D01*
X174127583Y-46603888D01*
X174125408Y-46603455D01*
X173254758Y-45732805D01*
X173250771Y-45719661D01*
X173239220Y-45698050D01*
X173223675Y-45679108D01*
X173204733Y-45663563D01*
X173183122Y-45652012D01*
X173178009Y-45650183D01*
X173167632Y-45644636D01*
X173155097Y-45634349D01*
X172774869Y-45254121D01*
X172763186Y-45239884D01*
X172754942Y-45230788D01*
X172741922Y-45217769D01*
X172738010Y-45213002D01*
X172738006Y-45212998D01*
X172731633Y-45205231D01*
X172727720Y-45200463D01*
X172680084Y-45129171D01*
X172669537Y-45109438D01*
X172636722Y-45030219D01*
X172630224Y-45008797D01*
X172613498Y-44924711D01*
X172611304Y-44902432D01*
X172611304Y-44816696D01*
X172613498Y-44794417D01*
X172630224Y-44710330D01*
X172636722Y-44688906D01*
X172669534Y-44609694D01*
X172680086Y-44589952D01*
X172727720Y-44518664D01*
X172741917Y-44501364D01*
X172754947Y-44488334D01*
X172763187Y-44479242D01*
X172774872Y-44465003D01*
X173119741Y-44120134D01*
X173133980Y-44108449D01*
X173143072Y-44100209D01*
X173156102Y-44087179D01*
X173173402Y-44072982D01*
X173244690Y-44025348D01*
X173264432Y-44014796D01*
X173343644Y-43981984D01*
X173365068Y-43975486D01*
X173449155Y-43958760D01*
X173471434Y-43956566D01*
X173557170Y-43956566D01*
X173579449Y-43958760D01*
X173579449Y-43958760D01*
G37*
G36*
X167750442Y-44825518D02*
G01*
X167816627Y-44832037D01*
X167986466Y-44883557D01*
X168142991Y-44967222D01*
X168178729Y-44996552D01*
X168280186Y-45079814D01*
X168363448Y-45181271D01*
X168392778Y-45217009D01*
X168476443Y-45373534D01*
X168527963Y-45543373D01*
X168545359Y-45720000D01*
X168527963Y-45896627D01*
X168477544Y-46062835D01*
X168476442Y-46066468D01*
X168460769Y-46095790D01*
X168392778Y-46222991D01*
X168363448Y-46258729D01*
X168280186Y-46360186D01*
X168182128Y-46440659D01*
X168142991Y-46472778D01*
X167986466Y-46556443D01*
X167816627Y-46607963D01*
X167762784Y-46613266D01*
X167684260Y-46621000D01*
X167595740Y-46621000D01*
X167517216Y-46613266D01*
X167463373Y-46607963D01*
X167293534Y-46556443D01*
X167137009Y-46472778D01*
X167097872Y-46440659D01*
X166999814Y-46360186D01*
X166916552Y-46258729D01*
X166887222Y-46222991D01*
X166819231Y-46095790D01*
X166803558Y-46066468D01*
X166802456Y-46062835D01*
X166752037Y-45896627D01*
X166734641Y-45720000D01*
X166752037Y-45543373D01*
X166803557Y-45373534D01*
X166887222Y-45217009D01*
X166916552Y-45181271D01*
X166999814Y-45079814D01*
X167101271Y-44996552D01*
X167137009Y-44967222D01*
X167293534Y-44883557D01*
X167463373Y-44832037D01*
X167529558Y-44825518D01*
X167595740Y-44819000D01*
X167684260Y-44819000D01*
X167750442Y-44825518D01*
X167750442Y-44825518D01*
G37*
G36*
X185530442Y-44825518D02*
G01*
X185596627Y-44832037D01*
X185766466Y-44883557D01*
X185922991Y-44967222D01*
X185958729Y-44996552D01*
X186060186Y-45079814D01*
X186143448Y-45181271D01*
X186172778Y-45217009D01*
X186256443Y-45373534D01*
X186307963Y-45543373D01*
X186325359Y-45720000D01*
X186307963Y-45896627D01*
X186257544Y-46062835D01*
X186256442Y-46066468D01*
X186240769Y-46095790D01*
X186172778Y-46222991D01*
X186143448Y-46258729D01*
X186060186Y-46360186D01*
X185962128Y-46440659D01*
X185922991Y-46472778D01*
X185766466Y-46556443D01*
X185596627Y-46607963D01*
X185542784Y-46613266D01*
X185464260Y-46621000D01*
X185375740Y-46621000D01*
X185297216Y-46613266D01*
X185243373Y-46607963D01*
X185073534Y-46556443D01*
X184917009Y-46472778D01*
X184877872Y-46440659D01*
X184779814Y-46360186D01*
X184696552Y-46258729D01*
X184667222Y-46222991D01*
X184599231Y-46095790D01*
X184583558Y-46066468D01*
X184582456Y-46062835D01*
X184532037Y-45896627D01*
X184514641Y-45720000D01*
X184532037Y-45543373D01*
X184583557Y-45373534D01*
X184667222Y-45217009D01*
X184696552Y-45181271D01*
X184779814Y-45079814D01*
X184881271Y-44996552D01*
X184917009Y-44967222D01*
X185073534Y-44883557D01*
X185243373Y-44832037D01*
X185309558Y-44825518D01*
X185375740Y-44819000D01*
X185464260Y-44819000D01*
X185530442Y-44825518D01*
X185530442Y-44825518D01*
G37*
G36*
X179971000Y-46275000D02*
G01*
X179269000Y-46275000D01*
X179269000Y-45673000D01*
X179971000Y-45673000D01*
X179971000Y-46275000D01*
X179971000Y-46275000D01*
G37*
G36*
X181284000Y-46275000D02*
G01*
X180582000Y-46275000D01*
X180582000Y-45673000D01*
X181284000Y-45673000D01*
X181284000Y-46275000D01*
X181284000Y-46275000D01*
G37*
G36*
X178871000Y-46275000D02*
G01*
X178169000Y-46275000D01*
X178169000Y-45673000D01*
X178871000Y-45673000D01*
X178871000Y-46275000D01*
X178871000Y-46275000D01*
G37*
G36*
X182384000Y-46275000D02*
G01*
X181682000Y-46275000D01*
X181682000Y-45673000D01*
X182384000Y-45673000D01*
X182384000Y-46275000D01*
X182384000Y-46275000D01*
G37*
G36*
X176437481Y-44771882D02*
G01*
X175941092Y-45268271D01*
X175586125Y-44913304D01*
X176082514Y-44416915D01*
X176437481Y-44771882D01*
X176437481Y-44771882D01*
G37*
G36*
X175801085Y-44135486D02*
G01*
X175304696Y-44631875D01*
X174949729Y-44276908D01*
X175446118Y-43780519D01*
X175801085Y-44135486D01*
X175801085Y-44135486D01*
G37*
G36*
X185530442Y-42285518D02*
G01*
X185596627Y-42292037D01*
X185766466Y-42343557D01*
X185922991Y-42427222D01*
X185958729Y-42456552D01*
X186060186Y-42539814D01*
X186143448Y-42641271D01*
X186172778Y-42677009D01*
X186256443Y-42833534D01*
X186307963Y-43003373D01*
X186325359Y-43180000D01*
X186307963Y-43356627D01*
X186256443Y-43526466D01*
X186172778Y-43682991D01*
X186143448Y-43718729D01*
X186060186Y-43820186D01*
X185958729Y-43903448D01*
X185922991Y-43932778D01*
X185766466Y-44016443D01*
X185596627Y-44067963D01*
X185545667Y-44072982D01*
X185464260Y-44081000D01*
X185375740Y-44081000D01*
X185294333Y-44072982D01*
X185243373Y-44067963D01*
X185073534Y-44016443D01*
X184917009Y-43932778D01*
X184881271Y-43903448D01*
X184779814Y-43820186D01*
X184696552Y-43718729D01*
X184667222Y-43682991D01*
X184583557Y-43526466D01*
X184532037Y-43356627D01*
X184514641Y-43180000D01*
X184532037Y-43003373D01*
X184583557Y-42833534D01*
X184667222Y-42677009D01*
X184696552Y-42641271D01*
X184779814Y-42539814D01*
X184881271Y-42456552D01*
X184917009Y-42427222D01*
X185073534Y-42343557D01*
X185243373Y-42292037D01*
X185309557Y-42285519D01*
X185375740Y-42279000D01*
X185464260Y-42279000D01*
X185530442Y-42285518D01*
X185530442Y-42285518D01*
G37*
G36*
X167750442Y-42285518D02*
G01*
X167816627Y-42292037D01*
X167986466Y-42343557D01*
X168142991Y-42427222D01*
X168178729Y-42456552D01*
X168280186Y-42539814D01*
X168363448Y-42641271D01*
X168392778Y-42677009D01*
X168476443Y-42833534D01*
X168527963Y-43003373D01*
X168545359Y-43180000D01*
X168527963Y-43356627D01*
X168476443Y-43526466D01*
X168392778Y-43682991D01*
X168363448Y-43718729D01*
X168280186Y-43820186D01*
X168178729Y-43903448D01*
X168142991Y-43932778D01*
X167986466Y-44016443D01*
X167816627Y-44067963D01*
X167765667Y-44072982D01*
X167684260Y-44081000D01*
X167595740Y-44081000D01*
X167514333Y-44072982D01*
X167463373Y-44067963D01*
X167293534Y-44016443D01*
X167137009Y-43932778D01*
X167101271Y-43903448D01*
X166999814Y-43820186D01*
X166916552Y-43718729D01*
X166887222Y-43682991D01*
X166803557Y-43526466D01*
X166752037Y-43356627D01*
X166734641Y-43180000D01*
X166752037Y-43003373D01*
X166803557Y-42833534D01*
X166887222Y-42677009D01*
X166916552Y-42641271D01*
X166999814Y-42539814D01*
X167101271Y-42456552D01*
X167137009Y-42427222D01*
X167293534Y-42343557D01*
X167463373Y-42292037D01*
X167529557Y-42285519D01*
X167595740Y-42279000D01*
X167684260Y-42279000D01*
X167750442Y-42285518D01*
X167750442Y-42285518D01*
G37*
G36*
X183726226Y-37204023D02*
G01*
X183461060Y-37469189D01*
X183372673Y-37557577D01*
X183123771Y-37806479D01*
X183035383Y-37894866D01*
X182770217Y-38160032D01*
X182681829Y-38248419D01*
X182665566Y-38264683D01*
X182541115Y-38389134D01*
X182400400Y-38529850D01*
X181267616Y-39662634D01*
X180914062Y-40016187D01*
X180632633Y-40297617D01*
X179499849Y-41430401D01*
X179146295Y-41783954D01*
X178864866Y-42065384D01*
X178174024Y-42756226D01*
X178174023Y-42756226D01*
X177394791Y-41976994D01*
X177643693Y-41728092D01*
X177643694Y-41728093D01*
X177732071Y-41639715D01*
X177732082Y-41639706D01*
X177748346Y-41623442D01*
X177748345Y-41623441D01*
X177997247Y-41374539D01*
X177997248Y-41374540D01*
X178013512Y-41358276D01*
X178013521Y-41358265D01*
X178101899Y-41269888D01*
X178101898Y-41269887D01*
X178350800Y-41020985D01*
X178350801Y-41020986D01*
X178455452Y-40916335D01*
X178455451Y-40916334D01*
X178704353Y-40667432D01*
X178704354Y-40667433D01*
X178792731Y-40579055D01*
X178792742Y-40579046D01*
X178809006Y-40562782D01*
X178809005Y-40562781D01*
X179057907Y-40313879D01*
X179057908Y-40313880D01*
X179074172Y-40297616D01*
X179074181Y-40297605D01*
X179162559Y-40209228D01*
X179162558Y-40209227D01*
X179411460Y-39960325D01*
X179411461Y-39960326D01*
X179499838Y-39871948D01*
X179499849Y-39871939D01*
X179516113Y-39855675D01*
X179516112Y-39855674D01*
X179765014Y-39606772D01*
X179765015Y-39606773D01*
X179781279Y-39590509D01*
X179781288Y-39590498D01*
X179869666Y-39502121D01*
X179869665Y-39502120D01*
X180118567Y-39253218D01*
X180118568Y-39253219D01*
X180223219Y-39148568D01*
X180223218Y-39148567D01*
X180472120Y-38899665D01*
X180472121Y-38899666D01*
X180560498Y-38811288D01*
X180560509Y-38811279D01*
X180576773Y-38795015D01*
X180576772Y-38795014D01*
X180825674Y-38546112D01*
X180825675Y-38546113D01*
X180841939Y-38529849D01*
X180841948Y-38529838D01*
X180930326Y-38441461D01*
X180930325Y-38441460D01*
X181179227Y-38192558D01*
X181179228Y-38192559D01*
X181267605Y-38104181D01*
X181267616Y-38104172D01*
X181283880Y-38087908D01*
X181283879Y-38087907D01*
X181532781Y-37839005D01*
X181532782Y-37839006D01*
X181549046Y-37822742D01*
X181549055Y-37822731D01*
X181637433Y-37734354D01*
X181637432Y-37734353D01*
X181886334Y-37485451D01*
X181886335Y-37485452D01*
X181990986Y-37380801D01*
X181990985Y-37380800D01*
X182239887Y-37131898D01*
X182239888Y-37131899D01*
X182328265Y-37043521D01*
X182328276Y-37043512D01*
X182344540Y-37027248D01*
X182344539Y-37027247D01*
X182593441Y-36778345D01*
X182593442Y-36778346D01*
X182609706Y-36762082D01*
X182609715Y-36762071D01*
X182698093Y-36673694D01*
X182698092Y-36673693D01*
X182946994Y-36424791D01*
X183726226Y-37204023D01*
X183726226Y-37204023D01*
G37*
G36*
X170361908Y-36673693D02*
G01*
X170361908Y-36673694D01*
X170450290Y-36762076D01*
X170450295Y-36762082D01*
X170466559Y-36778346D01*
X170466559Y-36778345D01*
X170715461Y-37027247D01*
X170715461Y-37027248D01*
X170731725Y-37043512D01*
X170731731Y-37043517D01*
X170820113Y-37131899D01*
X170820113Y-37131898D01*
X171069015Y-37380800D01*
X171069015Y-37380801D01*
X171173666Y-37485452D01*
X171173666Y-37485451D01*
X171422568Y-37734353D01*
X171422568Y-37734354D01*
X171510950Y-37822736D01*
X171510955Y-37822742D01*
X171527219Y-37839006D01*
X171527219Y-37839005D01*
X171776121Y-38087907D01*
X171776121Y-38087908D01*
X171792385Y-38104172D01*
X171792391Y-38104177D01*
X171880773Y-38192559D01*
X171880773Y-38192558D01*
X172129675Y-38441460D01*
X172129675Y-38441461D01*
X172218057Y-38529843D01*
X172218062Y-38529849D01*
X172234326Y-38546113D01*
X172234326Y-38546112D01*
X172483228Y-38795014D01*
X172483228Y-38795015D01*
X172499492Y-38811279D01*
X172499498Y-38811284D01*
X172587880Y-38899666D01*
X172587880Y-38899665D01*
X172836782Y-39148567D01*
X172836782Y-39148568D01*
X172941433Y-39253219D01*
X172941433Y-39253218D01*
X173190335Y-39502120D01*
X173190335Y-39502121D01*
X173278717Y-39590503D01*
X173278722Y-39590509D01*
X173294986Y-39606773D01*
X173294986Y-39606772D01*
X173543888Y-39855674D01*
X173543888Y-39855675D01*
X173560152Y-39871939D01*
X173560158Y-39871944D01*
X173648540Y-39960326D01*
X173648540Y-39960325D01*
X173897442Y-40209227D01*
X173897442Y-40209228D01*
X173985824Y-40297610D01*
X173985829Y-40297616D01*
X174002093Y-40313880D01*
X174002093Y-40313879D01*
X174250995Y-40562781D01*
X174250995Y-40562782D01*
X174267259Y-40579046D01*
X174267265Y-40579051D01*
X174355647Y-40667433D01*
X174355647Y-40667432D01*
X174604549Y-40916334D01*
X174604549Y-40916335D01*
X174709200Y-41020986D01*
X174709200Y-41020985D01*
X174958102Y-41269887D01*
X174958102Y-41269888D01*
X175046484Y-41358270D01*
X175046489Y-41358276D01*
X175062753Y-41374540D01*
X175062753Y-41374539D01*
X175311655Y-41623441D01*
X175311655Y-41623442D01*
X175327919Y-41639706D01*
X175327925Y-41639711D01*
X175416307Y-41728093D01*
X175416307Y-41728092D01*
X175665209Y-41976994D01*
X174885977Y-42756226D01*
X174637075Y-42507324D01*
X174637076Y-42507324D01*
X174620812Y-42491060D01*
X174620806Y-42491055D01*
X174532424Y-42402673D01*
X174532423Y-42402673D01*
X174283521Y-42153771D01*
X174283522Y-42153771D01*
X174195140Y-42065389D01*
X174195135Y-42065383D01*
X174178871Y-42049119D01*
X174178870Y-42049119D01*
X173929968Y-41800217D01*
X173929969Y-41800217D01*
X173825318Y-41695566D01*
X173825317Y-41695566D01*
X173576415Y-41446664D01*
X173576416Y-41446664D01*
X173560152Y-41430400D01*
X173560146Y-41430395D01*
X173471764Y-41342013D01*
X173471763Y-41342013D01*
X173222861Y-41093111D01*
X173222862Y-41093111D01*
X173134480Y-41004729D01*
X173134475Y-41004723D01*
X173118211Y-40988459D01*
X173118210Y-40988459D01*
X172869308Y-40739557D01*
X172869309Y-40739557D01*
X172853045Y-40723293D01*
X172853039Y-40723288D01*
X172764657Y-40634906D01*
X172764656Y-40634906D01*
X172515754Y-40386004D01*
X172515755Y-40386004D01*
X172427373Y-40297622D01*
X172427368Y-40297616D01*
X172411104Y-40281352D01*
X172411103Y-40281352D01*
X172162201Y-40032450D01*
X172162202Y-40032450D01*
X172057551Y-39927799D01*
X172057550Y-39927799D01*
X171808648Y-39678897D01*
X171808649Y-39678897D01*
X171792385Y-39662633D01*
X171792379Y-39662628D01*
X171703997Y-39574246D01*
X171703996Y-39574246D01*
X171455094Y-39325344D01*
X171455095Y-39325344D01*
X171366713Y-39236962D01*
X171366708Y-39236956D01*
X171350444Y-39220692D01*
X171350443Y-39220692D01*
X171101541Y-38971790D01*
X171101542Y-38971790D01*
X171085278Y-38955526D01*
X171085272Y-38955521D01*
X170996890Y-38867139D01*
X170996889Y-38867139D01*
X170747987Y-38618237D01*
X170747988Y-38618237D01*
X170659606Y-38529855D01*
X170659601Y-38529849D01*
X170643337Y-38513585D01*
X170643336Y-38513585D01*
X170394434Y-38264683D01*
X170394435Y-38264683D01*
X170289784Y-38160032D01*
X170289783Y-38160032D01*
X170040881Y-37911130D01*
X170040882Y-37911130D01*
X170024618Y-37894866D01*
X170024612Y-37894861D01*
X169936230Y-37806479D01*
X169936229Y-37806479D01*
X169687327Y-37557577D01*
X169687328Y-37557577D01*
X169598946Y-37469195D01*
X169598941Y-37469189D01*
X169582677Y-37452925D01*
X169582676Y-37452925D01*
X169333774Y-37204023D01*
X170113006Y-36424791D01*
X170361908Y-36673693D01*
X170361908Y-36673693D01*
G37*
G36*
X167750442Y-39745518D02*
G01*
X167816627Y-39752037D01*
X167986466Y-39803557D01*
X168142991Y-39887222D01*
X168178729Y-39916552D01*
X168280186Y-39999814D01*
X168363448Y-40101271D01*
X168392778Y-40137009D01*
X168476443Y-40293534D01*
X168527963Y-40463373D01*
X168545359Y-40640000D01*
X168527963Y-40816627D01*
X168476443Y-40986466D01*
X168392778Y-41142991D01*
X168363448Y-41178729D01*
X168280186Y-41280186D01*
X168204848Y-41342013D01*
X168142991Y-41392778D01*
X167986466Y-41476443D01*
X167816627Y-41527963D01*
X167750442Y-41534482D01*
X167684260Y-41541000D01*
X167595740Y-41541000D01*
X167529558Y-41534482D01*
X167463373Y-41527963D01*
X167293534Y-41476443D01*
X167137009Y-41392778D01*
X167075152Y-41342013D01*
X166999814Y-41280186D01*
X166916552Y-41178729D01*
X166887222Y-41142991D01*
X166803557Y-40986466D01*
X166752037Y-40816627D01*
X166734641Y-40640000D01*
X166752037Y-40463373D01*
X166803557Y-40293534D01*
X166887222Y-40137009D01*
X166916552Y-40101271D01*
X166999814Y-39999814D01*
X167101271Y-39916552D01*
X167137009Y-39887222D01*
X167293534Y-39803557D01*
X167463373Y-39752037D01*
X167529557Y-39745519D01*
X167595740Y-39739000D01*
X167684260Y-39739000D01*
X167750442Y-39745518D01*
X167750442Y-39745518D01*
G37*
G36*
X185530442Y-39745518D02*
G01*
X185596627Y-39752037D01*
X185766466Y-39803557D01*
X185922991Y-39887222D01*
X185958729Y-39916552D01*
X186060186Y-39999814D01*
X186143448Y-40101271D01*
X186172778Y-40137009D01*
X186256443Y-40293534D01*
X186307963Y-40463373D01*
X186325359Y-40640000D01*
X186307963Y-40816627D01*
X186256443Y-40986466D01*
X186172778Y-41142991D01*
X186143448Y-41178729D01*
X186060186Y-41280186D01*
X185984848Y-41342013D01*
X185922991Y-41392778D01*
X185766466Y-41476443D01*
X185596627Y-41527963D01*
X185530442Y-41534482D01*
X185464260Y-41541000D01*
X185375740Y-41541000D01*
X185309558Y-41534482D01*
X185243373Y-41527963D01*
X185073534Y-41476443D01*
X184917009Y-41392778D01*
X184855152Y-41342013D01*
X184779814Y-41280186D01*
X184696552Y-41178729D01*
X184667222Y-41142991D01*
X184583557Y-40986466D01*
X184532037Y-40816627D01*
X184514641Y-40640000D01*
X184532037Y-40463373D01*
X184583557Y-40293534D01*
X184667222Y-40137009D01*
X184696552Y-40101271D01*
X184779814Y-39999814D01*
X184881271Y-39916552D01*
X184917009Y-39887222D01*
X185073534Y-39803557D01*
X185243373Y-39752037D01*
X185309557Y-39745519D01*
X185375740Y-39739000D01*
X185464260Y-39739000D01*
X185530442Y-39745518D01*
X185530442Y-39745518D01*
G37*
G36*
X185530442Y-37205518D02*
G01*
X185596627Y-37212037D01*
X185766466Y-37263557D01*
X185922991Y-37347222D01*
X185958729Y-37376552D01*
X186060186Y-37459814D01*
X186140417Y-37557577D01*
X186172778Y-37597009D01*
X186172779Y-37597011D01*
X186246191Y-37734353D01*
X186256443Y-37753534D01*
X186307963Y-37923373D01*
X186325359Y-38100000D01*
X186307963Y-38276627D01*
X186256443Y-38446466D01*
X186172778Y-38602991D01*
X186143448Y-38638729D01*
X186060186Y-38740186D01*
X185958729Y-38823448D01*
X185922991Y-38852778D01*
X185766466Y-38936443D01*
X185596627Y-38987963D01*
X185530443Y-38994481D01*
X185464260Y-39001000D01*
X185375740Y-39001000D01*
X185309557Y-38994481D01*
X185243373Y-38987963D01*
X185073534Y-38936443D01*
X184917009Y-38852778D01*
X184881271Y-38823448D01*
X184779814Y-38740186D01*
X184696552Y-38638729D01*
X184667222Y-38602991D01*
X184583557Y-38446466D01*
X184532037Y-38276627D01*
X184514641Y-38100000D01*
X184532037Y-37923373D01*
X184583557Y-37753534D01*
X184593810Y-37734353D01*
X184667221Y-37597011D01*
X184667222Y-37597009D01*
X184699583Y-37557577D01*
X184779814Y-37459814D01*
X184881271Y-37376552D01*
X184917009Y-37347222D01*
X185073534Y-37263557D01*
X185243373Y-37212037D01*
X185309558Y-37205518D01*
X185375740Y-37199000D01*
X185464260Y-37199000D01*
X185530442Y-37205518D01*
X185530442Y-37205518D01*
G37*
G36*
X167750442Y-37205518D02*
G01*
X167816627Y-37212037D01*
X167986466Y-37263557D01*
X168142991Y-37347222D01*
X168178729Y-37376552D01*
X168280186Y-37459814D01*
X168360417Y-37557577D01*
X168392778Y-37597009D01*
X168392779Y-37597011D01*
X168466191Y-37734353D01*
X168476443Y-37753534D01*
X168527963Y-37923373D01*
X168545359Y-38100000D01*
X168527963Y-38276627D01*
X168476443Y-38446466D01*
X168392778Y-38602991D01*
X168363448Y-38638729D01*
X168280186Y-38740186D01*
X168178729Y-38823448D01*
X168142991Y-38852778D01*
X167986466Y-38936443D01*
X167816627Y-38987963D01*
X167750443Y-38994481D01*
X167684260Y-39001000D01*
X167595740Y-39001000D01*
X167529557Y-38994481D01*
X167463373Y-38987963D01*
X167293534Y-38936443D01*
X167137009Y-38852778D01*
X167101271Y-38823448D01*
X166999814Y-38740186D01*
X166916552Y-38638729D01*
X166887222Y-38602991D01*
X166803557Y-38446466D01*
X166752037Y-38276627D01*
X166734641Y-38100000D01*
X166752037Y-37923373D01*
X166803557Y-37753534D01*
X166813810Y-37734353D01*
X166887221Y-37597011D01*
X166887222Y-37597009D01*
X166919583Y-37557577D01*
X166999814Y-37459814D01*
X167101271Y-37376552D01*
X167137009Y-37347222D01*
X167293534Y-37263557D01*
X167463373Y-37212037D01*
X167529558Y-37205518D01*
X167595740Y-37199000D01*
X167684260Y-37199000D01*
X167750442Y-37205518D01*
X167750442Y-37205518D01*
G37*
G36*
X185530443Y-34665519D02*
G01*
X185596627Y-34672037D01*
X185766466Y-34723557D01*
X185922991Y-34807222D01*
X185958729Y-34836552D01*
X186060186Y-34919814D01*
X186143448Y-35021271D01*
X186172778Y-35057009D01*
X186256443Y-35213534D01*
X186307963Y-35383373D01*
X186325359Y-35560000D01*
X186307963Y-35736627D01*
X186256443Y-35906466D01*
X186172778Y-36062991D01*
X186143448Y-36098729D01*
X186060186Y-36200186D01*
X185958729Y-36283448D01*
X185922991Y-36312778D01*
X185766466Y-36396443D01*
X185596627Y-36447963D01*
X185530443Y-36454481D01*
X185464260Y-36461000D01*
X185375740Y-36461000D01*
X185309558Y-36454482D01*
X185243373Y-36447963D01*
X185073534Y-36396443D01*
X184917009Y-36312778D01*
X184881271Y-36283448D01*
X184779814Y-36200186D01*
X184696552Y-36098729D01*
X184667222Y-36062991D01*
X184583557Y-35906466D01*
X184532037Y-35736627D01*
X184514641Y-35560000D01*
X184532037Y-35383373D01*
X184583557Y-35213534D01*
X184667222Y-35057009D01*
X184696552Y-35021271D01*
X184779814Y-34919814D01*
X184881271Y-34836552D01*
X184917009Y-34807222D01*
X185073534Y-34723557D01*
X185243373Y-34672037D01*
X185309558Y-34665518D01*
X185375740Y-34659000D01*
X185464260Y-34659000D01*
X185530443Y-34665519D01*
X185530443Y-34665519D01*
G37*
G36*
X167750443Y-34665519D02*
G01*
X167816627Y-34672037D01*
X167986466Y-34723557D01*
X168142991Y-34807222D01*
X168178729Y-34836552D01*
X168280186Y-34919814D01*
X168363448Y-35021271D01*
X168392778Y-35057009D01*
X168476443Y-35213534D01*
X168527963Y-35383373D01*
X168545359Y-35560000D01*
X168527963Y-35736627D01*
X168476443Y-35906466D01*
X168392778Y-36062991D01*
X168363448Y-36098729D01*
X168280186Y-36200186D01*
X168178729Y-36283448D01*
X168142991Y-36312778D01*
X167986466Y-36396443D01*
X167816627Y-36447963D01*
X167750443Y-36454481D01*
X167684260Y-36461000D01*
X167595740Y-36461000D01*
X167529558Y-36454482D01*
X167463373Y-36447963D01*
X167293534Y-36396443D01*
X167137009Y-36312778D01*
X167101271Y-36283448D01*
X166999814Y-36200186D01*
X166916552Y-36098729D01*
X166887222Y-36062991D01*
X166803557Y-35906466D01*
X166752037Y-35736627D01*
X166734641Y-35560000D01*
X166752037Y-35383373D01*
X166803557Y-35213534D01*
X166887222Y-35057009D01*
X166916552Y-35021271D01*
X166999814Y-34919814D01*
X167101271Y-34836552D01*
X167137009Y-34807222D01*
X167293534Y-34723557D01*
X167463373Y-34672037D01*
X167529557Y-34665519D01*
X167595740Y-34659000D01*
X167684260Y-34659000D01*
X167750443Y-34665519D01*
X167750443Y-34665519D01*
G37*
G36*
X175665209Y-29143006D02*
G01*
X175416307Y-29391908D01*
X175311655Y-29496559D01*
X175062753Y-29745461D01*
X174958102Y-29850113D01*
X174355647Y-30452568D01*
X174250995Y-30557219D01*
X174002093Y-30806121D01*
X173897442Y-30910773D01*
X173648540Y-31159675D01*
X173543888Y-31264326D01*
X173294986Y-31513228D01*
X173190335Y-31617880D01*
X172587880Y-32220335D01*
X172483228Y-32324986D01*
X172234326Y-32573888D01*
X172129675Y-32678540D01*
X171880773Y-32927442D01*
X171776121Y-33032093D01*
X171527219Y-33280995D01*
X171422568Y-33385647D01*
X170820113Y-33988102D01*
X170715461Y-34092753D01*
X170466559Y-34341655D01*
X170361908Y-34446307D01*
X170113006Y-34695209D01*
X169333774Y-33915977D01*
X169582676Y-33667075D01*
X169582677Y-33667076D01*
X169598941Y-33650812D01*
X169598950Y-33650801D01*
X169687328Y-33562424D01*
X169687327Y-33562423D01*
X169936229Y-33313521D01*
X169936230Y-33313522D01*
X170024607Y-33225144D01*
X170024618Y-33225135D01*
X170040882Y-33208871D01*
X170040881Y-33208870D01*
X170289783Y-32959968D01*
X170289784Y-32959969D01*
X170378171Y-32871581D01*
X170394435Y-32855318D01*
X170394434Y-32855317D01*
X170643336Y-32606415D01*
X170643337Y-32606416D01*
X170659601Y-32590152D01*
X170659610Y-32590141D01*
X170747988Y-32501764D01*
X170747987Y-32501763D01*
X170996889Y-32252861D01*
X170996890Y-32252862D01*
X171085267Y-32164484D01*
X171085278Y-32164475D01*
X171101542Y-32148211D01*
X171101541Y-32148210D01*
X171350443Y-31899308D01*
X171350444Y-31899309D01*
X171366708Y-31883045D01*
X171366717Y-31883034D01*
X171455095Y-31794657D01*
X171455094Y-31794656D01*
X171703996Y-31545754D01*
X171703997Y-31545755D01*
X171792374Y-31457377D01*
X171792385Y-31457368D01*
X171808649Y-31441104D01*
X171808648Y-31441103D01*
X172057550Y-31192201D01*
X172057551Y-31192202D01*
X172145938Y-31103814D01*
X172162202Y-31087551D01*
X172162201Y-31087550D01*
X172411103Y-30838648D01*
X172411104Y-30838649D01*
X172427368Y-30822385D01*
X172427377Y-30822374D01*
X172515755Y-30733997D01*
X172515754Y-30733996D01*
X172764656Y-30485094D01*
X172764657Y-30485095D01*
X172853034Y-30396717D01*
X172853045Y-30396708D01*
X172869309Y-30380444D01*
X172869308Y-30380443D01*
X173118210Y-30131541D01*
X173118211Y-30131542D01*
X173134475Y-30115278D01*
X173134484Y-30115267D01*
X173222862Y-30026890D01*
X173222861Y-30026889D01*
X173471763Y-29777987D01*
X173471764Y-29777988D01*
X173560141Y-29689610D01*
X173560152Y-29689601D01*
X173576416Y-29673337D01*
X173576415Y-29673336D01*
X173825317Y-29424434D01*
X173825318Y-29424435D01*
X173913705Y-29336047D01*
X173929969Y-29319784D01*
X173929968Y-29319783D01*
X174178870Y-29070881D01*
X174178871Y-29070882D01*
X174195135Y-29054618D01*
X174195144Y-29054607D01*
X174283522Y-28966230D01*
X174283521Y-28966229D01*
X174532423Y-28717327D01*
X174532424Y-28717328D01*
X174620801Y-28628950D01*
X174620812Y-28628941D01*
X174637076Y-28612677D01*
X174637075Y-28612676D01*
X174885977Y-28363774D01*
X175665209Y-29143006D01*
X175665209Y-29143006D01*
G37*
G36*
X178422925Y-28612676D02*
G01*
X178422925Y-28612677D01*
X178439189Y-28628941D01*
X178439195Y-28628946D01*
X178527577Y-28717328D01*
X178527577Y-28717327D01*
X178776479Y-28966229D01*
X178776479Y-28966230D01*
X178864861Y-29054612D01*
X178864866Y-29054618D01*
X178881130Y-29070882D01*
X178881130Y-29070881D01*
X179130032Y-29319783D01*
X179130032Y-29319784D01*
X179234683Y-29424435D01*
X179234683Y-29424434D01*
X179483585Y-29673336D01*
X179483585Y-29673337D01*
X179499849Y-29689601D01*
X179499855Y-29689606D01*
X179588237Y-29777988D01*
X179588237Y-29777987D01*
X179837139Y-30026889D01*
X179837139Y-30026890D01*
X179925521Y-30115272D01*
X179925526Y-30115278D01*
X179941790Y-30131542D01*
X179941790Y-30131541D01*
X180190692Y-30380443D01*
X180190692Y-30380444D01*
X180206956Y-30396708D01*
X180206962Y-30396713D01*
X180295344Y-30485095D01*
X180295344Y-30485094D01*
X180544246Y-30733996D01*
X180544246Y-30733997D01*
X180632628Y-30822379D01*
X180632633Y-30822385D01*
X180648897Y-30838649D01*
X180648897Y-30838648D01*
X180897799Y-31087550D01*
X180897799Y-31087551D01*
X181002450Y-31192202D01*
X181002450Y-31192201D01*
X181251352Y-31441103D01*
X181251352Y-31441104D01*
X181267616Y-31457368D01*
X181267622Y-31457373D01*
X181356004Y-31545755D01*
X181356004Y-31545754D01*
X181604906Y-31794656D01*
X181604906Y-31794657D01*
X181693288Y-31883039D01*
X181693293Y-31883045D01*
X181709557Y-31899309D01*
X181709557Y-31899308D01*
X181958459Y-32148210D01*
X181958459Y-32148211D01*
X181974723Y-32164475D01*
X181974729Y-32164480D01*
X182063111Y-32252862D01*
X182063111Y-32252861D01*
X182312013Y-32501763D01*
X182312013Y-32501764D01*
X182400395Y-32590146D01*
X182400400Y-32590152D01*
X182416664Y-32606416D01*
X182416664Y-32606415D01*
X182665566Y-32855317D01*
X182665566Y-32855318D01*
X182770217Y-32959969D01*
X182770217Y-32959968D01*
X183019119Y-33208870D01*
X183019119Y-33208871D01*
X183035383Y-33225135D01*
X183035389Y-33225140D01*
X183123771Y-33313522D01*
X183123771Y-33313521D01*
X183372673Y-33562423D01*
X183372673Y-33562424D01*
X183461055Y-33650806D01*
X183461060Y-33650812D01*
X183477324Y-33667076D01*
X183477324Y-33667075D01*
X183726226Y-33915977D01*
X182946994Y-34695209D01*
X182698092Y-34446307D01*
X182698093Y-34446307D01*
X182609711Y-34357925D01*
X182609706Y-34357919D01*
X182593442Y-34341655D01*
X182593441Y-34341655D01*
X182344539Y-34092753D01*
X182344540Y-34092753D01*
X182328276Y-34076489D01*
X182328270Y-34076484D01*
X182239888Y-33988102D01*
X182239887Y-33988102D01*
X181990985Y-33739200D01*
X181990986Y-33739200D01*
X181886335Y-33634549D01*
X181886334Y-33634549D01*
X181637432Y-33385647D01*
X181637433Y-33385647D01*
X181549051Y-33297265D01*
X181549046Y-33297259D01*
X181532782Y-33280995D01*
X181532781Y-33280995D01*
X181283879Y-33032093D01*
X181283880Y-33032093D01*
X181267616Y-33015829D01*
X181267610Y-33015824D01*
X181179228Y-32927442D01*
X181179227Y-32927442D01*
X180930325Y-32678540D01*
X180930326Y-32678540D01*
X180841944Y-32590158D01*
X180841939Y-32590152D01*
X180825675Y-32573888D01*
X180825674Y-32573888D01*
X180576772Y-32324986D01*
X180576773Y-32324986D01*
X180560509Y-32308722D01*
X180560503Y-32308717D01*
X180472121Y-32220335D01*
X180472120Y-32220335D01*
X180223218Y-31971433D01*
X180223219Y-31971433D01*
X180118568Y-31866782D01*
X180118567Y-31866782D01*
X179869665Y-31617880D01*
X179869666Y-31617880D01*
X179781284Y-31529498D01*
X179781279Y-31529492D01*
X179765015Y-31513228D01*
X179765014Y-31513228D01*
X179516112Y-31264326D01*
X179516113Y-31264326D01*
X179499849Y-31248062D01*
X179499843Y-31248057D01*
X179411461Y-31159675D01*
X179411460Y-31159675D01*
X179162558Y-30910773D01*
X179162559Y-30910773D01*
X179074177Y-30822391D01*
X179074172Y-30822385D01*
X179057908Y-30806121D01*
X179057907Y-30806121D01*
X178809005Y-30557219D01*
X178809006Y-30557219D01*
X178792742Y-30540955D01*
X178792736Y-30540950D01*
X178704354Y-30452568D01*
X178704353Y-30452568D01*
X178455451Y-30203666D01*
X178455452Y-30203666D01*
X178350801Y-30099015D01*
X178350800Y-30099015D01*
X178101898Y-29850113D01*
X178101899Y-29850113D01*
X178013517Y-29761731D01*
X178013512Y-29761725D01*
X177997248Y-29745461D01*
X177997247Y-29745461D01*
X177748345Y-29496559D01*
X177748346Y-29496559D01*
X177732082Y-29480295D01*
X177732076Y-29480290D01*
X177643694Y-29391908D01*
X177643693Y-29391908D01*
X177394791Y-29143006D01*
X178174023Y-28363774D01*
X178422925Y-28612676D01*
X178422925Y-28612676D01*
G37*
G36*
X167750443Y-32125519D02*
G01*
X167816627Y-32132037D01*
X167986466Y-32183557D01*
X168142991Y-32267222D01*
X168178729Y-32296552D01*
X168280186Y-32379814D01*
X168363448Y-32481271D01*
X168392778Y-32517009D01*
X168476443Y-32673534D01*
X168527963Y-32843373D01*
X168545359Y-33020000D01*
X168527963Y-33196627D01*
X168476443Y-33366466D01*
X168476442Y-33366468D01*
X168434611Y-33444728D01*
X168392778Y-33522991D01*
X168363448Y-33558729D01*
X168280186Y-33660186D01*
X168183906Y-33739200D01*
X168142991Y-33772778D01*
X167986466Y-33856443D01*
X167816627Y-33907963D01*
X167750443Y-33914481D01*
X167684260Y-33921000D01*
X167595740Y-33921000D01*
X167529557Y-33914481D01*
X167463373Y-33907963D01*
X167293534Y-33856443D01*
X167137009Y-33772778D01*
X167096094Y-33739200D01*
X166999814Y-33660186D01*
X166916552Y-33558729D01*
X166887222Y-33522991D01*
X166845389Y-33444728D01*
X166803558Y-33366468D01*
X166803557Y-33366466D01*
X166752037Y-33196627D01*
X166734641Y-33020000D01*
X166752037Y-32843373D01*
X166803557Y-32673534D01*
X166887222Y-32517009D01*
X166916552Y-32481271D01*
X166999814Y-32379814D01*
X167101271Y-32296552D01*
X167137009Y-32267222D01*
X167293534Y-32183557D01*
X167463373Y-32132037D01*
X167529557Y-32125519D01*
X167595740Y-32119000D01*
X167684260Y-32119000D01*
X167750443Y-32125519D01*
X167750443Y-32125519D01*
G37*
G36*
X185530443Y-32125519D02*
G01*
X185596627Y-32132037D01*
X185766466Y-32183557D01*
X185922991Y-32267222D01*
X185958729Y-32296552D01*
X186060186Y-32379814D01*
X186143448Y-32481271D01*
X186172778Y-32517009D01*
X186256443Y-32673534D01*
X186307963Y-32843373D01*
X186325359Y-33020000D01*
X186307963Y-33196627D01*
X186256443Y-33366466D01*
X186256442Y-33366468D01*
X186214611Y-33444728D01*
X186172778Y-33522991D01*
X186143448Y-33558729D01*
X186060186Y-33660186D01*
X185963906Y-33739200D01*
X185922991Y-33772778D01*
X185766466Y-33856443D01*
X185596627Y-33907963D01*
X185530443Y-33914481D01*
X185464260Y-33921000D01*
X185375740Y-33921000D01*
X185309557Y-33914481D01*
X185243373Y-33907963D01*
X185073534Y-33856443D01*
X184917009Y-33772778D01*
X184876094Y-33739200D01*
X184779814Y-33660186D01*
X184696552Y-33558729D01*
X184667222Y-33522991D01*
X184625389Y-33444728D01*
X184583558Y-33366468D01*
X184583557Y-33366466D01*
X184532037Y-33196627D01*
X184514641Y-33020000D01*
X184532037Y-32843373D01*
X184583557Y-32673534D01*
X184667222Y-32517009D01*
X184696552Y-32481271D01*
X184779814Y-32379814D01*
X184881271Y-32296552D01*
X184917009Y-32267222D01*
X185073534Y-32183557D01*
X185243373Y-32132037D01*
X185309557Y-32125519D01*
X185375740Y-32119000D01*
X185464260Y-32119000D01*
X185530443Y-32125519D01*
X185530443Y-32125519D01*
G37*
G36*
X185530443Y-29585519D02*
G01*
X185596627Y-29592037D01*
X185766466Y-29643557D01*
X185922991Y-29727222D01*
X185945215Y-29745461D01*
X186060186Y-29839814D01*
X186143448Y-29941271D01*
X186172778Y-29977009D01*
X186256443Y-30133534D01*
X186307963Y-30303373D01*
X186325359Y-30480000D01*
X186307963Y-30656627D01*
X186256443Y-30826466D01*
X186172778Y-30982991D01*
X186143448Y-31018729D01*
X186060186Y-31120186D01*
X185972434Y-31192201D01*
X185922991Y-31232778D01*
X185766466Y-31316443D01*
X185596627Y-31367963D01*
X185530443Y-31374481D01*
X185464260Y-31381000D01*
X185375740Y-31381000D01*
X185309557Y-31374481D01*
X185243373Y-31367963D01*
X185073534Y-31316443D01*
X184917009Y-31232778D01*
X184867566Y-31192201D01*
X184779814Y-31120186D01*
X184696552Y-31018729D01*
X184667222Y-30982991D01*
X184583557Y-30826466D01*
X184532037Y-30656627D01*
X184514641Y-30480000D01*
X184532037Y-30303373D01*
X184583557Y-30133534D01*
X184667222Y-29977009D01*
X184696552Y-29941271D01*
X184779814Y-29839814D01*
X184894785Y-29745461D01*
X184917009Y-29727222D01*
X185073534Y-29643557D01*
X185243373Y-29592037D01*
X185309557Y-29585519D01*
X185375740Y-29579000D01*
X185464260Y-29579000D01*
X185530443Y-29585519D01*
X185530443Y-29585519D01*
G37*
G36*
X167750443Y-29585519D02*
G01*
X167816627Y-29592037D01*
X167986466Y-29643557D01*
X168142991Y-29727222D01*
X168165215Y-29745461D01*
X168280186Y-29839814D01*
X168363448Y-29941271D01*
X168392778Y-29977009D01*
X168476443Y-30133534D01*
X168527963Y-30303373D01*
X168545359Y-30480000D01*
X168527963Y-30656627D01*
X168476443Y-30826466D01*
X168392778Y-30982991D01*
X168363448Y-31018729D01*
X168280186Y-31120186D01*
X168192434Y-31192201D01*
X168142991Y-31232778D01*
X167986466Y-31316443D01*
X167816627Y-31367963D01*
X167750443Y-31374481D01*
X167684260Y-31381000D01*
X167595740Y-31381000D01*
X167529557Y-31374481D01*
X167463373Y-31367963D01*
X167293534Y-31316443D01*
X167137009Y-31232778D01*
X167087566Y-31192201D01*
X166999814Y-31120186D01*
X166916552Y-31018729D01*
X166887222Y-30982991D01*
X166803557Y-30826466D01*
X166752037Y-30656627D01*
X166734641Y-30480000D01*
X166752037Y-30303373D01*
X166803557Y-30133534D01*
X166887222Y-29977009D01*
X166916552Y-29941271D01*
X166999814Y-29839814D01*
X167114785Y-29745461D01*
X167137009Y-29727222D01*
X167293534Y-29643557D01*
X167463373Y-29592037D01*
X167529557Y-29585519D01*
X167595740Y-29579000D01*
X167684260Y-29579000D01*
X167750443Y-29585519D01*
X167750443Y-29585519D01*
G37*
G36*
X185530443Y-27045519D02*
G01*
X185596627Y-27052037D01*
X185766466Y-27103557D01*
X185922991Y-27187222D01*
X185958729Y-27216552D01*
X186060186Y-27299814D01*
X186143448Y-27401271D01*
X186172778Y-27437009D01*
X186256443Y-27593534D01*
X186307963Y-27763373D01*
X186325359Y-27940000D01*
X186307963Y-28116627D01*
X186256443Y-28286466D01*
X186172778Y-28442991D01*
X186143448Y-28478729D01*
X186060186Y-28580186D01*
X185958729Y-28663448D01*
X185922991Y-28692778D01*
X185766466Y-28776443D01*
X185596627Y-28827963D01*
X185530442Y-28834482D01*
X185464260Y-28841000D01*
X185375740Y-28841000D01*
X185309558Y-28834482D01*
X185243373Y-28827963D01*
X185073534Y-28776443D01*
X184917009Y-28692778D01*
X184881271Y-28663448D01*
X184779814Y-28580186D01*
X184696552Y-28478729D01*
X184667222Y-28442991D01*
X184583557Y-28286466D01*
X184532037Y-28116627D01*
X184514641Y-27940000D01*
X184532037Y-27763373D01*
X184583557Y-27593534D01*
X184667222Y-27437009D01*
X184696552Y-27401271D01*
X184779814Y-27299814D01*
X184881271Y-27216552D01*
X184917009Y-27187222D01*
X185073534Y-27103557D01*
X185243373Y-27052037D01*
X185309557Y-27045519D01*
X185375740Y-27039000D01*
X185464260Y-27039000D01*
X185530443Y-27045519D01*
X185530443Y-27045519D01*
G37*
G36*
X167750443Y-27045519D02*
G01*
X167816627Y-27052037D01*
X167986466Y-27103557D01*
X168142991Y-27187222D01*
X168178729Y-27216552D01*
X168280186Y-27299814D01*
X168363448Y-27401271D01*
X168392778Y-27437009D01*
X168476443Y-27593534D01*
X168527963Y-27763373D01*
X168545359Y-27940000D01*
X168527963Y-28116627D01*
X168476443Y-28286466D01*
X168392778Y-28442991D01*
X168363448Y-28478729D01*
X168280186Y-28580186D01*
X168178729Y-28663448D01*
X168142991Y-28692778D01*
X167986466Y-28776443D01*
X167816627Y-28827963D01*
X167750442Y-28834482D01*
X167684260Y-28841000D01*
X167595740Y-28841000D01*
X167529558Y-28834482D01*
X167463373Y-28827963D01*
X167293534Y-28776443D01*
X167137009Y-28692778D01*
X167101271Y-28663448D01*
X166999814Y-28580186D01*
X166916552Y-28478729D01*
X166887222Y-28442991D01*
X166803557Y-28286466D01*
X166752037Y-28116627D01*
X166734641Y-27940000D01*
X166752037Y-27763373D01*
X166803557Y-27593534D01*
X166887222Y-27437009D01*
X166916552Y-27401271D01*
X166999814Y-27299814D01*
X167101271Y-27216552D01*
X167137009Y-27187222D01*
X167293534Y-27103557D01*
X167463373Y-27052037D01*
X167529557Y-27045519D01*
X167595740Y-27039000D01*
X167684260Y-27039000D01*
X167750443Y-27045519D01*
X167750443Y-27045519D01*
G37*
G36*
X181961000Y-26863000D02*
G01*
X181259000Y-26863000D01*
X181259000Y-26361000D01*
X181961000Y-26361000D01*
X181961000Y-26863000D01*
X181961000Y-26863000D01*
G37*
G36*
X167750442Y-24505518D02*
G01*
X167816627Y-24512037D01*
X167986466Y-24563557D01*
X168142991Y-24647222D01*
X168178729Y-24676552D01*
X168280186Y-24759814D01*
X168363448Y-24861271D01*
X168392778Y-24897009D01*
X168476443Y-25053534D01*
X168527963Y-25223373D01*
X168545359Y-25400000D01*
X168527963Y-25576627D01*
X168476443Y-25746466D01*
X168392778Y-25902991D01*
X168363448Y-25938729D01*
X168280186Y-26040186D01*
X168178729Y-26123448D01*
X168142991Y-26152778D01*
X167986466Y-26236443D01*
X167816627Y-26287963D01*
X167750443Y-26294481D01*
X167684260Y-26301000D01*
X167595740Y-26301000D01*
X167529557Y-26294481D01*
X167463373Y-26287963D01*
X167293534Y-26236443D01*
X167137009Y-26152778D01*
X167101271Y-26123448D01*
X166999814Y-26040186D01*
X166916552Y-25938729D01*
X166887222Y-25902991D01*
X166803557Y-25746466D01*
X166752037Y-25576627D01*
X166734641Y-25400000D01*
X166752037Y-25223373D01*
X166803557Y-25053534D01*
X166887222Y-24897009D01*
X166916552Y-24861271D01*
X166999814Y-24759814D01*
X167101271Y-24676552D01*
X167137009Y-24647222D01*
X167293534Y-24563557D01*
X167463373Y-24512037D01*
X167529557Y-24505519D01*
X167595740Y-24499000D01*
X167684260Y-24499000D01*
X167750442Y-24505518D01*
X167750442Y-24505518D01*
G37*
G36*
X185530442Y-24505518D02*
G01*
X185596627Y-24512037D01*
X185766466Y-24563557D01*
X185922991Y-24647222D01*
X185958729Y-24676552D01*
X186060186Y-24759814D01*
X186143448Y-24861271D01*
X186172778Y-24897009D01*
X186256443Y-25053534D01*
X186307963Y-25223373D01*
X186325359Y-25400000D01*
X186307963Y-25576627D01*
X186256443Y-25746466D01*
X186172778Y-25902991D01*
X186143448Y-25938729D01*
X186060186Y-26040186D01*
X185958729Y-26123448D01*
X185922991Y-26152778D01*
X185766466Y-26236443D01*
X185596627Y-26287963D01*
X185530443Y-26294481D01*
X185464260Y-26301000D01*
X185375740Y-26301000D01*
X185309557Y-26294481D01*
X185243373Y-26287963D01*
X185073534Y-26236443D01*
X184917009Y-26152778D01*
X184881271Y-26123448D01*
X184779814Y-26040186D01*
X184696552Y-25938729D01*
X184667222Y-25902991D01*
X184583557Y-25746466D01*
X184532037Y-25576627D01*
X184514641Y-25400000D01*
X184532037Y-25223373D01*
X184583557Y-25053534D01*
X184667222Y-24897009D01*
X184696552Y-24861271D01*
X184779814Y-24759814D01*
X184881271Y-24676552D01*
X184917009Y-24647222D01*
X185073534Y-24563557D01*
X185243373Y-24512037D01*
X185309557Y-24505519D01*
X185375740Y-24499000D01*
X185464260Y-24499000D01*
X185530442Y-24505518D01*
X185530442Y-24505518D01*
G37*
G36*
X181961000Y-25963000D02*
G01*
X181259000Y-25963000D01*
X181259000Y-25461000D01*
X181961000Y-25461000D01*
X181961000Y-25963000D01*
X181961000Y-25963000D01*
G37*
G36*
X182011000Y-25031000D02*
G01*
X181209000Y-25031000D01*
X181209000Y-24329000D01*
X182011000Y-24329000D01*
X182011000Y-25031000D01*
X182011000Y-25031000D01*
G37*
G36*
X180741000Y-25031000D02*
G01*
X179939000Y-25031000D01*
X179939000Y-24329000D01*
X180741000Y-24329000D01*
X180741000Y-25031000D01*
X180741000Y-25031000D01*
G37*
G36*
X175950000Y-24685000D02*
G01*
X175248000Y-24685000D01*
X175248000Y-24083000D01*
X175950000Y-24083000D01*
X175950000Y-24685000D01*
X175950000Y-24685000D01*
G37*
G36*
X177050000Y-24685000D02*
G01*
X176348000Y-24685000D01*
X176348000Y-24083000D01*
X177050000Y-24083000D01*
X177050000Y-24685000D01*
X177050000Y-24685000D01*
G37*
G36*
X182011000Y-23931000D02*
G01*
X181209000Y-23931000D01*
X181209000Y-23229000D01*
X182011000Y-23229000D01*
X182011000Y-23931000D01*
X182011000Y-23931000D01*
G37*
G36*
X180741000Y-23931000D02*
G01*
X179939000Y-23931000D01*
X179939000Y-23229000D01*
X180741000Y-23229000D01*
X180741000Y-23931000D01*
X180741000Y-23931000D01*
G37*
G36*
X185530443Y-21965519D02*
G01*
X185596627Y-21972037D01*
X185766466Y-22023557D01*
X185922991Y-22107222D01*
X185958729Y-22136552D01*
X186060186Y-22219814D01*
X186143448Y-22321271D01*
X186172778Y-22357009D01*
X186256443Y-22513534D01*
X186307963Y-22683373D01*
X186325359Y-22860000D01*
X186307963Y-23036627D01*
X186256443Y-23206466D01*
X186172778Y-23362991D01*
X186143448Y-23398729D01*
X186060186Y-23500186D01*
X185958729Y-23583448D01*
X185922991Y-23612778D01*
X185766466Y-23696443D01*
X185596627Y-23747963D01*
X185530442Y-23754482D01*
X185464260Y-23761000D01*
X185375740Y-23761000D01*
X185309558Y-23754482D01*
X185243373Y-23747963D01*
X185073534Y-23696443D01*
X184917009Y-23612778D01*
X184881271Y-23583448D01*
X184779814Y-23500186D01*
X184696552Y-23398729D01*
X184667222Y-23362991D01*
X184583557Y-23206466D01*
X184532037Y-23036627D01*
X184514641Y-22860000D01*
X184532037Y-22683373D01*
X184583557Y-22513534D01*
X184667222Y-22357009D01*
X184696552Y-22321271D01*
X184779814Y-22219814D01*
X184881271Y-22136552D01*
X184917009Y-22107222D01*
X185073534Y-22023557D01*
X185243373Y-21972037D01*
X185309557Y-21965519D01*
X185375740Y-21959000D01*
X185464260Y-21959000D01*
X185530443Y-21965519D01*
X185530443Y-21965519D01*
G37*
G36*
X167750443Y-21965519D02*
G01*
X167816627Y-21972037D01*
X167986466Y-22023557D01*
X168142991Y-22107222D01*
X168178729Y-22136552D01*
X168280186Y-22219814D01*
X168363448Y-22321271D01*
X168392778Y-22357009D01*
X168476443Y-22513534D01*
X168527963Y-22683373D01*
X168545359Y-22860000D01*
X168527963Y-23036627D01*
X168476443Y-23206466D01*
X168392778Y-23362991D01*
X168363448Y-23398729D01*
X168280186Y-23500186D01*
X168178729Y-23583448D01*
X168142991Y-23612778D01*
X167986466Y-23696443D01*
X167816627Y-23747963D01*
X167750442Y-23754482D01*
X167684260Y-23761000D01*
X167595740Y-23761000D01*
X167529558Y-23754482D01*
X167463373Y-23747963D01*
X167293534Y-23696443D01*
X167137009Y-23612778D01*
X167101271Y-23583448D01*
X166999814Y-23500186D01*
X166916552Y-23398729D01*
X166887222Y-23362991D01*
X166803557Y-23206466D01*
X166752037Y-23036627D01*
X166734641Y-22860000D01*
X166752037Y-22683373D01*
X166803557Y-22513534D01*
X166887222Y-22357009D01*
X166916552Y-22321271D01*
X166999814Y-22219814D01*
X167101271Y-22136552D01*
X167137009Y-22107222D01*
X167293534Y-22023557D01*
X167463373Y-21972037D01*
X167529557Y-21965519D01*
X167595740Y-21959000D01*
X167684260Y-21959000D01*
X167750443Y-21965519D01*
X167750443Y-21965519D01*
G37*
G36*
X177550000Y-23345000D02*
G01*
X176648000Y-23345000D01*
X176648000Y-22343000D01*
X177550000Y-22343000D01*
X177550000Y-23345000D01*
X177550000Y-23345000D01*
G37*
G36*
X175650000Y-23345000D02*
G01*
X174748000Y-23345000D01*
X174748000Y-22343000D01*
X175650000Y-22343000D01*
X175650000Y-23345000D01*
X175650000Y-23345000D01*
G37*
G36*
X180141000Y-22957000D02*
G01*
X179639000Y-22957000D01*
X179639000Y-22255000D01*
X180141000Y-22255000D01*
X180141000Y-22957000D01*
X180141000Y-22957000D01*
G37*
G36*
X181041000Y-22957000D02*
G01*
X180539000Y-22957000D01*
X180539000Y-22255000D01*
X181041000Y-22255000D01*
X181041000Y-22957000D01*
X181041000Y-22957000D01*
G37*
G36*
X180602199Y-19119954D02*
G01*
X180614450Y-19120556D01*
X180632869Y-19120556D01*
X180655149Y-19122750D01*
X180739233Y-19139476D01*
X180760660Y-19145976D01*
X180839858Y-19178780D01*
X180845303Y-19181691D01*
X180845309Y-19181693D01*
X180854169Y-19186429D01*
X180854173Y-19186432D01*
X180859614Y-19189340D01*
X180930899Y-19236971D01*
X180948204Y-19251172D01*
X181008828Y-19311796D01*
X181023029Y-19329101D01*
X181070660Y-19400386D01*
X181073568Y-19405827D01*
X181073571Y-19405831D01*
X181078307Y-19414691D01*
X181078309Y-19414697D01*
X181081220Y-19420142D01*
X181114024Y-19499340D01*
X181120524Y-19520767D01*
X181137250Y-19604851D01*
X181139444Y-19627131D01*
X181139444Y-19645550D01*
X181140046Y-19657801D01*
X181141852Y-19676139D01*
X181141852Y-20163860D01*
X181140263Y-20179999D01*
X181137348Y-20189608D01*
X181132610Y-20198472D01*
X181126237Y-20206237D01*
X181113794Y-20216448D01*
X181103425Y-20223378D01*
X181086098Y-20240705D01*
X181072485Y-20261080D01*
X181063109Y-20283720D01*
X181058329Y-20307753D01*
X181058330Y-20332257D01*
X181063112Y-20356290D01*
X181072490Y-20378929D01*
X181086105Y-20399302D01*
X181103432Y-20416629D01*
X181113802Y-20423558D01*
X181126237Y-20433763D01*
X181132610Y-20441528D01*
X181137348Y-20450392D01*
X181140263Y-20460001D01*
X181141852Y-20476140D01*
X181141852Y-20963862D01*
X181140046Y-20982199D01*
X181139444Y-20994450D01*
X181139444Y-21012869D01*
X181137250Y-21035149D01*
X181120524Y-21119233D01*
X181114024Y-21140660D01*
X181081220Y-21219858D01*
X181078309Y-21225303D01*
X181078307Y-21225309D01*
X181073571Y-21234169D01*
X181073568Y-21234173D01*
X181070660Y-21239614D01*
X181023029Y-21310899D01*
X181008828Y-21328204D01*
X180948204Y-21388828D01*
X180930899Y-21403029D01*
X180859614Y-21450660D01*
X180854173Y-21453568D01*
X180854169Y-21453571D01*
X180845309Y-21458307D01*
X180845303Y-21458309D01*
X180839858Y-21461220D01*
X180760660Y-21494024D01*
X180739233Y-21500524D01*
X180655149Y-21517250D01*
X180632869Y-21519444D01*
X180614450Y-21519444D01*
X180602199Y-21520046D01*
X180583862Y-21521852D01*
X180096138Y-21521852D01*
X180077801Y-21520046D01*
X180065550Y-21519444D01*
X180047131Y-21519444D01*
X180024851Y-21517250D01*
X179940767Y-21500524D01*
X179919340Y-21494024D01*
X179840142Y-21461220D01*
X179834697Y-21458309D01*
X179834691Y-21458307D01*
X179825831Y-21453571D01*
X179825827Y-21453568D01*
X179820386Y-21450660D01*
X179749101Y-21403029D01*
X179731796Y-21388828D01*
X179671172Y-21328204D01*
X179656971Y-21310899D01*
X179609340Y-21239614D01*
X179606432Y-21234173D01*
X179606429Y-21234169D01*
X179601693Y-21225309D01*
X179601691Y-21225303D01*
X179598780Y-21219858D01*
X179565976Y-21140660D01*
X179559476Y-21119233D01*
X179542750Y-21035149D01*
X179540556Y-21012869D01*
X179540556Y-20994450D01*
X179539954Y-20982199D01*
X179538148Y-20963862D01*
X179538148Y-20476140D01*
X179539737Y-20460001D01*
X179542652Y-20450392D01*
X179547390Y-20441528D01*
X179553763Y-20433763D01*
X179566206Y-20423552D01*
X179576575Y-20416622D01*
X179593902Y-20399295D01*
X179607515Y-20378920D01*
X179616891Y-20356280D01*
X179621671Y-20332247D01*
X179621670Y-20307743D01*
X179616888Y-20283710D01*
X179607510Y-20261071D01*
X179593895Y-20240698D01*
X179576568Y-20223371D01*
X179566198Y-20216442D01*
X179553763Y-20206237D01*
X179547390Y-20198472D01*
X179542652Y-20189608D01*
X179539737Y-20179999D01*
X179538148Y-20163860D01*
X179538148Y-19676139D01*
X179539954Y-19657801D01*
X179540556Y-19645550D01*
X179540556Y-19627131D01*
X179542750Y-19604851D01*
X179559476Y-19520767D01*
X179565976Y-19499340D01*
X179598780Y-19420142D01*
X179601691Y-19414697D01*
X179601693Y-19414691D01*
X179606429Y-19405831D01*
X179606432Y-19405827D01*
X179609340Y-19400386D01*
X179656971Y-19329101D01*
X179671172Y-19311796D01*
X179731796Y-19251172D01*
X179749101Y-19236971D01*
X179820386Y-19189340D01*
X179825827Y-19186432D01*
X179825831Y-19186429D01*
X179834691Y-19181693D01*
X179834697Y-19181691D01*
X179840142Y-19178780D01*
X179919340Y-19145976D01*
X179940767Y-19139476D01*
X180024851Y-19122750D01*
X180047131Y-19120556D01*
X180065550Y-19120556D01*
X180077801Y-19119954D01*
X180096139Y-19118148D01*
X180583861Y-19118148D01*
X180602199Y-19119954D01*
X180602199Y-19119954D01*
G37*
G36*
X176600000Y-21345000D02*
G01*
X175698000Y-21345000D01*
X175698000Y-20343000D01*
X176600000Y-20343000D01*
X176600000Y-21345000D01*
X176600000Y-21345000D01*
G37*
G36*
X185530443Y-19425519D02*
G01*
X185596627Y-19432037D01*
X185766466Y-19483557D01*
X185922991Y-19567222D01*
X185958729Y-19596552D01*
X186060186Y-19679814D01*
X186143448Y-19781271D01*
X186172778Y-19817009D01*
X186256443Y-19973534D01*
X186307963Y-20143373D01*
X186325359Y-20320000D01*
X186307963Y-20496627D01*
X186256443Y-20666466D01*
X186172778Y-20822991D01*
X186143448Y-20858729D01*
X186060186Y-20960186D01*
X185976326Y-21029007D01*
X185922991Y-21072778D01*
X185766466Y-21156443D01*
X185596627Y-21207963D01*
X185530442Y-21214482D01*
X185464260Y-21221000D01*
X185375740Y-21221000D01*
X185309558Y-21214482D01*
X185243373Y-21207963D01*
X185073534Y-21156443D01*
X184917009Y-21072778D01*
X184863674Y-21029007D01*
X184779814Y-20960186D01*
X184696552Y-20858729D01*
X184667222Y-20822991D01*
X184583557Y-20666466D01*
X184532037Y-20496627D01*
X184514641Y-20320000D01*
X184532037Y-20143373D01*
X184583557Y-19973534D01*
X184667222Y-19817009D01*
X184696552Y-19781271D01*
X184779814Y-19679814D01*
X184881271Y-19596552D01*
X184917009Y-19567222D01*
X185073534Y-19483557D01*
X185243373Y-19432037D01*
X185309558Y-19425518D01*
X185375740Y-19419000D01*
X185464260Y-19419000D01*
X185530443Y-19425519D01*
X185530443Y-19425519D01*
G37*
G36*
X167750443Y-19425519D02*
G01*
X167816627Y-19432037D01*
X167986466Y-19483557D01*
X168142991Y-19567222D01*
X168178729Y-19596552D01*
X168280186Y-19679814D01*
X168363448Y-19781271D01*
X168392778Y-19817009D01*
X168476443Y-19973534D01*
X168527963Y-20143373D01*
X168545359Y-20320000D01*
X168527963Y-20496627D01*
X168476443Y-20666466D01*
X168392778Y-20822991D01*
X168363448Y-20858729D01*
X168280186Y-20960186D01*
X168196326Y-21029007D01*
X168142991Y-21072778D01*
X167986466Y-21156443D01*
X167816627Y-21207963D01*
X167750442Y-21214482D01*
X167684260Y-21221000D01*
X167595740Y-21221000D01*
X167529558Y-21214482D01*
X167463373Y-21207963D01*
X167293534Y-21156443D01*
X167137009Y-21072778D01*
X167083674Y-21029007D01*
X166999814Y-20960186D01*
X166916552Y-20858729D01*
X166887222Y-20822991D01*
X166803557Y-20666466D01*
X166752037Y-20496627D01*
X166734641Y-20320000D01*
X166752037Y-20143373D01*
X166803557Y-19973534D01*
X166887222Y-19817009D01*
X166916552Y-19781271D01*
X166999814Y-19679814D01*
X167101271Y-19596552D01*
X167137009Y-19567222D01*
X167293534Y-19483557D01*
X167463373Y-19432037D01*
X167529558Y-19425518D01*
X167595740Y-19419000D01*
X167684260Y-19419000D01*
X167750443Y-19425519D01*
X167750443Y-19425519D01*
G37*
G36*
X172817000Y-20005000D02*
G01*
X172115000Y-20005000D01*
X172115000Y-19503000D01*
X172817000Y-19503000D01*
X172817000Y-20005000D01*
X172817000Y-20005000D01*
G37*
G36*
X173833000Y-20005000D02*
G01*
X173131000Y-20005000D01*
X173131000Y-19503000D01*
X173833000Y-19503000D01*
X173833000Y-20005000D01*
X173833000Y-20005000D01*
G37*
G36*
X171801000Y-20005000D02*
G01*
X171099000Y-20005000D01*
X171099000Y-19503000D01*
X171801000Y-19503000D01*
X171801000Y-20005000D01*
X171801000Y-20005000D01*
G37*
G36*
X177558000Y-19859000D02*
G01*
X176856000Y-19859000D01*
X176856000Y-19257000D01*
X177558000Y-19257000D01*
X177558000Y-19859000D01*
X177558000Y-19859000D01*
G37*
G36*
X176458000Y-19859000D02*
G01*
X175756000Y-19859000D01*
X175756000Y-19257000D01*
X176458000Y-19257000D01*
X176458000Y-19859000D01*
X176458000Y-19859000D01*
G37*
G36*
X173833000Y-19105000D02*
G01*
X173131000Y-19105000D01*
X173131000Y-18603000D01*
X173833000Y-18603000D01*
X173833000Y-19105000D01*
X173833000Y-19105000D01*
G37*
G36*
X171801000Y-19105000D02*
G01*
X171099000Y-19105000D01*
X171099000Y-18603000D01*
X171801000Y-18603000D01*
X171801000Y-19105000D01*
X171801000Y-19105000D01*
G37*
G36*
X172817000Y-19105000D02*
G01*
X172115000Y-19105000D01*
X172115000Y-18603000D01*
X172817000Y-18603000D01*
X172817000Y-19105000D01*
X172817000Y-19105000D01*
G37*
G36*
X185530443Y-16885519D02*
G01*
X185596627Y-16892037D01*
X185766466Y-16943557D01*
X185766468Y-16943558D01*
X185823276Y-16973923D01*
X185922991Y-17027222D01*
X185957887Y-17055861D01*
X186060186Y-17139814D01*
X186143448Y-17241271D01*
X186172778Y-17277009D01*
X186256443Y-17433534D01*
X186307963Y-17603373D01*
X186325359Y-17780000D01*
X186307963Y-17956627D01*
X186256443Y-18126466D01*
X186172778Y-18282991D01*
X186143448Y-18318729D01*
X186060186Y-18420186D01*
X185958729Y-18503448D01*
X185922991Y-18532778D01*
X185766466Y-18616443D01*
X185596627Y-18667963D01*
X185530443Y-18674481D01*
X185464260Y-18681000D01*
X185375740Y-18681000D01*
X185309557Y-18674481D01*
X185243373Y-18667963D01*
X185073534Y-18616443D01*
X184917009Y-18532778D01*
X184881271Y-18503448D01*
X184779814Y-18420186D01*
X184696552Y-18318729D01*
X184667222Y-18282991D01*
X184583557Y-18126466D01*
X184532037Y-17956627D01*
X184514641Y-17780000D01*
X184532037Y-17603373D01*
X184583557Y-17433534D01*
X184667222Y-17277009D01*
X184696552Y-17241271D01*
X184779814Y-17139814D01*
X184882113Y-17055861D01*
X184917009Y-17027222D01*
X185016724Y-16973923D01*
X185073532Y-16943558D01*
X185073534Y-16943557D01*
X185243373Y-16892037D01*
X185309557Y-16885519D01*
X185375740Y-16879000D01*
X185464260Y-16879000D01*
X185530443Y-16885519D01*
X185530443Y-16885519D01*
G37*
G36*
X167750443Y-16885519D02*
G01*
X167816627Y-16892037D01*
X167986466Y-16943557D01*
X167986468Y-16943558D01*
X168043276Y-16973923D01*
X168142991Y-17027222D01*
X168177887Y-17055861D01*
X168280186Y-17139814D01*
X168363448Y-17241271D01*
X168392778Y-17277009D01*
X168476443Y-17433534D01*
X168527963Y-17603373D01*
X168545359Y-17780000D01*
X168527963Y-17956627D01*
X168476443Y-18126466D01*
X168392778Y-18282991D01*
X168363448Y-18318729D01*
X168280186Y-18420186D01*
X168178729Y-18503448D01*
X168142991Y-18532778D01*
X167986466Y-18616443D01*
X167816627Y-18667963D01*
X167750443Y-18674481D01*
X167684260Y-18681000D01*
X167595740Y-18681000D01*
X167529557Y-18674481D01*
X167463373Y-18667963D01*
X167293534Y-18616443D01*
X167137009Y-18532778D01*
X167101271Y-18503448D01*
X166999814Y-18420186D01*
X166916552Y-18318729D01*
X166887222Y-18282991D01*
X166803557Y-18126466D01*
X166752037Y-17956627D01*
X166734641Y-17780000D01*
X166752037Y-17603373D01*
X166803557Y-17433534D01*
X166887222Y-17277009D01*
X166916552Y-17241271D01*
X166999814Y-17139814D01*
X167102113Y-17055861D01*
X167137009Y-17027222D01*
X167236724Y-16973923D01*
X167293532Y-16943558D01*
X167293534Y-16943557D01*
X167463373Y-16892037D01*
X167529557Y-16885519D01*
X167595740Y-16879000D01*
X167684260Y-16879000D01*
X167750443Y-16885519D01*
X167750443Y-16885519D01*
G37*
G36*
X178501000Y-18639000D02*
G01*
X177999000Y-18639000D01*
X177999000Y-17937000D01*
X178501000Y-17937000D01*
X178501000Y-18639000D01*
X178501000Y-18639000D01*
G37*
G36*
X177601000Y-18639000D02*
G01*
X177099000Y-18639000D01*
X177099000Y-17937000D01*
X177601000Y-17937000D01*
X177601000Y-18639000D01*
X177601000Y-18639000D01*
G37*
G36*
X173642731Y-16307205D02*
G01*
X173681467Y-16314910D01*
X173711695Y-16327431D01*
X173754444Y-16345138D01*
X173820122Y-16389023D01*
X173875978Y-16444879D01*
X173885567Y-16459230D01*
X173901113Y-16478172D01*
X173920055Y-16493717D01*
X173941665Y-16505268D01*
X173965114Y-16512381D01*
X173989501Y-16514783D01*
X174013887Y-16512381D01*
X174037336Y-16505268D01*
X174058946Y-16493717D01*
X174077888Y-16478171D01*
X174093433Y-16459230D01*
X174103022Y-16444879D01*
X174158878Y-16389023D01*
X174224556Y-16345138D01*
X174267305Y-16327431D01*
X174297533Y-16314910D01*
X174336269Y-16307205D01*
X174375004Y-16299500D01*
X174453996Y-16299500D01*
X174492731Y-16307205D01*
X174531467Y-16314910D01*
X174561695Y-16327431D01*
X174604444Y-16345138D01*
X174670122Y-16389023D01*
X174725978Y-16444879D01*
X174735567Y-16459230D01*
X174751113Y-16478172D01*
X174770055Y-16493717D01*
X174791665Y-16505268D01*
X174815114Y-16512381D01*
X174839501Y-16514783D01*
X174863887Y-16512381D01*
X174887336Y-16505268D01*
X174908946Y-16493717D01*
X174927888Y-16478171D01*
X174943433Y-16459230D01*
X174953022Y-16444879D01*
X175008878Y-16389023D01*
X175074556Y-16345138D01*
X175117305Y-16327431D01*
X175147533Y-16314910D01*
X175186269Y-16307205D01*
X175225004Y-16299500D01*
X175303996Y-16299500D01*
X175342731Y-16307205D01*
X175381467Y-16314910D01*
X175411695Y-16327431D01*
X175454444Y-16345138D01*
X175520122Y-16389023D01*
X175575978Y-16444879D01*
X175585567Y-16459230D01*
X175601113Y-16478172D01*
X175620055Y-16493717D01*
X175641665Y-16505268D01*
X175665114Y-16512381D01*
X175689501Y-16514783D01*
X175713887Y-16512381D01*
X175737336Y-16505268D01*
X175758946Y-16493717D01*
X175777888Y-16478171D01*
X175793433Y-16459230D01*
X175803022Y-16444879D01*
X175858878Y-16389023D01*
X175924556Y-16345138D01*
X175967305Y-16327431D01*
X175997533Y-16314910D01*
X176036269Y-16307205D01*
X176075004Y-16299500D01*
X176153996Y-16299500D01*
X176192731Y-16307205D01*
X176231467Y-16314910D01*
X176261695Y-16327431D01*
X176304444Y-16345138D01*
X176370122Y-16389023D01*
X176425978Y-16444879D01*
X176435567Y-16459230D01*
X176451113Y-16478172D01*
X176470055Y-16493717D01*
X176491665Y-16505268D01*
X176515114Y-16512381D01*
X176539501Y-16514783D01*
X176563887Y-16512381D01*
X176587336Y-16505268D01*
X176608946Y-16493717D01*
X176627888Y-16478171D01*
X176643433Y-16459230D01*
X176653022Y-16444879D01*
X176708878Y-16389023D01*
X176774556Y-16345138D01*
X176817305Y-16327431D01*
X176847533Y-16314910D01*
X176886269Y-16307205D01*
X176925004Y-16299500D01*
X177003996Y-16299500D01*
X177042731Y-16307205D01*
X177081467Y-16314910D01*
X177111695Y-16327431D01*
X177154444Y-16345138D01*
X177220122Y-16389023D01*
X177275978Y-16444879D01*
X177285567Y-16459230D01*
X177301113Y-16478172D01*
X177320055Y-16493717D01*
X177341665Y-16505268D01*
X177365114Y-16512381D01*
X177389501Y-16514783D01*
X177413887Y-16512381D01*
X177437336Y-16505268D01*
X177458946Y-16493717D01*
X177477888Y-16478171D01*
X177493433Y-16459230D01*
X177503022Y-16444879D01*
X177558878Y-16389023D01*
X177624556Y-16345138D01*
X177667305Y-16327431D01*
X177697533Y-16314910D01*
X177736269Y-16307205D01*
X177775004Y-16299500D01*
X177853996Y-16299500D01*
X177892731Y-16307205D01*
X177931467Y-16314910D01*
X177961695Y-16327431D01*
X178004444Y-16345138D01*
X178070122Y-16389023D01*
X178125978Y-16444879D01*
X178135567Y-16459230D01*
X178151113Y-16478172D01*
X178170055Y-16493717D01*
X178191665Y-16505268D01*
X178215114Y-16512381D01*
X178239501Y-16514783D01*
X178263887Y-16512381D01*
X178287336Y-16505268D01*
X178308946Y-16493717D01*
X178327888Y-16478171D01*
X178343433Y-16459230D01*
X178353022Y-16444879D01*
X178408878Y-16389023D01*
X178474556Y-16345138D01*
X178517305Y-16327431D01*
X178547533Y-16314910D01*
X178586269Y-16307205D01*
X178625004Y-16299500D01*
X178703996Y-16299500D01*
X178742731Y-16307205D01*
X178781467Y-16314910D01*
X178811695Y-16327431D01*
X178854444Y-16345138D01*
X178920122Y-16389023D01*
X178975978Y-16444879D01*
X178985567Y-16459230D01*
X179001113Y-16478172D01*
X179020055Y-16493717D01*
X179041665Y-16505268D01*
X179065114Y-16512381D01*
X179089501Y-16514783D01*
X179113887Y-16512381D01*
X179137336Y-16505268D01*
X179158946Y-16493717D01*
X179177888Y-16478171D01*
X179193433Y-16459230D01*
X179203022Y-16444879D01*
X179258878Y-16389023D01*
X179324556Y-16345138D01*
X179367305Y-16327431D01*
X179397533Y-16314910D01*
X179436269Y-16307205D01*
X179475004Y-16299500D01*
X179553996Y-16299500D01*
X179592731Y-16307205D01*
X179631467Y-16314910D01*
X179661695Y-16327431D01*
X179704444Y-16345138D01*
X179770122Y-16389023D01*
X179825977Y-16444878D01*
X179869862Y-16510556D01*
X179887569Y-16553305D01*
X179900090Y-16583533D01*
X179915500Y-16661005D01*
X179915500Y-16739995D01*
X179900090Y-16817467D01*
X179887569Y-16847695D01*
X179869862Y-16890444D01*
X179825977Y-16956122D01*
X179770122Y-17011977D01*
X179704444Y-17055862D01*
X179661695Y-17073569D01*
X179631467Y-17086090D01*
X179592731Y-17093795D01*
X179553996Y-17101500D01*
X179475004Y-17101500D01*
X179436269Y-17093795D01*
X179397533Y-17086090D01*
X179367305Y-17073569D01*
X179324556Y-17055862D01*
X179258878Y-17011977D01*
X179203022Y-16956121D01*
X179193433Y-16941770D01*
X179177887Y-16922828D01*
X179158945Y-16907283D01*
X179137335Y-16895732D01*
X179113886Y-16888619D01*
X179089499Y-16886217D01*
X179065113Y-16888619D01*
X179041664Y-16895732D01*
X179020054Y-16907283D01*
X179001112Y-16922829D01*
X178985567Y-16941770D01*
X178975978Y-16956121D01*
X178920122Y-17011977D01*
X178854444Y-17055862D01*
X178811695Y-17073569D01*
X178781467Y-17086090D01*
X178742731Y-17093795D01*
X178703996Y-17101500D01*
X178625004Y-17101500D01*
X178586269Y-17093795D01*
X178547533Y-17086090D01*
X178517305Y-17073569D01*
X178474556Y-17055862D01*
X178408878Y-17011977D01*
X178353022Y-16956121D01*
X178343433Y-16941770D01*
X178327887Y-16922828D01*
X178308945Y-16907283D01*
X178287335Y-16895732D01*
X178263886Y-16888619D01*
X178239499Y-16886217D01*
X178215113Y-16888619D01*
X178191664Y-16895732D01*
X178170054Y-16907283D01*
X178151112Y-16922829D01*
X178135567Y-16941770D01*
X178125978Y-16956121D01*
X178070122Y-17011977D01*
X178004444Y-17055862D01*
X177961695Y-17073569D01*
X177931467Y-17086090D01*
X177892731Y-17093795D01*
X177853996Y-17101500D01*
X177775004Y-17101500D01*
X177736269Y-17093795D01*
X177697533Y-17086090D01*
X177667305Y-17073569D01*
X177624556Y-17055862D01*
X177558878Y-17011977D01*
X177503022Y-16956121D01*
X177493433Y-16941770D01*
X177477887Y-16922828D01*
X177458945Y-16907283D01*
X177437335Y-16895732D01*
X177413886Y-16888619D01*
X177389499Y-16886217D01*
X177365113Y-16888619D01*
X177341664Y-16895732D01*
X177320054Y-16907283D01*
X177301112Y-16922829D01*
X177285567Y-16941770D01*
X177275978Y-16956121D01*
X177220122Y-17011977D01*
X177154444Y-17055862D01*
X177111695Y-17073569D01*
X177081467Y-17086090D01*
X177042731Y-17093795D01*
X177003996Y-17101500D01*
X176925004Y-17101500D01*
X176886269Y-17093795D01*
X176847533Y-17086090D01*
X176817305Y-17073569D01*
X176774556Y-17055862D01*
X176708878Y-17011977D01*
X176653022Y-16956121D01*
X176643433Y-16941770D01*
X176627887Y-16922828D01*
X176608945Y-16907283D01*
X176587335Y-16895732D01*
X176563886Y-16888619D01*
X176539499Y-16886217D01*
X176515113Y-16888619D01*
X176491664Y-16895732D01*
X176470054Y-16907283D01*
X176451112Y-16922829D01*
X176435567Y-16941770D01*
X176425978Y-16956121D01*
X176370122Y-17011977D01*
X176304444Y-17055862D01*
X176261695Y-17073569D01*
X176231467Y-17086090D01*
X176192731Y-17093795D01*
X176153996Y-17101500D01*
X176075004Y-17101500D01*
X176036269Y-17093795D01*
X175997533Y-17086090D01*
X175967305Y-17073569D01*
X175924556Y-17055862D01*
X175858878Y-17011977D01*
X175803022Y-16956121D01*
X175793433Y-16941770D01*
X175777887Y-16922828D01*
X175758945Y-16907283D01*
X175737335Y-16895732D01*
X175713886Y-16888619D01*
X175689499Y-16886217D01*
X175665113Y-16888619D01*
X175641664Y-16895732D01*
X175620054Y-16907283D01*
X175601112Y-16922829D01*
X175585567Y-16941770D01*
X175575978Y-16956121D01*
X175520122Y-17011977D01*
X175454444Y-17055862D01*
X175411695Y-17073569D01*
X175381467Y-17086090D01*
X175342731Y-17093795D01*
X175303996Y-17101500D01*
X175225004Y-17101500D01*
X175186269Y-17093795D01*
X175147533Y-17086090D01*
X175117305Y-17073569D01*
X175074556Y-17055862D01*
X175008878Y-17011977D01*
X174953022Y-16956121D01*
X174943433Y-16941770D01*
X174927887Y-16922828D01*
X174908945Y-16907283D01*
X174887335Y-16895732D01*
X174863886Y-16888619D01*
X174839499Y-16886217D01*
X174815113Y-16888619D01*
X174791664Y-16895732D01*
X174770054Y-16907283D01*
X174751112Y-16922829D01*
X174735567Y-16941770D01*
X174725978Y-16956121D01*
X174670122Y-17011977D01*
X174604444Y-17055862D01*
X174561695Y-17073569D01*
X174531467Y-17086090D01*
X174492731Y-17093795D01*
X174453996Y-17101500D01*
X174375004Y-17101500D01*
X174336269Y-17093795D01*
X174297533Y-17086090D01*
X174267305Y-17073569D01*
X174224556Y-17055862D01*
X174158878Y-17011977D01*
X174103022Y-16956121D01*
X174093433Y-16941770D01*
X174077887Y-16922828D01*
X174058945Y-16907283D01*
X174037335Y-16895732D01*
X174013886Y-16888619D01*
X173989499Y-16886217D01*
X173965113Y-16888619D01*
X173941664Y-16895732D01*
X173920054Y-16907283D01*
X173901112Y-16922829D01*
X173885567Y-16941770D01*
X173875978Y-16956121D01*
X173820122Y-17011977D01*
X173754444Y-17055862D01*
X173711695Y-17073569D01*
X173681467Y-17086090D01*
X173642731Y-17093795D01*
X173603996Y-17101500D01*
X173525004Y-17101500D01*
X173486269Y-17093795D01*
X173447533Y-17086090D01*
X173417305Y-17073569D01*
X173374556Y-17055862D01*
X173308878Y-17011977D01*
X173253023Y-16956122D01*
X173209138Y-16890444D01*
X173191431Y-16847695D01*
X173178910Y-16817467D01*
X173163500Y-16739995D01*
X173163500Y-16661005D01*
X173178910Y-16583533D01*
X173191431Y-16553305D01*
X173209138Y-16510556D01*
X173253023Y-16444878D01*
X173308878Y-16389023D01*
X173374556Y-16345138D01*
X173417305Y-16327431D01*
X173447533Y-16314910D01*
X173486269Y-16307205D01*
X173525004Y-16299500D01*
X173603996Y-16299500D01*
X173642731Y-16307205D01*
X173642731Y-16307205D01*
G37*
G36*
X180962713Y-14476749D02*
G01*
X181057152Y-14505397D01*
X181144187Y-14551918D01*
X181220475Y-14614525D01*
X181283082Y-14690813D01*
X181329603Y-14777848D01*
X181358251Y-14872287D01*
X181365500Y-14945888D01*
X181365500Y-16495112D01*
X181358251Y-16568713D01*
X181329603Y-16663152D01*
X181283082Y-16750187D01*
X181220475Y-16826475D01*
X181144187Y-16889082D01*
X181057151Y-16935603D01*
X180962712Y-16964251D01*
X180864500Y-16973924D01*
X180766287Y-16964251D01*
X180671848Y-16935603D01*
X180584813Y-16889082D01*
X180508525Y-16826475D01*
X180445918Y-16750187D01*
X180399397Y-16663151D01*
X180370749Y-16568712D01*
X180363500Y-16495111D01*
X180363501Y-14945888D01*
X180370750Y-14872287D01*
X180399398Y-14777848D01*
X180445919Y-14690813D01*
X180508526Y-14614525D01*
X180584814Y-14551918D01*
X180671849Y-14505397D01*
X180766288Y-14476749D01*
X180864500Y-14467076D01*
X180962713Y-14476749D01*
X180962713Y-14476749D01*
G37*
G36*
X172312713Y-14476749D02*
G01*
X172407152Y-14505397D01*
X172494187Y-14551918D01*
X172570475Y-14614525D01*
X172633082Y-14690813D01*
X172679603Y-14777848D01*
X172708251Y-14872287D01*
X172715500Y-14945888D01*
X172715500Y-16495112D01*
X172708251Y-16568713D01*
X172679603Y-16663152D01*
X172633082Y-16750187D01*
X172570475Y-16826475D01*
X172494187Y-16889082D01*
X172407151Y-16935603D01*
X172312712Y-16964251D01*
X172214500Y-16973924D01*
X172116287Y-16964251D01*
X172021848Y-16935603D01*
X171934813Y-16889082D01*
X171858525Y-16826475D01*
X171795918Y-16750187D01*
X171749397Y-16663151D01*
X171720749Y-16568712D01*
X171713500Y-16495111D01*
X171713501Y-14945888D01*
X171720750Y-14872287D01*
X171749398Y-14777848D01*
X171795919Y-14690813D01*
X171858526Y-14614525D01*
X171934814Y-14551918D01*
X172021849Y-14505397D01*
X172116288Y-14476749D01*
X172214500Y-14467076D01*
X172312713Y-14476749D01*
X172312713Y-14476749D01*
G37*
G36*
X167750443Y-14345519D02*
G01*
X167816627Y-14352037D01*
X167986466Y-14403557D01*
X168142991Y-14487222D01*
X168165137Y-14505397D01*
X168280186Y-14599814D01*
X168354863Y-14690810D01*
X168392778Y-14737009D01*
X168476443Y-14893534D01*
X168527963Y-15063373D01*
X168545359Y-15240000D01*
X168527963Y-15416627D01*
X168476443Y-15586466D01*
X168392778Y-15742991D01*
X168363448Y-15778729D01*
X168280186Y-15880186D01*
X168178729Y-15963448D01*
X168142991Y-15992778D01*
X167986466Y-16076443D01*
X167816627Y-16127963D01*
X167750442Y-16134482D01*
X167684260Y-16141000D01*
X167595740Y-16141000D01*
X167529557Y-16134481D01*
X167463373Y-16127963D01*
X167293534Y-16076443D01*
X167137009Y-15992778D01*
X167101271Y-15963448D01*
X166999814Y-15880186D01*
X166916552Y-15778729D01*
X166887222Y-15742991D01*
X166803557Y-15586466D01*
X166752037Y-15416627D01*
X166734641Y-15240000D01*
X166752037Y-15063373D01*
X166803557Y-14893534D01*
X166887222Y-14737009D01*
X166925137Y-14690810D01*
X166999814Y-14599814D01*
X167114863Y-14505397D01*
X167137009Y-14487222D01*
X167293534Y-14403557D01*
X167463373Y-14352037D01*
X167529557Y-14345519D01*
X167595740Y-14339000D01*
X167684260Y-14339000D01*
X167750443Y-14345519D01*
X167750443Y-14345519D01*
G37*
G36*
X185530443Y-14345519D02*
G01*
X185596627Y-14352037D01*
X185766466Y-14403557D01*
X185922991Y-14487222D01*
X185945137Y-14505397D01*
X186060186Y-14599814D01*
X186134863Y-14690810D01*
X186172778Y-14737009D01*
X186256443Y-14893534D01*
X186307963Y-15063373D01*
X186325359Y-15240000D01*
X186307963Y-15416627D01*
X186256443Y-15586466D01*
X186172778Y-15742991D01*
X186143448Y-15778729D01*
X186060186Y-15880186D01*
X185958729Y-15963448D01*
X185922991Y-15992778D01*
X185766466Y-16076443D01*
X185596627Y-16127963D01*
X185530442Y-16134482D01*
X185464260Y-16141000D01*
X185375740Y-16141000D01*
X185309557Y-16134481D01*
X185243373Y-16127963D01*
X185073534Y-16076443D01*
X184917009Y-15992778D01*
X184881271Y-15963448D01*
X184779814Y-15880186D01*
X184696552Y-15778729D01*
X184667222Y-15742991D01*
X184583557Y-15586466D01*
X184532037Y-15416627D01*
X184514641Y-15240000D01*
X184532037Y-15063373D01*
X184583557Y-14893534D01*
X184667222Y-14737009D01*
X184705137Y-14690810D01*
X184779814Y-14599814D01*
X184894863Y-14505397D01*
X184917009Y-14487222D01*
X185073534Y-14403557D01*
X185243373Y-14352037D01*
X185309557Y-14345519D01*
X185375740Y-14339000D01*
X185464260Y-14339000D01*
X185530443Y-14345519D01*
X185530443Y-14345519D01*
G37*
G36*
X173642731Y-14957205D02*
G01*
X173681467Y-14964910D01*
X173711695Y-14977431D01*
X173754444Y-14995138D01*
X173820122Y-15039023D01*
X173875978Y-15094879D01*
X173885567Y-15109230D01*
X173901113Y-15128172D01*
X173920055Y-15143717D01*
X173941665Y-15155268D01*
X173965114Y-15162381D01*
X173989501Y-15164783D01*
X174013887Y-15162381D01*
X174037336Y-15155268D01*
X174058946Y-15143717D01*
X174077888Y-15128171D01*
X174093433Y-15109230D01*
X174103022Y-15094879D01*
X174158878Y-15039023D01*
X174224556Y-14995138D01*
X174267305Y-14977431D01*
X174297533Y-14964910D01*
X174336269Y-14957205D01*
X174375004Y-14949500D01*
X174453996Y-14949500D01*
X174492731Y-14957205D01*
X174531467Y-14964910D01*
X174561695Y-14977431D01*
X174604444Y-14995138D01*
X174670122Y-15039023D01*
X174725978Y-15094879D01*
X174735567Y-15109230D01*
X174751113Y-15128172D01*
X174770055Y-15143717D01*
X174791665Y-15155268D01*
X174815114Y-15162381D01*
X174839501Y-15164783D01*
X174863887Y-15162381D01*
X174887336Y-15155268D01*
X174908946Y-15143717D01*
X174927888Y-15128171D01*
X174943433Y-15109230D01*
X174953022Y-15094879D01*
X175008878Y-15039023D01*
X175074556Y-14995138D01*
X175117305Y-14977431D01*
X175147533Y-14964910D01*
X175186269Y-14957205D01*
X175225004Y-14949500D01*
X175303996Y-14949500D01*
X175342731Y-14957205D01*
X175381467Y-14964910D01*
X175411695Y-14977431D01*
X175454444Y-14995138D01*
X175520122Y-15039023D01*
X175575978Y-15094879D01*
X175585567Y-15109230D01*
X175601113Y-15128172D01*
X175620055Y-15143717D01*
X175641665Y-15155268D01*
X175665114Y-15162381D01*
X175689501Y-15164783D01*
X175713887Y-15162381D01*
X175737336Y-15155268D01*
X175758946Y-15143717D01*
X175777888Y-15128171D01*
X175793433Y-15109230D01*
X175803022Y-15094879D01*
X175858878Y-15039023D01*
X175924556Y-14995138D01*
X175967305Y-14977431D01*
X175997533Y-14964910D01*
X176036269Y-14957205D01*
X176075004Y-14949500D01*
X176153996Y-14949500D01*
X176192731Y-14957205D01*
X176231467Y-14964910D01*
X176261695Y-14977431D01*
X176304444Y-14995138D01*
X176370122Y-15039023D01*
X176425978Y-15094879D01*
X176435567Y-15109230D01*
X176451113Y-15128172D01*
X176470055Y-15143717D01*
X176491665Y-15155268D01*
X176515114Y-15162381D01*
X176539501Y-15164783D01*
X176563887Y-15162381D01*
X176587336Y-15155268D01*
X176608946Y-15143717D01*
X176627888Y-15128171D01*
X176643433Y-15109230D01*
X176653022Y-15094879D01*
X176708878Y-15039023D01*
X176774556Y-14995138D01*
X176817305Y-14977431D01*
X176847533Y-14964910D01*
X176886269Y-14957205D01*
X176925004Y-14949500D01*
X177003996Y-14949500D01*
X177042731Y-14957205D01*
X177081467Y-14964910D01*
X177111695Y-14977431D01*
X177154444Y-14995138D01*
X177220122Y-15039023D01*
X177275978Y-15094879D01*
X177285567Y-15109230D01*
X177301113Y-15128172D01*
X177320055Y-15143717D01*
X177341665Y-15155268D01*
X177365114Y-15162381D01*
X177389501Y-15164783D01*
X177413887Y-15162381D01*
X177437336Y-15155268D01*
X177458946Y-15143717D01*
X177477888Y-15128171D01*
X177493433Y-15109230D01*
X177503022Y-15094879D01*
X177558878Y-15039023D01*
X177624556Y-14995138D01*
X177667305Y-14977431D01*
X177697533Y-14964910D01*
X177736269Y-14957205D01*
X177775004Y-14949500D01*
X177853996Y-14949500D01*
X177892731Y-14957205D01*
X177931467Y-14964910D01*
X177961695Y-14977431D01*
X178004444Y-14995138D01*
X178070122Y-15039023D01*
X178125978Y-15094879D01*
X178135567Y-15109230D01*
X178151113Y-15128172D01*
X178170055Y-15143717D01*
X178191665Y-15155268D01*
X178215114Y-15162381D01*
X178239501Y-15164783D01*
X178263887Y-15162381D01*
X178287336Y-15155268D01*
X178308946Y-15143717D01*
X178327888Y-15128171D01*
X178343433Y-15109230D01*
X178353022Y-15094879D01*
X178408878Y-15039023D01*
X178474556Y-14995138D01*
X178517305Y-14977431D01*
X178547533Y-14964910D01*
X178586269Y-14957205D01*
X178625004Y-14949500D01*
X178703996Y-14949500D01*
X178742731Y-14957205D01*
X178781467Y-14964910D01*
X178811695Y-14977431D01*
X178854444Y-14995138D01*
X178920122Y-15039023D01*
X178975978Y-15094879D01*
X178985567Y-15109230D01*
X179001113Y-15128172D01*
X179020055Y-15143717D01*
X179041665Y-15155268D01*
X179065114Y-15162381D01*
X179089501Y-15164783D01*
X179113887Y-15162381D01*
X179137336Y-15155268D01*
X179158946Y-15143717D01*
X179177888Y-15128171D01*
X179193433Y-15109230D01*
X179203022Y-15094879D01*
X179258878Y-15039023D01*
X179324556Y-14995138D01*
X179367305Y-14977431D01*
X179397533Y-14964910D01*
X179436269Y-14957205D01*
X179475004Y-14949500D01*
X179553996Y-14949500D01*
X179592731Y-14957205D01*
X179631467Y-14964910D01*
X179661695Y-14977431D01*
X179704444Y-14995138D01*
X179770122Y-15039023D01*
X179825977Y-15094878D01*
X179869862Y-15160556D01*
X179900090Y-15233534D01*
X179915500Y-15311004D01*
X179915500Y-15389996D01*
X179900090Y-15467466D01*
X179869862Y-15540444D01*
X179825977Y-15606122D01*
X179770122Y-15661977D01*
X179704444Y-15705862D01*
X179661695Y-15723569D01*
X179631467Y-15736090D01*
X179596783Y-15742989D01*
X179553996Y-15751500D01*
X179475004Y-15751500D01*
X179432217Y-15742989D01*
X179397533Y-15736090D01*
X179367305Y-15723569D01*
X179324556Y-15705862D01*
X179258878Y-15661977D01*
X179203022Y-15606121D01*
X179193433Y-15591770D01*
X179177887Y-15572828D01*
X179158945Y-15557283D01*
X179137335Y-15545732D01*
X179113886Y-15538619D01*
X179089499Y-15536217D01*
X179065113Y-15538619D01*
X179041664Y-15545732D01*
X179020054Y-15557283D01*
X179001112Y-15572829D01*
X178985567Y-15591770D01*
X178975978Y-15606121D01*
X178920122Y-15661977D01*
X178854444Y-15705862D01*
X178811695Y-15723569D01*
X178781467Y-15736090D01*
X178746783Y-15742989D01*
X178703996Y-15751500D01*
X178625004Y-15751500D01*
X178582217Y-15742989D01*
X178547533Y-15736090D01*
X178517305Y-15723569D01*
X178474556Y-15705862D01*
X178408878Y-15661977D01*
X178353022Y-15606121D01*
X178343433Y-15591770D01*
X178327887Y-15572828D01*
X178308945Y-15557283D01*
X178287335Y-15545732D01*
X178263886Y-15538619D01*
X178239499Y-15536217D01*
X178215113Y-15538619D01*
X178191664Y-15545732D01*
X178170054Y-15557283D01*
X178151112Y-15572829D01*
X178135567Y-15591770D01*
X178125978Y-15606121D01*
X178070122Y-15661977D01*
X178004444Y-15705862D01*
X177961695Y-15723569D01*
X177931467Y-15736090D01*
X177896783Y-15742989D01*
X177853996Y-15751500D01*
X177775004Y-15751500D01*
X177732217Y-15742989D01*
X177697533Y-15736090D01*
X177667305Y-15723569D01*
X177624556Y-15705862D01*
X177558878Y-15661977D01*
X177503022Y-15606121D01*
X177493433Y-15591770D01*
X177477887Y-15572828D01*
X177458945Y-15557283D01*
X177437335Y-15545732D01*
X177413886Y-15538619D01*
X177389499Y-15536217D01*
X177365113Y-15538619D01*
X177341664Y-15545732D01*
X177320054Y-15557283D01*
X177301112Y-15572829D01*
X177285567Y-15591770D01*
X177275978Y-15606121D01*
X177220122Y-15661977D01*
X177154444Y-15705862D01*
X177111695Y-15723569D01*
X177081467Y-15736090D01*
X177046783Y-15742989D01*
X177003996Y-15751500D01*
X176925004Y-15751500D01*
X176882217Y-15742989D01*
X176847533Y-15736090D01*
X176817305Y-15723569D01*
X176774556Y-15705862D01*
X176708878Y-15661977D01*
X176653022Y-15606121D01*
X176643433Y-15591770D01*
X176627887Y-15572828D01*
X176608945Y-15557283D01*
X176587335Y-15545732D01*
X176563886Y-15538619D01*
X176539499Y-15536217D01*
X176515113Y-15538619D01*
X176491664Y-15545732D01*
X176470054Y-15557283D01*
X176451112Y-15572829D01*
X176435567Y-15591770D01*
X176425978Y-15606121D01*
X176370122Y-15661977D01*
X176304444Y-15705862D01*
X176261695Y-15723569D01*
X176231467Y-15736090D01*
X176196783Y-15742989D01*
X176153996Y-15751500D01*
X176075004Y-15751500D01*
X176032217Y-15742989D01*
X175997533Y-15736090D01*
X175967305Y-15723569D01*
X175924556Y-15705862D01*
X175858878Y-15661977D01*
X175803022Y-15606121D01*
X175793433Y-15591770D01*
X175777887Y-15572828D01*
X175758945Y-15557283D01*
X175737335Y-15545732D01*
X175713886Y-15538619D01*
X175689499Y-15536217D01*
X175665113Y-15538619D01*
X175641664Y-15545732D01*
X175620054Y-15557283D01*
X175601112Y-15572829D01*
X175585567Y-15591770D01*
X175575978Y-15606121D01*
X175520122Y-15661977D01*
X175454444Y-15705862D01*
X175411695Y-15723569D01*
X175381467Y-15736090D01*
X175346783Y-15742989D01*
X175303996Y-15751500D01*
X175225004Y-15751500D01*
X175182217Y-15742989D01*
X175147533Y-15736090D01*
X175117305Y-15723569D01*
X175074556Y-15705862D01*
X175008878Y-15661977D01*
X174953022Y-15606121D01*
X174943433Y-15591770D01*
X174927887Y-15572828D01*
X174908945Y-15557283D01*
X174887335Y-15545732D01*
X174863886Y-15538619D01*
X174839499Y-15536217D01*
X174815113Y-15538619D01*
X174791664Y-15545732D01*
X174770054Y-15557283D01*
X174751112Y-15572829D01*
X174735567Y-15591770D01*
X174725978Y-15606121D01*
X174670122Y-15661977D01*
X174604444Y-15705862D01*
X174561695Y-15723569D01*
X174531467Y-15736090D01*
X174496783Y-15742989D01*
X174453996Y-15751500D01*
X174375004Y-15751500D01*
X174332217Y-15742989D01*
X174297533Y-15736090D01*
X174267305Y-15723569D01*
X174224556Y-15705862D01*
X174158878Y-15661977D01*
X174103022Y-15606121D01*
X174093433Y-15591770D01*
X174077887Y-15572828D01*
X174058945Y-15557283D01*
X174037335Y-15545732D01*
X174013886Y-15538619D01*
X173989499Y-15536217D01*
X173965113Y-15538619D01*
X173941664Y-15545732D01*
X173920054Y-15557283D01*
X173901112Y-15572829D01*
X173885567Y-15591770D01*
X173875978Y-15606121D01*
X173820122Y-15661977D01*
X173754444Y-15705862D01*
X173711695Y-15723569D01*
X173681467Y-15736090D01*
X173646783Y-15742989D01*
X173603996Y-15751500D01*
X173525004Y-15751500D01*
X173482217Y-15742989D01*
X173447533Y-15736090D01*
X173417305Y-15723569D01*
X173374556Y-15705862D01*
X173308878Y-15661977D01*
X173253023Y-15606122D01*
X173209138Y-15540444D01*
X173178910Y-15467466D01*
X173163500Y-15389996D01*
X173163500Y-15311004D01*
X173178910Y-15233534D01*
X173209138Y-15160556D01*
X173253023Y-15094878D01*
X173308878Y-15039023D01*
X173374556Y-14995138D01*
X173417305Y-14977431D01*
X173447533Y-14964910D01*
X173486269Y-14957205D01*
X173525004Y-14949500D01*
X173603996Y-14949500D01*
X173642731Y-14957205D01*
X173642731Y-14957205D01*
G37*
G36*
X182850000Y-14544000D02*
G01*
X182148000Y-14544000D01*
X182148000Y-14042000D01*
X182850000Y-14042000D01*
X182850000Y-14544000D01*
X182850000Y-14544000D01*
G37*
G36*
X182850000Y-13644000D02*
G01*
X182148000Y-13644000D01*
X182148000Y-13142000D01*
X182850000Y-13142000D01*
X182850000Y-13644000D01*
X182850000Y-13644000D01*
G37*
G36*
X186321000Y-13601000D02*
G01*
X184519000Y-13601000D01*
X184519000Y-11799000D01*
X186321000Y-11799000D01*
X186321000Y-13601000D01*
X186321000Y-13601000D01*
G37*
G36*
X168541000Y-13601000D02*
G01*
X166739000Y-13601000D01*
X166739000Y-11799000D01*
X168541000Y-11799000D01*
X168541000Y-13601000D01*
X168541000Y-13601000D01*
G37*
G36*
X180962713Y-11446749D02*
G01*
X181057152Y-11475397D01*
X181144187Y-11521918D01*
X181220475Y-11584525D01*
X181283082Y-11660813D01*
X181329603Y-11747848D01*
X181358251Y-11842287D01*
X181365500Y-11915888D01*
X181365500Y-12765112D01*
X181358251Y-12838713D01*
X181329603Y-12933152D01*
X181283082Y-13020187D01*
X181220475Y-13096475D01*
X181144187Y-13159082D01*
X181057151Y-13205603D01*
X180962712Y-13234251D01*
X180864500Y-13243924D01*
X180766287Y-13234251D01*
X180671848Y-13205603D01*
X180584813Y-13159082D01*
X180508525Y-13096475D01*
X180445918Y-13020187D01*
X180399397Y-12933151D01*
X180370749Y-12838712D01*
X180363500Y-12765111D01*
X180363500Y-11915898D01*
X180370750Y-11842286D01*
X180383881Y-11799000D01*
X180399398Y-11747848D01*
X180445919Y-11660813D01*
X180508526Y-11584525D01*
X180584814Y-11521918D01*
X180671849Y-11475397D01*
X180766288Y-11446749D01*
X180864500Y-11437076D01*
X180962713Y-11446749D01*
X180962713Y-11446749D01*
G37*
G36*
X172312713Y-11446749D02*
G01*
X172407152Y-11475397D01*
X172494187Y-11521918D01*
X172570475Y-11584525D01*
X172633082Y-11660813D01*
X172679603Y-11747848D01*
X172708251Y-11842287D01*
X172715500Y-11915888D01*
X172715500Y-12765112D01*
X172708251Y-12838713D01*
X172679603Y-12933152D01*
X172633082Y-13020187D01*
X172570475Y-13096475D01*
X172494187Y-13159082D01*
X172407151Y-13205603D01*
X172312712Y-13234251D01*
X172214500Y-13243924D01*
X172116287Y-13234251D01*
X172021848Y-13205603D01*
X171934813Y-13159082D01*
X171858525Y-13096475D01*
X171795918Y-13020187D01*
X171749397Y-12933151D01*
X171720749Y-12838712D01*
X171713500Y-12765111D01*
X171713500Y-11915898D01*
X171720750Y-11842286D01*
X171733881Y-11799000D01*
X171749398Y-11747848D01*
X171795919Y-11660813D01*
X171858526Y-11584525D01*
X171934814Y-11521918D01*
X172021849Y-11475397D01*
X172116288Y-11446749D01*
X172214500Y-11437076D01*
X172312713Y-11446749D01*
X172312713Y-11446749D01*
G37*
M02*
