M48
; DRILL file {KiCad 5.1.2} date Sun 04 Aug 2019 19:59:18 CEST
; FORMAT={-:-/ absolute / inch / decimal}
; #@! TF.CreationDate,2019-08-04T19:59:18+02:00
; #@! TF.GenerationSoftware,Kicad,Pcbnew,5.1.2
; #@! TF.FileFunction,Plated,1,2,PTH
FMAT,2
INCH
T1C0.0157
T2C0.0236
T3C0.0315
T4C0.0394
%
G90
G05
T1
X6.6613Y-1.2087
X6.6635Y-1.2665
X6.68Y-1.39
X6.68Y-2.07
X6.7Y-2.18
X6.755Y-0.705
X6.77Y-1.37
X6.7885Y-0.9
X6.7889Y-0.8551
X6.79Y-0.94
X6.8Y-1.46
X6.8Y-1.97
X6.84Y-1.37
X6.87Y-1.71
X6.87Y-1.93
X6.885Y-0.78
X6.89Y-2.07
X6.9Y-1.47
X6.9036Y-0.7122
X6.93Y-1.97
X6.95Y-1.82
X6.9723Y-1.39
X6.98Y-0.5
X7.0Y-0.83
X7.02Y-1.44
X7.02Y-1.73
X7.0282Y-0.7587
X7.04Y-0.89
X7.045Y-1.49
X7.08Y-1.73
X7.087Y-1.3107
X7.09Y-1.46
X7.0959Y-1.9101
X7.1Y-1.38
X7.12Y-1.65
X7.12Y-1.77
X7.15Y-1.19
X7.15Y-1.09
X7.16Y-1.67
X7.17Y-1.38
X7.18Y-2.08
X7.19Y-1.99
X7.2131Y-1.4031
X6.8332Y-0.6044
X6.8332Y-0.6575
X6.8667Y-0.6044
X6.8667Y-0.6575
X6.9002Y-0.6044
X6.9002Y-0.6575
X6.9336Y-0.6044
X6.9336Y-0.6575
X6.9671Y-0.6044
X6.9671Y-0.6575
X7.0006Y-0.6044
X7.0006Y-0.6575
X7.034Y-0.6044
X7.034Y-0.6575
X7.0675Y-0.6044
X7.0675Y-0.6575
T3
X6.8Y-2.175
X7.1Y-2.175
T4
X6.8Y-2.4
X6.9Y-2.4
X7.0Y-2.4
X7.1Y-2.4
X6.6Y-0.5
X6.6Y-0.6
X6.6Y-0.7
X6.6Y-0.8
X6.6Y-0.9
X6.6Y-1.0
X6.6Y-1.1
X6.6Y-1.2
X6.6Y-1.3
X6.6Y-1.4
X6.6Y-1.5
X6.6Y-1.6
X6.6Y-1.7
X6.6Y-1.8
X6.6Y-1.9
X6.6Y-2.0
X6.6Y-2.1
X6.6Y-2.2
X6.6Y-2.3
X6.6Y-2.4
X7.3Y-0.5
X7.3Y-0.6
X7.3Y-0.7
X7.3Y-0.8
X7.3Y-0.9
X7.3Y-1.0
X7.3Y-1.1
X7.3Y-1.2
X7.3Y-1.3
X7.3Y-1.4
X7.3Y-1.5
X7.3Y-1.6
X7.3Y-1.7
X7.3Y-1.8
X7.3Y-1.9
X7.3Y-2.0
X7.3Y-2.1
X7.3Y-2.2
X7.3Y-2.3
X7.3Y-2.4
T2
G00X6.7801Y-0.5016
M15
G01X6.7801Y-0.4701
M16
G05
G00X6.7801Y-0.6484
M15
G01X6.7801Y-0.5894
M16
G05
G00X7.1206Y-0.5016
M15
G01X7.1206Y-0.4701
M16
G05
G00X7.1206Y-0.6484
M15
G01X7.1206Y-0.5894
M16
G05
T0
M30
