G04 #@! TF.GenerationSoftware,KiCad,Pcbnew,5.1.2*
G04 #@! TF.CreationDate,2019-08-04T19:59:17+02:00*
G04 #@! TF.ProjectId,neutron-c,6e657574-726f-46e2-9d63-2e6b69636164,rev?*
G04 #@! TF.SameCoordinates,Original*
G04 #@! TF.FileFunction,Legend,Top*
G04 #@! TF.FilePolarity,Positive*
%FSLAX46Y46*%
G04 Gerber Fmt 4.6, Leading zero omitted, Abs format (unit mm)*
G04 Created by KiCad (PCBNEW 5.1.2) date 2019-08-04 19:59:17*
%MOMM*%
%LPD*%
G04 APERTURE LIST*
%ADD10C,0.150000*%
%ADD11C,0.120000*%
G04 APERTURE END LIST*
D10*
X180549523Y-58832800D02*
X180473333Y-58794704D01*
X180359047Y-58794704D01*
X180244761Y-58832800D01*
X180168571Y-58908990D01*
X180130476Y-58985180D01*
X180092380Y-59137561D01*
X180092380Y-59251847D01*
X180130476Y-59404228D01*
X180168571Y-59480419D01*
X180244761Y-59556609D01*
X180359047Y-59594704D01*
X180435238Y-59594704D01*
X180549523Y-59556609D01*
X180587619Y-59518514D01*
X180587619Y-59251847D01*
X180435238Y-59251847D01*
X182602142Y-58491476D02*
X182649761Y-58539095D01*
X182697380Y-58681952D01*
X182697380Y-58777190D01*
X182649761Y-58920047D01*
X182554523Y-59015285D01*
X182459285Y-59062904D01*
X182268809Y-59110523D01*
X182125952Y-59110523D01*
X181935476Y-59062904D01*
X181840238Y-59015285D01*
X181745000Y-58920047D01*
X181697380Y-58777190D01*
X181697380Y-58681952D01*
X181745000Y-58539095D01*
X181792619Y-58491476D01*
D11*
X182880000Y-59055000D02*
X182880000Y-52705000D01*
D10*
X171013428Y-12390428D02*
X170965809Y-12533285D01*
X170918190Y-12580904D01*
X170822952Y-12628523D01*
X170680095Y-12628523D01*
X170584857Y-12580904D01*
X170537238Y-12533285D01*
X170489619Y-12438047D01*
X170489619Y-12057095D01*
X171489619Y-12057095D01*
X171489619Y-12390428D01*
X171442000Y-12485666D01*
X171394380Y-12533285D01*
X171299142Y-12580904D01*
X171203904Y-12580904D01*
X171108666Y-12533285D01*
X171061047Y-12485666D01*
X171013428Y-12390428D01*
X171013428Y-12057095D01*
D11*
X170180000Y-21082000D02*
X170180000Y-12065000D01*
D10*
X170775333Y-27447904D02*
X170775333Y-27924095D01*
X170489619Y-27352666D02*
X171489619Y-27686000D01*
X170489619Y-28019333D01*
D11*
X170180000Y-32766000D02*
X170180000Y-27305000D01*
D10*
X183711857Y-26104761D02*
X183749952Y-25990476D01*
X183788047Y-25952380D01*
X183864238Y-25914285D01*
X183978523Y-25914285D01*
X184054714Y-25952380D01*
X184092809Y-25990476D01*
X184130904Y-26066666D01*
X184130904Y-26371428D01*
X183330904Y-26371428D01*
X183330904Y-26104761D01*
X183369000Y-26028571D01*
X183407095Y-25990476D01*
X183483285Y-25952380D01*
X183559476Y-25952380D01*
X183635666Y-25990476D01*
X183673761Y-26028571D01*
X183711857Y-26104761D01*
X183711857Y-26371428D01*
X184130904Y-25152380D02*
X184130904Y-25609523D01*
X184130904Y-25380952D02*
X183330904Y-25380952D01*
X183445190Y-25457142D01*
X183521380Y-25533333D01*
X183559476Y-25609523D01*
X183330904Y-24657142D02*
X183330904Y-24580952D01*
X183369000Y-24504761D01*
X183407095Y-24466666D01*
X183483285Y-24428571D01*
X183635666Y-24390476D01*
X183826142Y-24390476D01*
X183978523Y-24428571D01*
X184054714Y-24466666D01*
X184092809Y-24504761D01*
X184130904Y-24580952D01*
X184130904Y-24657142D01*
X184092809Y-24733333D01*
X184054714Y-24771428D01*
X183978523Y-24809523D01*
X183826142Y-24847619D01*
X183635666Y-24847619D01*
X183483285Y-24809523D01*
X183407095Y-24771428D01*
X183369000Y-24733333D01*
X183330904Y-24657142D01*
X183902333Y-33083428D02*
X183902333Y-32702476D01*
X184130904Y-33159619D02*
X183330904Y-32892952D01*
X184130904Y-32626285D01*
X183330904Y-32435809D02*
X183330904Y-31902476D01*
X184130904Y-32245333D01*
X183711857Y-23564761D02*
X183749952Y-23450476D01*
X183788047Y-23412380D01*
X183864238Y-23374285D01*
X183978523Y-23374285D01*
X184054714Y-23412380D01*
X184092809Y-23450476D01*
X184130904Y-23526666D01*
X184130904Y-23831428D01*
X183330904Y-23831428D01*
X183330904Y-23564761D01*
X183369000Y-23488571D01*
X183407095Y-23450476D01*
X183483285Y-23412380D01*
X183559476Y-23412380D01*
X183635666Y-23450476D01*
X183673761Y-23488571D01*
X183711857Y-23564761D01*
X183711857Y-23831428D01*
X184130904Y-22612380D02*
X184130904Y-23069523D01*
X184130904Y-22840952D02*
X183330904Y-22840952D01*
X183445190Y-22917142D01*
X183521380Y-22993333D01*
X183559476Y-23069523D01*
X184130904Y-21850476D02*
X184130904Y-22307619D01*
X184130904Y-22079047D02*
X183330904Y-22079047D01*
X183445190Y-22155238D01*
X183521380Y-22231428D01*
X183559476Y-22307619D01*
X184130904Y-20072380D02*
X183749952Y-20339047D01*
X184130904Y-20529523D02*
X183330904Y-20529523D01*
X183330904Y-20224761D01*
X183369000Y-20148571D01*
X183407095Y-20110476D01*
X183483285Y-20072380D01*
X183597571Y-20072380D01*
X183673761Y-20110476D01*
X183711857Y-20148571D01*
X183749952Y-20224761D01*
X183749952Y-20529523D01*
X183711857Y-30676809D02*
X183749952Y-30562523D01*
X183788047Y-30524428D01*
X183864238Y-30486333D01*
X183978523Y-30486333D01*
X184054714Y-30524428D01*
X184092809Y-30562523D01*
X184130904Y-30638714D01*
X184130904Y-30943476D01*
X183330904Y-30943476D01*
X183330904Y-30676809D01*
X183369000Y-30600619D01*
X183407095Y-30562523D01*
X183483285Y-30524428D01*
X183559476Y-30524428D01*
X183635666Y-30562523D01*
X183673761Y-30600619D01*
X183711857Y-30676809D01*
X183711857Y-30943476D01*
X183330904Y-29991095D02*
X183330904Y-29914904D01*
X183369000Y-29838714D01*
X183407095Y-29800619D01*
X183483285Y-29762523D01*
X183635666Y-29724428D01*
X183826142Y-29724428D01*
X183978523Y-29762523D01*
X184054714Y-29800619D01*
X184092809Y-29838714D01*
X184130904Y-29914904D01*
X184130904Y-29991095D01*
X184092809Y-30067285D01*
X184054714Y-30105380D01*
X183978523Y-30143476D01*
X183826142Y-30181571D01*
X183635666Y-30181571D01*
X183483285Y-30143476D01*
X183407095Y-30105380D01*
X183369000Y-30067285D01*
X183330904Y-29991095D01*
X183369000Y-12490476D02*
X183330904Y-12566666D01*
X183330904Y-12680952D01*
X183369000Y-12795238D01*
X183445190Y-12871428D01*
X183521380Y-12909523D01*
X183673761Y-12947619D01*
X183788047Y-12947619D01*
X183940428Y-12909523D01*
X184016619Y-12871428D01*
X184092809Y-12795238D01*
X184130904Y-12680952D01*
X184130904Y-12604761D01*
X184092809Y-12490476D01*
X184054714Y-12452380D01*
X183788047Y-12452380D01*
X183788047Y-12604761D01*
X183330904Y-18618095D02*
X183330904Y-18122857D01*
X183635666Y-18389523D01*
X183635666Y-18275238D01*
X183673761Y-18199047D01*
X183711857Y-18160952D01*
X183788047Y-18122857D01*
X183978523Y-18122857D01*
X184054714Y-18160952D01*
X184092809Y-18199047D01*
X184130904Y-18275238D01*
X184130904Y-18503809D01*
X184092809Y-18580000D01*
X184054714Y-18618095D01*
X184054714Y-17780000D02*
X184092809Y-17741904D01*
X184130904Y-17780000D01*
X184092809Y-17818095D01*
X184054714Y-17780000D01*
X184130904Y-17780000D01*
X183330904Y-17475238D02*
X183330904Y-16980000D01*
X183635666Y-17246666D01*
X183635666Y-17132380D01*
X183673761Y-17056190D01*
X183711857Y-17018095D01*
X183788047Y-16980000D01*
X183978523Y-16980000D01*
X184054714Y-17018095D01*
X184092809Y-17056190D01*
X184130904Y-17132380D01*
X184130904Y-17360952D01*
X184092809Y-17437142D01*
X184054714Y-17475238D01*
X183369000Y-15030476D02*
X183330904Y-15106666D01*
X183330904Y-15220952D01*
X183369000Y-15335238D01*
X183445190Y-15411428D01*
X183521380Y-15449523D01*
X183673761Y-15487619D01*
X183788047Y-15487619D01*
X183940428Y-15449523D01*
X184016619Y-15411428D01*
X184092809Y-15335238D01*
X184130904Y-15220952D01*
X184130904Y-15144761D01*
X184092809Y-15030476D01*
X184054714Y-14992380D01*
X183788047Y-14992380D01*
X183788047Y-15144761D01*
X183711857Y-28263809D02*
X183749952Y-28149523D01*
X183788047Y-28111428D01*
X183864238Y-28073333D01*
X183978523Y-28073333D01*
X184054714Y-28111428D01*
X184092809Y-28149523D01*
X184130904Y-28225714D01*
X184130904Y-28530476D01*
X183330904Y-28530476D01*
X183330904Y-28263809D01*
X183369000Y-28187619D01*
X183407095Y-28149523D01*
X183483285Y-28111428D01*
X183559476Y-28111428D01*
X183635666Y-28149523D01*
X183673761Y-28187619D01*
X183711857Y-28263809D01*
X183711857Y-28530476D01*
X184130904Y-27311428D02*
X184130904Y-27768571D01*
X184130904Y-27540000D02*
X183330904Y-27540000D01*
X183445190Y-27616190D01*
X183521380Y-27692380D01*
X183559476Y-27768571D01*
X183902333Y-41211428D02*
X183902333Y-40830476D01*
X184130904Y-41287619D02*
X183330904Y-41020952D01*
X184130904Y-40754285D01*
X183597571Y-40144761D02*
X184130904Y-40144761D01*
X183292809Y-40335238D02*
X183864238Y-40525714D01*
X183864238Y-40030476D01*
X184130904Y-58572380D02*
X184130904Y-59029523D01*
X184130904Y-58800952D02*
X183330904Y-58800952D01*
X183445190Y-58877142D01*
X183521380Y-58953333D01*
X183559476Y-59029523D01*
X183330904Y-58305714D02*
X183330904Y-57810476D01*
X183635666Y-58077142D01*
X183635666Y-57962857D01*
X183673761Y-57886666D01*
X183711857Y-57848571D01*
X183788047Y-57810476D01*
X183978523Y-57810476D01*
X184054714Y-57848571D01*
X184092809Y-57886666D01*
X184130904Y-57962857D01*
X184130904Y-58191428D01*
X184092809Y-58267619D01*
X184054714Y-58305714D01*
X183902333Y-43751428D02*
X183902333Y-43370476D01*
X184130904Y-43827619D02*
X183330904Y-43560952D01*
X184130904Y-43294285D01*
X183330904Y-43103809D02*
X183330904Y-42608571D01*
X183635666Y-42875238D01*
X183635666Y-42760952D01*
X183673761Y-42684761D01*
X183711857Y-42646666D01*
X183788047Y-42608571D01*
X183978523Y-42608571D01*
X184054714Y-42646666D01*
X184092809Y-42684761D01*
X184130904Y-42760952D01*
X184130904Y-42989523D01*
X184092809Y-43065714D01*
X184054714Y-43103809D01*
X183902333Y-51371428D02*
X183902333Y-50990476D01*
X184130904Y-51447619D02*
X183330904Y-51180952D01*
X184130904Y-50914285D01*
X183330904Y-50495238D02*
X183330904Y-50419047D01*
X183369000Y-50342857D01*
X183407095Y-50304761D01*
X183483285Y-50266666D01*
X183635666Y-50228571D01*
X183826142Y-50228571D01*
X183978523Y-50266666D01*
X184054714Y-50304761D01*
X184092809Y-50342857D01*
X184130904Y-50419047D01*
X184130904Y-50495238D01*
X184092809Y-50571428D01*
X184054714Y-50609523D01*
X183978523Y-50647619D01*
X183826142Y-50685714D01*
X183635666Y-50685714D01*
X183483285Y-50647619D01*
X183407095Y-50609523D01*
X183369000Y-50571428D01*
X183330904Y-50495238D01*
X184130904Y-56032380D02*
X184130904Y-56489523D01*
X184130904Y-56260952D02*
X183330904Y-56260952D01*
X183445190Y-56337142D01*
X183521380Y-56413333D01*
X183559476Y-56489523D01*
X183597571Y-55346666D02*
X184130904Y-55346666D01*
X183292809Y-55537142D02*
X183864238Y-55727619D01*
X183864238Y-55232380D01*
X183330904Y-61931428D02*
X184130904Y-61664761D01*
X183330904Y-61398095D01*
X183711857Y-60864761D02*
X183749952Y-60750476D01*
X183788047Y-60712380D01*
X183864238Y-60674285D01*
X183978523Y-60674285D01*
X184054714Y-60712380D01*
X184092809Y-60750476D01*
X184130904Y-60826666D01*
X184130904Y-61131428D01*
X183330904Y-61131428D01*
X183330904Y-60864761D01*
X183369000Y-60788571D01*
X183407095Y-60750476D01*
X183483285Y-60712380D01*
X183559476Y-60712380D01*
X183635666Y-60750476D01*
X183673761Y-60788571D01*
X183711857Y-60864761D01*
X183711857Y-61131428D01*
X183330904Y-60445714D02*
X183330904Y-59988571D01*
X184130904Y-60217142D02*
X183330904Y-60217142D01*
X184130904Y-53492380D02*
X184130904Y-53949523D01*
X184130904Y-53720952D02*
X183330904Y-53720952D01*
X183445190Y-53797142D01*
X183521380Y-53873333D01*
X183559476Y-53949523D01*
X183330904Y-52768571D02*
X183330904Y-53149523D01*
X183711857Y-53187619D01*
X183673761Y-53149523D01*
X183635666Y-53073333D01*
X183635666Y-52882857D01*
X183673761Y-52806666D01*
X183711857Y-52768571D01*
X183788047Y-52730476D01*
X183978523Y-52730476D01*
X184054714Y-52768571D01*
X184092809Y-52806666D01*
X184130904Y-52882857D01*
X184130904Y-53073333D01*
X184092809Y-53149523D01*
X184054714Y-53187619D01*
X183902333Y-39179428D02*
X183902333Y-38798476D01*
X184130904Y-39255619D02*
X183330904Y-38988952D01*
X184130904Y-38722285D01*
X183330904Y-38074666D02*
X183330904Y-38455619D01*
X183711857Y-38493714D01*
X183673761Y-38455619D01*
X183635666Y-38379428D01*
X183635666Y-38188952D01*
X183673761Y-38112761D01*
X183711857Y-38074666D01*
X183788047Y-38036571D01*
X183978523Y-38036571D01*
X184054714Y-38074666D01*
X184092809Y-38112761D01*
X184130904Y-38188952D01*
X184130904Y-38379428D01*
X184092809Y-38455619D01*
X184054714Y-38493714D01*
X183902333Y-48831428D02*
X183902333Y-48450476D01*
X184130904Y-48907619D02*
X183330904Y-48640952D01*
X184130904Y-48374285D01*
X184130904Y-47688571D02*
X184130904Y-48145714D01*
X184130904Y-47917142D02*
X183330904Y-47917142D01*
X183445190Y-47993333D01*
X183521380Y-48069523D01*
X183559476Y-48145714D01*
X183902333Y-46291428D02*
X183902333Y-45910476D01*
X184130904Y-46367619D02*
X183330904Y-46100952D01*
X184130904Y-45834285D01*
X183407095Y-45605714D02*
X183369000Y-45567619D01*
X183330904Y-45491428D01*
X183330904Y-45300952D01*
X183369000Y-45224761D01*
X183407095Y-45186666D01*
X183483285Y-45148571D01*
X183559476Y-45148571D01*
X183673761Y-45186666D01*
X184130904Y-45643809D01*
X184130904Y-45148571D01*
X169729095Y-59969523D02*
X169729095Y-60464761D01*
X169424333Y-60198095D01*
X169424333Y-60312380D01*
X169386238Y-60388571D01*
X169348142Y-60426666D01*
X169271952Y-60464761D01*
X169081476Y-60464761D01*
X169005285Y-60426666D01*
X168967190Y-60388571D01*
X168929095Y-60312380D01*
X168929095Y-60083809D01*
X168967190Y-60007619D01*
X169005285Y-59969523D01*
X169729095Y-60693333D02*
X168929095Y-60960000D01*
X169729095Y-61226666D01*
X169729095Y-61417142D02*
X169729095Y-61912380D01*
X169424333Y-61645714D01*
X169424333Y-61760000D01*
X169386238Y-61836190D01*
X169348142Y-61874285D01*
X169271952Y-61912380D01*
X169081476Y-61912380D01*
X169005285Y-61874285D01*
X168967190Y-61836190D01*
X168929095Y-61760000D01*
X168929095Y-61531428D01*
X168967190Y-61455238D01*
X169005285Y-61417142D01*
X169691000Y-58629523D02*
X169729095Y-58553333D01*
X169729095Y-58439047D01*
X169691000Y-58324761D01*
X169614809Y-58248571D01*
X169538619Y-58210476D01*
X169386238Y-58172380D01*
X169271952Y-58172380D01*
X169119571Y-58210476D01*
X169043380Y-58248571D01*
X168967190Y-58324761D01*
X168929095Y-58439047D01*
X168929095Y-58515238D01*
X168967190Y-58629523D01*
X169005285Y-58667619D01*
X169271952Y-58667619D01*
X169271952Y-58515238D01*
X169729095Y-55727619D02*
X169729095Y-55346666D01*
X169348142Y-55308571D01*
X169386238Y-55346666D01*
X169424333Y-55422857D01*
X169424333Y-55613333D01*
X169386238Y-55689523D01*
X169348142Y-55727619D01*
X169271952Y-55765714D01*
X169081476Y-55765714D01*
X169005285Y-55727619D01*
X168967190Y-55689523D01*
X168929095Y-55613333D01*
X168929095Y-55422857D01*
X168967190Y-55346666D01*
X169005285Y-55308571D01*
X169729095Y-55994285D02*
X168929095Y-56260952D01*
X169729095Y-56527619D01*
X169348142Y-53016190D02*
X169310047Y-53130476D01*
X169271952Y-53168571D01*
X169195761Y-53206666D01*
X169081476Y-53206666D01*
X169005285Y-53168571D01*
X168967190Y-53130476D01*
X168929095Y-53054285D01*
X168929095Y-52749523D01*
X169729095Y-52749523D01*
X169729095Y-53016190D01*
X169691000Y-53092380D01*
X169652904Y-53130476D01*
X169576714Y-53168571D01*
X169500523Y-53168571D01*
X169424333Y-53130476D01*
X169386238Y-53092380D01*
X169348142Y-53016190D01*
X169348142Y-52749523D01*
X168929095Y-53587619D02*
X168929095Y-53740000D01*
X168967190Y-53816190D01*
X169005285Y-53854285D01*
X169119571Y-53930476D01*
X169271952Y-53968571D01*
X169576714Y-53968571D01*
X169652904Y-53930476D01*
X169691000Y-53892380D01*
X169729095Y-53816190D01*
X169729095Y-53663809D01*
X169691000Y-53587619D01*
X169652904Y-53549523D01*
X169576714Y-53511428D01*
X169386238Y-53511428D01*
X169310047Y-53549523D01*
X169271952Y-53587619D01*
X169233857Y-53663809D01*
X169233857Y-53816190D01*
X169271952Y-53892380D01*
X169310047Y-53930476D01*
X169386238Y-53968571D01*
X169348142Y-50476190D02*
X169310047Y-50590476D01*
X169271952Y-50628571D01*
X169195761Y-50666666D01*
X169081476Y-50666666D01*
X169005285Y-50628571D01*
X168967190Y-50590476D01*
X168929095Y-50514285D01*
X168929095Y-50209523D01*
X169729095Y-50209523D01*
X169729095Y-50476190D01*
X169691000Y-50552380D01*
X169652904Y-50590476D01*
X169576714Y-50628571D01*
X169500523Y-50628571D01*
X169424333Y-50590476D01*
X169386238Y-50552380D01*
X169348142Y-50476190D01*
X169348142Y-50209523D01*
X169386238Y-51123809D02*
X169424333Y-51047619D01*
X169462428Y-51009523D01*
X169538619Y-50971428D01*
X169576714Y-50971428D01*
X169652904Y-51009523D01*
X169691000Y-51047619D01*
X169729095Y-51123809D01*
X169729095Y-51276190D01*
X169691000Y-51352380D01*
X169652904Y-51390476D01*
X169576714Y-51428571D01*
X169538619Y-51428571D01*
X169462428Y-51390476D01*
X169424333Y-51352380D01*
X169386238Y-51276190D01*
X169386238Y-51123809D01*
X169348142Y-51047619D01*
X169310047Y-51009523D01*
X169233857Y-50971428D01*
X169081476Y-50971428D01*
X169005285Y-51009523D01*
X168967190Y-51047619D01*
X168929095Y-51123809D01*
X168929095Y-51276190D01*
X168967190Y-51352380D01*
X169005285Y-51390476D01*
X169081476Y-51428571D01*
X169233857Y-51428571D01*
X169310047Y-51390476D01*
X169348142Y-51352380D01*
X169386238Y-51276190D01*
X169348142Y-47936190D02*
X169310047Y-48050476D01*
X169271952Y-48088571D01*
X169195761Y-48126666D01*
X169081476Y-48126666D01*
X169005285Y-48088571D01*
X168967190Y-48050476D01*
X168929095Y-47974285D01*
X168929095Y-47669523D01*
X169729095Y-47669523D01*
X169729095Y-47936190D01*
X169691000Y-48012380D01*
X169652904Y-48050476D01*
X169576714Y-48088571D01*
X169500523Y-48088571D01*
X169424333Y-48050476D01*
X169386238Y-48012380D01*
X169348142Y-47936190D01*
X169348142Y-47669523D01*
X169729095Y-48393333D02*
X169729095Y-48926666D01*
X168929095Y-48583809D01*
X169348142Y-45396190D02*
X169310047Y-45510476D01*
X169271952Y-45548571D01*
X169195761Y-45586666D01*
X169081476Y-45586666D01*
X169005285Y-45548571D01*
X168967190Y-45510476D01*
X168929095Y-45434285D01*
X168929095Y-45129523D01*
X169729095Y-45129523D01*
X169729095Y-45396190D01*
X169691000Y-45472380D01*
X169652904Y-45510476D01*
X169576714Y-45548571D01*
X169500523Y-45548571D01*
X169424333Y-45510476D01*
X169386238Y-45472380D01*
X169348142Y-45396190D01*
X169348142Y-45129523D01*
X169729095Y-46272380D02*
X169729095Y-46120000D01*
X169691000Y-46043809D01*
X169652904Y-46005714D01*
X169538619Y-45929523D01*
X169386238Y-45891428D01*
X169081476Y-45891428D01*
X169005285Y-45929523D01*
X168967190Y-45967619D01*
X168929095Y-46043809D01*
X168929095Y-46196190D01*
X168967190Y-46272380D01*
X169005285Y-46310476D01*
X169081476Y-46348571D01*
X169271952Y-46348571D01*
X169348142Y-46310476D01*
X169386238Y-46272380D01*
X169424333Y-46196190D01*
X169424333Y-46043809D01*
X169386238Y-45967619D01*
X169348142Y-45929523D01*
X169271952Y-45891428D01*
X169348142Y-42856190D02*
X169310047Y-42970476D01*
X169271952Y-43008571D01*
X169195761Y-43046666D01*
X169081476Y-43046666D01*
X169005285Y-43008571D01*
X168967190Y-42970476D01*
X168929095Y-42894285D01*
X168929095Y-42589523D01*
X169729095Y-42589523D01*
X169729095Y-42856190D01*
X169691000Y-42932380D01*
X169652904Y-42970476D01*
X169576714Y-43008571D01*
X169500523Y-43008571D01*
X169424333Y-42970476D01*
X169386238Y-42932380D01*
X169348142Y-42856190D01*
X169348142Y-42589523D01*
X169729095Y-43770476D02*
X169729095Y-43389523D01*
X169348142Y-43351428D01*
X169386238Y-43389523D01*
X169424333Y-43465714D01*
X169424333Y-43656190D01*
X169386238Y-43732380D01*
X169348142Y-43770476D01*
X169271952Y-43808571D01*
X169081476Y-43808571D01*
X169005285Y-43770476D01*
X168967190Y-43732380D01*
X168929095Y-43656190D01*
X168929095Y-43465714D01*
X168967190Y-43389523D01*
X169005285Y-43351428D01*
X169348142Y-40316190D02*
X169310047Y-40430476D01*
X169271952Y-40468571D01*
X169195761Y-40506666D01*
X169081476Y-40506666D01*
X169005285Y-40468571D01*
X168967190Y-40430476D01*
X168929095Y-40354285D01*
X168929095Y-40049523D01*
X169729095Y-40049523D01*
X169729095Y-40316190D01*
X169691000Y-40392380D01*
X169652904Y-40430476D01*
X169576714Y-40468571D01*
X169500523Y-40468571D01*
X169424333Y-40430476D01*
X169386238Y-40392380D01*
X169348142Y-40316190D01*
X169348142Y-40049523D01*
X169462428Y-41192380D02*
X168929095Y-41192380D01*
X169767190Y-41001904D02*
X169195761Y-40811428D01*
X169195761Y-41306666D01*
X169348142Y-38284190D02*
X169310047Y-38398476D01*
X169271952Y-38436571D01*
X169195761Y-38474666D01*
X169081476Y-38474666D01*
X169005285Y-38436571D01*
X168967190Y-38398476D01*
X168929095Y-38322285D01*
X168929095Y-38017523D01*
X169729095Y-38017523D01*
X169729095Y-38284190D01*
X169691000Y-38360380D01*
X169652904Y-38398476D01*
X169576714Y-38436571D01*
X169500523Y-38436571D01*
X169424333Y-38398476D01*
X169386238Y-38360380D01*
X169348142Y-38284190D01*
X169348142Y-38017523D01*
X169729095Y-38741333D02*
X169729095Y-39236571D01*
X169424333Y-38969904D01*
X169424333Y-39084190D01*
X169386238Y-39160380D01*
X169348142Y-39198476D01*
X169271952Y-39236571D01*
X169081476Y-39236571D01*
X169005285Y-39198476D01*
X168967190Y-39160380D01*
X168929095Y-39084190D01*
X168929095Y-38855619D01*
X168967190Y-38779428D01*
X169005285Y-38741333D01*
X169056095Y-32359619D02*
X169056095Y-31902476D01*
X169056095Y-32131047D02*
X169856095Y-32131047D01*
X169741809Y-32054857D01*
X169665619Y-31978666D01*
X169627523Y-31902476D01*
X169779904Y-32664380D02*
X169818000Y-32702476D01*
X169856095Y-32778666D01*
X169856095Y-32969142D01*
X169818000Y-33045333D01*
X169779904Y-33083428D01*
X169703714Y-33121523D01*
X169627523Y-33121523D01*
X169513238Y-33083428D01*
X169056095Y-32626285D01*
X169056095Y-33121523D01*
X169056095Y-30327619D02*
X169056095Y-29870476D01*
X169056095Y-30099047D02*
X169856095Y-30099047D01*
X169741809Y-30022857D01*
X169665619Y-29946666D01*
X169627523Y-29870476D01*
X169056095Y-31089523D02*
X169056095Y-30632380D01*
X169056095Y-30860952D02*
X169856095Y-30860952D01*
X169741809Y-30784761D01*
X169665619Y-30708571D01*
X169627523Y-30632380D01*
X169056095Y-27787619D02*
X169056095Y-27330476D01*
X169056095Y-27559047D02*
X169856095Y-27559047D01*
X169741809Y-27482857D01*
X169665619Y-27406666D01*
X169627523Y-27330476D01*
X169856095Y-28282857D02*
X169856095Y-28359047D01*
X169818000Y-28435238D01*
X169779904Y-28473333D01*
X169703714Y-28511428D01*
X169551333Y-28549523D01*
X169360857Y-28549523D01*
X169208476Y-28511428D01*
X169132285Y-28473333D01*
X169094190Y-28435238D01*
X169056095Y-28359047D01*
X169056095Y-28282857D01*
X169094190Y-28206666D01*
X169132285Y-28168571D01*
X169208476Y-28130476D01*
X169360857Y-28092380D01*
X169551333Y-28092380D01*
X169703714Y-28130476D01*
X169779904Y-28168571D01*
X169818000Y-28206666D01*
X169856095Y-28282857D01*
X169284666Y-24828571D02*
X169284666Y-25209523D01*
X169056095Y-24752380D02*
X169856095Y-25019047D01*
X169056095Y-25285714D01*
X169056095Y-25590476D02*
X169056095Y-25742857D01*
X169094190Y-25819047D01*
X169132285Y-25857142D01*
X169246571Y-25933333D01*
X169398952Y-25971428D01*
X169703714Y-25971428D01*
X169779904Y-25933333D01*
X169818000Y-25895238D01*
X169856095Y-25819047D01*
X169856095Y-25666666D01*
X169818000Y-25590476D01*
X169779904Y-25552380D01*
X169703714Y-25514285D01*
X169513238Y-25514285D01*
X169437047Y-25552380D01*
X169398952Y-25590476D01*
X169360857Y-25666666D01*
X169360857Y-25819047D01*
X169398952Y-25895238D01*
X169437047Y-25933333D01*
X169513238Y-25971428D01*
X169284666Y-22288571D02*
X169284666Y-22669523D01*
X169056095Y-22212380D02*
X169856095Y-22479047D01*
X169056095Y-22745714D01*
X169513238Y-23126666D02*
X169551333Y-23050476D01*
X169589428Y-23012380D01*
X169665619Y-22974285D01*
X169703714Y-22974285D01*
X169779904Y-23012380D01*
X169818000Y-23050476D01*
X169856095Y-23126666D01*
X169856095Y-23279047D01*
X169818000Y-23355238D01*
X169779904Y-23393333D01*
X169703714Y-23431428D01*
X169665619Y-23431428D01*
X169589428Y-23393333D01*
X169551333Y-23355238D01*
X169513238Y-23279047D01*
X169513238Y-23126666D01*
X169475142Y-23050476D01*
X169437047Y-23012380D01*
X169360857Y-22974285D01*
X169208476Y-22974285D01*
X169132285Y-23012380D01*
X169094190Y-23050476D01*
X169056095Y-23126666D01*
X169056095Y-23279047D01*
X169094190Y-23355238D01*
X169132285Y-23393333D01*
X169208476Y-23431428D01*
X169360857Y-23431428D01*
X169437047Y-23393333D01*
X169475142Y-23355238D01*
X169513238Y-23279047D01*
X169056095Y-20294619D02*
X169056095Y-19837476D01*
X169056095Y-20066047D02*
X169856095Y-20066047D01*
X169741809Y-19989857D01*
X169665619Y-19913666D01*
X169627523Y-19837476D01*
X169856095Y-21018428D02*
X169856095Y-20637476D01*
X169475142Y-20599380D01*
X169513238Y-20637476D01*
X169551333Y-20713666D01*
X169551333Y-20904142D01*
X169513238Y-20980333D01*
X169475142Y-21018428D01*
X169398952Y-21056523D01*
X169208476Y-21056523D01*
X169132285Y-21018428D01*
X169094190Y-20980333D01*
X169056095Y-20904142D01*
X169056095Y-20713666D01*
X169094190Y-20637476D01*
X169132285Y-20599380D01*
X169056095Y-17500619D02*
X169056095Y-17043476D01*
X169056095Y-17272047D02*
X169856095Y-17272047D01*
X169741809Y-17195857D01*
X169665619Y-17119666D01*
X169627523Y-17043476D01*
X169589428Y-18186333D02*
X169056095Y-18186333D01*
X169894190Y-17995857D02*
X169322761Y-17805380D01*
X169322761Y-18300619D01*
X169056095Y-15087619D02*
X169056095Y-14630476D01*
X169056095Y-14859047D02*
X169856095Y-14859047D01*
X169741809Y-14782857D01*
X169665619Y-14706666D01*
X169627523Y-14630476D01*
X169856095Y-15354285D02*
X169856095Y-15849523D01*
X169551333Y-15582857D01*
X169551333Y-15697142D01*
X169513238Y-15773333D01*
X169475142Y-15811428D01*
X169398952Y-15849523D01*
X169208476Y-15849523D01*
X169132285Y-15811428D01*
X169094190Y-15773333D01*
X169056095Y-15697142D01*
X169056095Y-15468571D01*
X169094190Y-15392380D01*
X169132285Y-15354285D01*
X169056095Y-12547619D02*
X169056095Y-12090476D01*
X169056095Y-12319047D02*
X169856095Y-12319047D01*
X169741809Y-12242857D01*
X169665619Y-12166666D01*
X169627523Y-12090476D01*
X169779904Y-12852380D02*
X169818000Y-12890476D01*
X169856095Y-12966666D01*
X169856095Y-13157142D01*
X169818000Y-13233333D01*
X169779904Y-13271428D01*
X169703714Y-13309523D01*
X169627523Y-13309523D01*
X169513238Y-13271428D01*
X169056095Y-12814285D01*
X169056095Y-13309523D01*
D11*
X181233000Y-46444000D02*
X181733000Y-46444000D01*
X181733000Y-45504000D02*
X181233000Y-45504000D01*
X172736484Y-45425249D02*
X172736484Y-45849513D01*
X172312220Y-45425249D02*
X172736484Y-45849513D01*
X172736484Y-45425249D02*
X172312220Y-45425249D01*
X170760828Y-47400905D02*
X170336564Y-47400905D01*
X170336564Y-47400905D02*
X170760828Y-47825169D01*
X170760828Y-47400905D02*
X170760828Y-47825169D01*
X176530000Y-54610000D02*
X176530000Y-55880000D01*
X178560000Y-54610000D02*
X174500000Y-54610000D01*
X178560000Y-55880000D02*
X178560000Y-54610000D01*
X174500000Y-55880000D02*
X178560000Y-55880000D01*
X174500000Y-54610000D02*
X174500000Y-55880000D01*
X171320000Y-52565000D02*
X173860000Y-52565000D01*
X171320000Y-52565000D02*
X171320000Y-53835000D01*
X176780000Y-57950000D02*
X176280000Y-57950000D01*
X176280000Y-58890000D02*
X176780000Y-58890000D01*
X179320000Y-45504000D02*
X178820000Y-45504000D01*
X178820000Y-46444000D02*
X179320000Y-46444000D01*
X172190000Y-51312000D02*
X172190000Y-51812000D01*
X173250000Y-51812000D02*
X173250000Y-51312000D01*
X176407000Y-20028000D02*
X176907000Y-20028000D01*
X176907000Y-19088000D02*
X176407000Y-19088000D01*
X176399000Y-23914000D02*
X175899000Y-23914000D01*
X175899000Y-24854000D02*
X176399000Y-24854000D01*
X182060000Y-23180000D02*
X182060000Y-24630000D01*
X181160000Y-23180000D02*
X181160000Y-24630000D01*
X182060000Y-23180000D02*
X181160000Y-23180000D01*
X179890000Y-25080000D02*
X180790000Y-25080000D01*
X180790000Y-25080000D02*
X180790000Y-23630000D01*
X179890000Y-25080000D02*
X179890000Y-23630000D01*
X173714000Y-51312000D02*
X173714000Y-51812000D01*
X174774000Y-51812000D02*
X174774000Y-51312000D01*
X182140000Y-26412000D02*
X182140000Y-25912000D01*
X181080000Y-25912000D02*
X181080000Y-26412000D01*
X180590000Y-22076000D02*
X180090000Y-22076000D01*
X180090000Y-23136000D02*
X180590000Y-23136000D01*
X171980000Y-19554000D02*
X171980000Y-19054000D01*
X170920000Y-19054000D02*
X170920000Y-19554000D01*
X172952000Y-19054000D02*
X172952000Y-19554000D01*
X174012000Y-19554000D02*
X174012000Y-19054000D01*
X172996000Y-19554000D02*
X172996000Y-19054000D01*
X171936000Y-19054000D02*
X171936000Y-19554000D01*
X176071200Y-48847645D02*
X176424753Y-48494092D01*
X175675220Y-47744559D02*
X175321667Y-48098112D01*
X176245148Y-44326405D02*
X175891595Y-43972852D01*
X175142062Y-44722385D02*
X175495615Y-45075938D01*
D10*
X177237107Y-42171448D02*
X177961891Y-42896233D01*
X169211445Y-35560000D02*
X169971585Y-36320140D01*
X176530000Y-28241445D02*
X177290140Y-29001585D01*
X183848555Y-35560000D02*
X183088415Y-34799860D01*
X176530000Y-42878555D02*
X175769860Y-42118415D01*
X183848555Y-35560000D02*
X183088415Y-36320140D01*
X176530000Y-28241445D02*
X175769860Y-29001585D01*
X169211445Y-35560000D02*
X169971585Y-34799860D01*
X176530000Y-42878555D02*
X177237107Y-42171448D01*
D11*
X177729000Y-21084000D02*
X177729000Y-22544000D01*
X174569000Y-21084000D02*
X174569000Y-23244000D01*
X174569000Y-21084000D02*
X175499000Y-21084000D01*
X177729000Y-21084000D02*
X176799000Y-21084000D01*
D10*
X182976780Y-15813066D02*
X182500590Y-16146400D01*
X182976780Y-16384495D02*
X181976780Y-16384495D01*
X181976780Y-16003542D01*
X182024400Y-15908304D01*
X182072019Y-15860685D01*
X182167257Y-15813066D01*
X182310114Y-15813066D01*
X182405352Y-15860685D01*
X182452971Y-15908304D01*
X182500590Y-16003542D01*
X182500590Y-16384495D01*
X182976780Y-15336876D02*
X182976780Y-15146400D01*
X182929161Y-15051161D01*
X182881542Y-15003542D01*
X182738685Y-14908304D01*
X182548209Y-14860685D01*
X182167257Y-14860685D01*
X182072019Y-14908304D01*
X182024400Y-14955923D01*
X181976780Y-15051161D01*
X181976780Y-15241638D01*
X182024400Y-15336876D01*
X182072019Y-15384495D01*
X182167257Y-15432114D01*
X182405352Y-15432114D01*
X182500590Y-15384495D01*
X182548209Y-15336876D01*
X182595828Y-15241638D01*
X182595828Y-15051161D01*
X182548209Y-14955923D01*
X182500590Y-14908304D01*
X182405352Y-14860685D01*
X181349666Y-45243714D02*
X181311571Y-45281809D01*
X181197285Y-45319904D01*
X181121095Y-45319904D01*
X181006809Y-45281809D01*
X180930619Y-45205619D01*
X180892523Y-45129428D01*
X180854428Y-44977047D01*
X180854428Y-44862761D01*
X180892523Y-44710380D01*
X180930619Y-44634190D01*
X181006809Y-44558000D01*
X181121095Y-44519904D01*
X181197285Y-44519904D01*
X181311571Y-44558000D01*
X181349666Y-44596095D01*
X182073476Y-44519904D02*
X181692523Y-44519904D01*
X181654428Y-44900857D01*
X181692523Y-44862761D01*
X181768714Y-44824666D01*
X181959190Y-44824666D01*
X182035380Y-44862761D01*
X182073476Y-44900857D01*
X182111571Y-44977047D01*
X182111571Y-45167523D01*
X182073476Y-45243714D01*
X182035380Y-45281809D01*
X181959190Y-45319904D01*
X181768714Y-45319904D01*
X181692523Y-45281809D01*
X181654428Y-45243714D01*
X179443142Y-18740380D02*
X179109809Y-18264190D01*
X178871714Y-18740380D02*
X178871714Y-17740380D01*
X179252666Y-17740380D01*
X179347904Y-17788000D01*
X179395523Y-17835619D01*
X179443142Y-17930857D01*
X179443142Y-18073714D01*
X179395523Y-18168952D01*
X179347904Y-18216571D01*
X179252666Y-18264190D01*
X178871714Y-18264190D01*
X180395523Y-18740380D02*
X179824095Y-18740380D01*
X180109809Y-18740380D02*
X180109809Y-17740380D01*
X180014571Y-17883238D01*
X179919333Y-17978476D01*
X179824095Y-18026095D01*
X181014571Y-17740380D02*
X181109809Y-17740380D01*
X181205047Y-17788000D01*
X181252666Y-17835619D01*
X181300285Y-17930857D01*
X181347904Y-18121333D01*
X181347904Y-18359428D01*
X181300285Y-18549904D01*
X181252666Y-18645142D01*
X181205047Y-18692761D01*
X181109809Y-18740380D01*
X181014571Y-18740380D01*
X180919333Y-18692761D01*
X180871714Y-18645142D01*
X180824095Y-18549904D01*
X180776476Y-18359428D01*
X180776476Y-18121333D01*
X180824095Y-17930857D01*
X180871714Y-17835619D01*
X180919333Y-17788000D01*
X181014571Y-17740380D01*
X181476666Y-49053714D02*
X181438571Y-49091809D01*
X181324285Y-49129904D01*
X181248095Y-49129904D01*
X181133809Y-49091809D01*
X181057619Y-49015619D01*
X181019523Y-48939428D01*
X180981428Y-48787047D01*
X180981428Y-48672761D01*
X181019523Y-48520380D01*
X181057619Y-48444190D01*
X181133809Y-48368000D01*
X181248095Y-48329904D01*
X181324285Y-48329904D01*
X181438571Y-48368000D01*
X181476666Y-48406095D01*
X181743333Y-48329904D02*
X182238571Y-48329904D01*
X181971904Y-48634666D01*
X182086190Y-48634666D01*
X182162380Y-48672761D01*
X182200476Y-48710857D01*
X182238571Y-48787047D01*
X182238571Y-48977523D01*
X182200476Y-49053714D01*
X182162380Y-49091809D01*
X182086190Y-49129904D01*
X181857619Y-49129904D01*
X181781428Y-49091809D01*
X181743333Y-49053714D01*
X178936666Y-49053714D02*
X178898571Y-49091809D01*
X178784285Y-49129904D01*
X178708095Y-49129904D01*
X178593809Y-49091809D01*
X178517619Y-49015619D01*
X178479523Y-48939428D01*
X178441428Y-48787047D01*
X178441428Y-48672761D01*
X178479523Y-48520380D01*
X178517619Y-48444190D01*
X178593809Y-48368000D01*
X178708095Y-48329904D01*
X178784285Y-48329904D01*
X178898571Y-48368000D01*
X178936666Y-48406095D01*
X179241428Y-48406095D02*
X179279523Y-48368000D01*
X179355714Y-48329904D01*
X179546190Y-48329904D01*
X179622380Y-48368000D01*
X179660476Y-48406095D01*
X179698571Y-48482285D01*
X179698571Y-48558476D01*
X179660476Y-48672761D01*
X179203333Y-49129904D01*
X179698571Y-49129904D01*
X177907952Y-48005952D02*
X178288904Y-48005952D01*
X177488904Y-48272619D02*
X177907952Y-48005952D01*
X177488904Y-47739285D01*
X177565095Y-47510714D02*
X177527000Y-47472619D01*
X177488904Y-47396428D01*
X177488904Y-47205952D01*
X177527000Y-47129761D01*
X177565095Y-47091666D01*
X177641285Y-47053571D01*
X177717476Y-47053571D01*
X177831761Y-47091666D01*
X178288904Y-47548809D01*
X178288904Y-47053571D01*
X179959047Y-52177952D02*
X179959047Y-52558904D01*
X179692380Y-51758904D02*
X179959047Y-52177952D01*
X180225714Y-51758904D01*
X180911428Y-52558904D02*
X180454285Y-52558904D01*
X180682857Y-52558904D02*
X180682857Y-51758904D01*
X180606666Y-51873190D01*
X180530476Y-51949380D01*
X180454285Y-51987476D01*
X178377904Y-20986666D02*
X178949333Y-20986666D01*
X179063619Y-21024761D01*
X179139809Y-21100952D01*
X179177904Y-21215238D01*
X179177904Y-21291428D01*
X179177904Y-20605714D02*
X178377904Y-20605714D01*
X178377904Y-20300952D01*
X178416000Y-20224761D01*
X178454095Y-20186666D01*
X178530285Y-20148571D01*
X178644571Y-20148571D01*
X178720761Y-20186666D01*
X178758857Y-20224761D01*
X178796952Y-20300952D01*
X178796952Y-20605714D01*
X178454095Y-19843809D02*
X178416000Y-19805714D01*
X178377904Y-19729523D01*
X178377904Y-19539047D01*
X178416000Y-19462857D01*
X178454095Y-19424761D01*
X178530285Y-19386666D01*
X178606476Y-19386666D01*
X178720761Y-19424761D01*
X179177904Y-19881904D01*
X179177904Y-19386666D01*
X173166438Y-46339626D02*
X173220312Y-46447376D01*
X173220312Y-46501251D01*
X173193375Y-46582063D01*
X173112563Y-46662875D01*
X173031751Y-46689813D01*
X172977876Y-46689813D01*
X172897064Y-46662875D01*
X172681564Y-46447376D01*
X173247250Y-45881691D01*
X173435812Y-46070252D01*
X173462749Y-46151065D01*
X173462749Y-46204939D01*
X173435812Y-46285752D01*
X173381937Y-46339626D01*
X173301125Y-46366564D01*
X173247250Y-46366564D01*
X173166438Y-46339626D01*
X172977876Y-46151065D01*
X173920685Y-46555126D02*
X173974560Y-46609000D01*
X174001497Y-46689813D01*
X174001497Y-46743688D01*
X173974560Y-46824500D01*
X173893748Y-46959187D01*
X173759061Y-47093874D01*
X173624374Y-47174686D01*
X173543561Y-47201623D01*
X173489687Y-47201623D01*
X173408874Y-47174686D01*
X173355000Y-47120811D01*
X173328062Y-47039999D01*
X173328062Y-46986124D01*
X173355000Y-46905312D01*
X173435812Y-46770625D01*
X173570499Y-46635938D01*
X173705186Y-46555126D01*
X173785998Y-46528188D01*
X173839873Y-46528188D01*
X173920685Y-46555126D01*
X171134438Y-48371625D02*
X171188312Y-48479375D01*
X171188312Y-48533250D01*
X171161375Y-48614062D01*
X171080563Y-48694874D01*
X170999751Y-48721812D01*
X170945876Y-48721812D01*
X170865064Y-48694874D01*
X170649564Y-48479375D01*
X171215250Y-47913690D01*
X171403812Y-48102251D01*
X171430749Y-48183064D01*
X171430749Y-48236938D01*
X171403812Y-48317751D01*
X171349937Y-48371625D01*
X171269125Y-48398563D01*
X171215250Y-48398563D01*
X171134438Y-48371625D01*
X170945876Y-48183064D01*
X171511561Y-49341372D02*
X171188312Y-49018123D01*
X171349937Y-49179748D02*
X171915622Y-48614062D01*
X171780935Y-48641000D01*
X171673186Y-48641000D01*
X171592374Y-48614062D01*
X178174666Y-58705714D02*
X178136571Y-58743809D01*
X178022285Y-58781904D01*
X177946095Y-58781904D01*
X177831809Y-58743809D01*
X177755619Y-58667619D01*
X177717523Y-58591428D01*
X177679428Y-58439047D01*
X177679428Y-58324761D01*
X177717523Y-58172380D01*
X177755619Y-58096190D01*
X177831809Y-58020000D01*
X177946095Y-57981904D01*
X178022285Y-57981904D01*
X178136571Y-58020000D01*
X178174666Y-58058095D01*
X178936571Y-58781904D02*
X178479428Y-58781904D01*
X178708000Y-58781904D02*
X178708000Y-57981904D01*
X178631809Y-58096190D01*
X178555619Y-58172380D01*
X178479428Y-58210476D01*
X178809666Y-45243714D02*
X178771571Y-45281809D01*
X178657285Y-45319904D01*
X178581095Y-45319904D01*
X178466809Y-45281809D01*
X178390619Y-45205619D01*
X178352523Y-45129428D01*
X178314428Y-44977047D01*
X178314428Y-44862761D01*
X178352523Y-44710380D01*
X178390619Y-44634190D01*
X178466809Y-44558000D01*
X178581095Y-44519904D01*
X178657285Y-44519904D01*
X178771571Y-44558000D01*
X178809666Y-44596095D01*
X179495380Y-44786571D02*
X179495380Y-45319904D01*
X179304904Y-44481809D02*
X179114428Y-45053238D01*
X179609666Y-45053238D01*
X171989714Y-51695333D02*
X172027809Y-51733428D01*
X172065904Y-51847714D01*
X172065904Y-51923904D01*
X172027809Y-52038190D01*
X171951619Y-52114380D01*
X171875428Y-52152476D01*
X171723047Y-52190571D01*
X171608761Y-52190571D01*
X171456380Y-52152476D01*
X171380190Y-52114380D01*
X171304000Y-52038190D01*
X171265904Y-51923904D01*
X171265904Y-51847714D01*
X171304000Y-51733428D01*
X171342095Y-51695333D01*
X171265904Y-51009619D02*
X171265904Y-51162000D01*
X171304000Y-51238190D01*
X171342095Y-51276285D01*
X171456380Y-51352476D01*
X171608761Y-51390571D01*
X171913523Y-51390571D01*
X171989714Y-51352476D01*
X172027809Y-51314380D01*
X172065904Y-51238190D01*
X172065904Y-51085809D01*
X172027809Y-51009619D01*
X171989714Y-50971523D01*
X171913523Y-50933428D01*
X171723047Y-50933428D01*
X171646857Y-50971523D01*
X171608761Y-51009619D01*
X171570666Y-51085809D01*
X171570666Y-51238190D01*
X171608761Y-51314380D01*
X171646857Y-51352476D01*
X171723047Y-51390571D01*
X174720266Y-19843714D02*
X174682171Y-19881809D01*
X174567885Y-19919904D01*
X174491695Y-19919904D01*
X174377409Y-19881809D01*
X174301219Y-19805619D01*
X174263123Y-19729428D01*
X174225028Y-19577047D01*
X174225028Y-19462761D01*
X174263123Y-19310380D01*
X174301219Y-19234190D01*
X174377409Y-19158000D01*
X174491695Y-19119904D01*
X174567885Y-19119904D01*
X174682171Y-19158000D01*
X174720266Y-19196095D01*
X174986933Y-19119904D02*
X175520266Y-19119904D01*
X175177409Y-19919904D01*
X176015666Y-25812714D02*
X175977571Y-25850809D01*
X175863285Y-25888904D01*
X175787095Y-25888904D01*
X175672809Y-25850809D01*
X175596619Y-25774619D01*
X175558523Y-25698428D01*
X175520428Y-25546047D01*
X175520428Y-25431761D01*
X175558523Y-25279380D01*
X175596619Y-25203190D01*
X175672809Y-25127000D01*
X175787095Y-25088904D01*
X175863285Y-25088904D01*
X175977571Y-25127000D01*
X176015666Y-25165095D01*
X176472809Y-25431761D02*
X176396619Y-25393666D01*
X176358523Y-25355571D01*
X176320428Y-25279380D01*
X176320428Y-25241285D01*
X176358523Y-25165095D01*
X176396619Y-25127000D01*
X176472809Y-25088904D01*
X176625190Y-25088904D01*
X176701380Y-25127000D01*
X176739476Y-25165095D01*
X176777571Y-25241285D01*
X176777571Y-25279380D01*
X176739476Y-25355571D01*
X176701380Y-25393666D01*
X176625190Y-25431761D01*
X176472809Y-25431761D01*
X176396619Y-25469857D01*
X176358523Y-25507952D01*
X176320428Y-25584142D01*
X176320428Y-25736523D01*
X176358523Y-25812714D01*
X176396619Y-25850809D01*
X176472809Y-25888904D01*
X176625190Y-25888904D01*
X176701380Y-25850809D01*
X176739476Y-25812714D01*
X176777571Y-25736523D01*
X176777571Y-25584142D01*
X176739476Y-25507952D01*
X176701380Y-25469857D01*
X176625190Y-25431761D01*
X182073504Y-22942476D02*
X181273504Y-22942476D01*
X181273504Y-22752000D01*
X181311600Y-22637714D01*
X181387790Y-22561523D01*
X181463980Y-22523428D01*
X181616361Y-22485333D01*
X181730647Y-22485333D01*
X181883028Y-22523428D01*
X181959219Y-22561523D01*
X182035409Y-22637714D01*
X182073504Y-22752000D01*
X182073504Y-22942476D01*
X182073504Y-21723428D02*
X182073504Y-22180571D01*
X182073504Y-21952000D02*
X181273504Y-21952000D01*
X181387790Y-22028190D01*
X181463980Y-22104380D01*
X181502076Y-22180571D01*
X180752704Y-26549276D02*
X179952704Y-26549276D01*
X179952704Y-26358800D01*
X179990800Y-26244514D01*
X180066990Y-26168323D01*
X180143180Y-26130228D01*
X180295561Y-26092133D01*
X180409847Y-26092133D01*
X180562228Y-26130228D01*
X180638419Y-26168323D01*
X180714609Y-26244514D01*
X180752704Y-26358800D01*
X180752704Y-26549276D01*
X180028895Y-25787371D02*
X179990800Y-25749276D01*
X179952704Y-25673085D01*
X179952704Y-25482609D01*
X179990800Y-25406419D01*
X180028895Y-25368323D01*
X180105085Y-25330228D01*
X180181276Y-25330228D01*
X180295561Y-25368323D01*
X180752704Y-25825466D01*
X180752704Y-25330228D01*
X175748904Y-51695333D02*
X175367952Y-51962000D01*
X175748904Y-52152476D02*
X174948904Y-52152476D01*
X174948904Y-51847714D01*
X174987000Y-51771523D01*
X175025095Y-51733428D01*
X175101285Y-51695333D01*
X175215571Y-51695333D01*
X175291761Y-51733428D01*
X175329857Y-51771523D01*
X175367952Y-51847714D01*
X175367952Y-52152476D01*
X175748904Y-50933428D02*
X175748904Y-51390571D01*
X175748904Y-51162000D02*
X174948904Y-51162000D01*
X175063190Y-51238190D01*
X175139380Y-51314380D01*
X175177476Y-51390571D01*
X182022704Y-27870133D02*
X181641752Y-28136800D01*
X182022704Y-28327276D02*
X181222704Y-28327276D01*
X181222704Y-28022514D01*
X181260800Y-27946323D01*
X181298895Y-27908228D01*
X181375085Y-27870133D01*
X181489371Y-27870133D01*
X181565561Y-27908228D01*
X181603657Y-27946323D01*
X181641752Y-28022514D01*
X181641752Y-28327276D01*
X181298895Y-27565371D02*
X181260800Y-27527276D01*
X181222704Y-27451085D01*
X181222704Y-27260609D01*
X181260800Y-27184419D01*
X181298895Y-27146323D01*
X181375085Y-27108228D01*
X181451276Y-27108228D01*
X181565561Y-27146323D01*
X182022704Y-27603466D01*
X182022704Y-27108228D01*
X178581066Y-22967904D02*
X178314400Y-22586952D01*
X178123923Y-22967904D02*
X178123923Y-22167904D01*
X178428685Y-22167904D01*
X178504876Y-22206000D01*
X178542971Y-22244095D01*
X178581066Y-22320285D01*
X178581066Y-22434571D01*
X178542971Y-22510761D01*
X178504876Y-22548857D01*
X178428685Y-22586952D01*
X178123923Y-22586952D01*
X178847733Y-22167904D02*
X179342971Y-22167904D01*
X179076304Y-22472666D01*
X179190590Y-22472666D01*
X179266780Y-22510761D01*
X179304876Y-22548857D01*
X179342971Y-22625047D01*
X179342971Y-22815523D01*
X179304876Y-22891714D01*
X179266780Y-22929809D01*
X179190590Y-22967904D01*
X178962019Y-22967904D01*
X178885828Y-22929809D01*
X178847733Y-22891714D01*
X171557904Y-21088333D02*
X171176952Y-21355000D01*
X171557904Y-21545476D02*
X170757904Y-21545476D01*
X170757904Y-21240714D01*
X170796000Y-21164523D01*
X170834095Y-21126428D01*
X170910285Y-21088333D01*
X171024571Y-21088333D01*
X171100761Y-21126428D01*
X171138857Y-21164523D01*
X171176952Y-21240714D01*
X171176952Y-21545476D01*
X171024571Y-20402619D02*
X171557904Y-20402619D01*
X170719809Y-20593095D02*
X171291238Y-20783571D01*
X171291238Y-20288333D01*
X174097904Y-21088333D02*
X173716952Y-21355000D01*
X174097904Y-21545476D02*
X173297904Y-21545476D01*
X173297904Y-21240714D01*
X173336000Y-21164523D01*
X173374095Y-21126428D01*
X173450285Y-21088333D01*
X173564571Y-21088333D01*
X173640761Y-21126428D01*
X173678857Y-21164523D01*
X173716952Y-21240714D01*
X173716952Y-21545476D01*
X173297904Y-20364523D02*
X173297904Y-20745476D01*
X173678857Y-20783571D01*
X173640761Y-20745476D01*
X173602666Y-20669285D01*
X173602666Y-20478809D01*
X173640761Y-20402619D01*
X173678857Y-20364523D01*
X173755047Y-20326428D01*
X173945523Y-20326428D01*
X174021714Y-20364523D01*
X174059809Y-20402619D01*
X174097904Y-20478809D01*
X174097904Y-20669285D01*
X174059809Y-20745476D01*
X174021714Y-20783571D01*
X172827904Y-21088333D02*
X172446952Y-21355000D01*
X172827904Y-21545476D02*
X172027904Y-21545476D01*
X172027904Y-21240714D01*
X172066000Y-21164523D01*
X172104095Y-21126428D01*
X172180285Y-21088333D01*
X172294571Y-21088333D01*
X172370761Y-21126428D01*
X172408857Y-21164523D01*
X172446952Y-21240714D01*
X172446952Y-21545476D01*
X172027904Y-20402619D02*
X172027904Y-20555000D01*
X172066000Y-20631190D01*
X172104095Y-20669285D01*
X172218380Y-20745476D01*
X172370761Y-20783571D01*
X172675523Y-20783571D01*
X172751714Y-20745476D01*
X172789809Y-20707380D01*
X172827904Y-20631190D01*
X172827904Y-20478809D01*
X172789809Y-20402619D01*
X172751714Y-20364523D01*
X172675523Y-20326428D01*
X172485047Y-20326428D01*
X172408857Y-20364523D01*
X172370761Y-20402619D01*
X172332666Y-20478809D01*
X172332666Y-20631190D01*
X172370761Y-20707380D01*
X172408857Y-20745476D01*
X172485047Y-20783571D01*
X176945624Y-49499186D02*
X176487688Y-49418374D01*
X176622375Y-49822435D02*
X176056690Y-49256749D01*
X176272189Y-49041250D01*
X176353001Y-49014312D01*
X176406876Y-49014312D01*
X176487688Y-49041250D01*
X176568500Y-49122062D01*
X176595438Y-49202874D01*
X176595438Y-49256749D01*
X176568500Y-49337561D01*
X176353001Y-49553061D01*
X176568500Y-48744938D02*
X176945624Y-48367815D01*
X177268873Y-49175937D01*
X176818624Y-45816186D02*
X176360688Y-45735374D01*
X176495375Y-46139435D02*
X175929690Y-45573749D01*
X176145189Y-45358250D01*
X176226001Y-45331312D01*
X176279876Y-45331312D01*
X176360688Y-45358250D01*
X176441500Y-45439062D01*
X176468438Y-45519874D01*
X176468438Y-45573749D01*
X176441500Y-45654561D01*
X176226001Y-45870061D01*
X176818624Y-45169688D02*
X176737812Y-45196625D01*
X176683937Y-45196625D01*
X176603125Y-45169688D01*
X176576187Y-45142751D01*
X176549250Y-45061938D01*
X176549250Y-45008064D01*
X176576187Y-44927251D01*
X176683937Y-44819502D01*
X176764749Y-44792564D01*
X176818624Y-44792564D01*
X176899436Y-44819502D01*
X176926374Y-44846439D01*
X176953311Y-44927251D01*
X176953311Y-44981126D01*
X176926374Y-45061938D01*
X176818624Y-45169688D01*
X176791687Y-45250500D01*
X176791687Y-45304375D01*
X176818624Y-45385187D01*
X176926374Y-45492937D01*
X177007186Y-45519874D01*
X177061061Y-45519874D01*
X177141873Y-45492937D01*
X177249622Y-45385187D01*
X177276560Y-45304375D01*
X177276560Y-45250500D01*
X177249622Y-45169688D01*
X177141873Y-45061938D01*
X177061061Y-45035001D01*
X177007186Y-45035001D01*
X176926374Y-45061938D01*
M02*
