G04 #@! TF.GenerationSoftware,KiCad,Pcbnew,5.1.2*
G04 #@! TF.CreationDate,2019-08-04T19:59:17+02:00*
G04 #@! TF.ProjectId,neutron-c,6e657574-726f-46e2-9d63-2e6b69636164,rev?*
G04 #@! TF.SameCoordinates,Original*
G04 #@! TF.FileFunction,Paste,Top*
G04 #@! TF.FilePolarity,Positive*
%FSLAX46Y46*%
G04 Gerber Fmt 4.6, Leading zero omitted, Abs format (unit mm)*
G04 Created by KiCad (PCBNEW 5.1.2) date 2019-08-04 19:59:17*
%MOMM*%
%LPD*%
G04 APERTURE LIST*
%ADD10R,0.600000X0.400000*%
%ADD11R,0.600000X0.500000*%
%ADD12R,0.400000X0.600000*%
%ADD13R,1.050000X1.100000*%
%ADD14R,0.700000X0.600000*%
%ADD15C,0.400000*%
%ADD16C,0.100000*%
%ADD17C,0.250000*%
%ADD18R,0.800000X0.900000*%
G04 APERTURE END LIST*
D10*
X182499000Y-14293000D03*
X182499000Y-13393000D03*
D11*
X182033000Y-45974000D03*
X180933000Y-45974000D03*
D12*
X177350000Y-18288000D03*
X178250000Y-18288000D03*
D11*
X181060000Y-49530000D03*
X182160000Y-49530000D03*
X179620000Y-49530000D03*
X178520000Y-49530000D03*
D13*
X181138000Y-47498000D03*
X179288000Y-47498000D03*
X179415000Y-50927000D03*
X181265000Y-50927000D03*
D11*
X175980000Y-58420000D03*
X177080000Y-58420000D03*
X178520000Y-45974000D03*
X179620000Y-45974000D03*
D10*
X172720000Y-52012000D03*
X172720000Y-51112000D03*
D11*
X177207000Y-19558000D03*
X176107000Y-19558000D03*
X175599000Y-24384000D03*
X176699000Y-24384000D03*
D14*
X181610000Y-23580000D03*
X181610000Y-24680000D03*
X180340000Y-23580000D03*
X180340000Y-24680000D03*
D10*
X174244000Y-52012000D03*
X174244000Y-51112000D03*
X181610000Y-25712000D03*
X181610000Y-26612000D03*
D12*
X179890000Y-22606000D03*
X180790000Y-22606000D03*
D10*
X171450000Y-18854000D03*
X171450000Y-19754000D03*
X173482000Y-19754000D03*
X173482000Y-18854000D03*
X172466000Y-18854000D03*
X172466000Y-19754000D03*
D15*
X176191408Y-47977904D03*
D16*
G36*
X176262119Y-48331457D02*
G01*
X175837855Y-47907193D01*
X176120697Y-47624351D01*
X176544961Y-48048615D01*
X176262119Y-48331457D01*
X176262119Y-48331457D01*
G37*
D15*
X175555012Y-48614300D03*
D16*
G36*
X175625723Y-48967853D02*
G01*
X175201459Y-48543589D01*
X175484301Y-48260747D01*
X175908565Y-48685011D01*
X175625723Y-48967853D01*
X175625723Y-48967853D01*
G37*
D15*
X175375407Y-44206197D03*
D16*
G36*
X175021854Y-44276908D02*
G01*
X175446118Y-43852644D01*
X175728960Y-44135486D01*
X175304696Y-44559750D01*
X175021854Y-44276908D01*
X175021854Y-44276908D01*
G37*
D15*
X176011803Y-44842593D03*
D16*
G36*
X175658250Y-44913304D02*
G01*
X176082514Y-44489040D01*
X176365356Y-44771882D01*
X175941092Y-45196146D01*
X175658250Y-44913304D01*
X175658250Y-44913304D01*
G37*
D17*
X175151142Y-42242159D03*
D16*
G36*
X175416307Y-41800217D02*
G01*
X175593084Y-41976994D01*
X174885977Y-42684101D01*
X174709200Y-42507324D01*
X175416307Y-41800217D01*
X175416307Y-41800217D01*
G37*
D17*
X174797588Y-41888606D03*
D16*
G36*
X175062753Y-41446664D02*
G01*
X175239530Y-41623441D01*
X174532423Y-42330548D01*
X174355646Y-42153771D01*
X175062753Y-41446664D01*
X175062753Y-41446664D01*
G37*
D17*
X174444035Y-41535052D03*
D16*
G36*
X174709200Y-41093110D02*
G01*
X174885977Y-41269887D01*
X174178870Y-41976994D01*
X174002093Y-41800217D01*
X174709200Y-41093110D01*
X174709200Y-41093110D01*
G37*
D17*
X174090482Y-41181499D03*
D16*
G36*
X174355647Y-40739557D02*
G01*
X174532424Y-40916334D01*
X173825317Y-41623441D01*
X173648540Y-41446664D01*
X174355647Y-40739557D01*
X174355647Y-40739557D01*
G37*
D17*
X173736928Y-40827946D03*
D16*
G36*
X174002093Y-40386004D02*
G01*
X174178870Y-40562781D01*
X173471763Y-41269888D01*
X173294986Y-41093111D01*
X174002093Y-40386004D01*
X174002093Y-40386004D01*
G37*
D17*
X173383375Y-40474392D03*
D16*
G36*
X173648540Y-40032450D02*
G01*
X173825317Y-40209227D01*
X173118210Y-40916334D01*
X172941433Y-40739557D01*
X173648540Y-40032450D01*
X173648540Y-40032450D01*
G37*
D17*
X173029821Y-40120839D03*
D16*
G36*
X173294986Y-39678897D02*
G01*
X173471763Y-39855674D01*
X172764656Y-40562781D01*
X172587879Y-40386004D01*
X173294986Y-39678897D01*
X173294986Y-39678897D01*
G37*
D17*
X172676268Y-39767285D03*
D16*
G36*
X172941433Y-39325343D02*
G01*
X173118210Y-39502120D01*
X172411103Y-40209227D01*
X172234326Y-40032450D01*
X172941433Y-39325343D01*
X172941433Y-39325343D01*
G37*
D17*
X172322715Y-39413732D03*
D16*
G36*
X172587880Y-38971790D02*
G01*
X172764657Y-39148567D01*
X172057550Y-39855674D01*
X171880773Y-39678897D01*
X172587880Y-38971790D01*
X172587880Y-38971790D01*
G37*
D17*
X171969161Y-39060179D03*
D16*
G36*
X172234326Y-38618237D02*
G01*
X172411103Y-38795014D01*
X171703996Y-39502121D01*
X171527219Y-39325344D01*
X172234326Y-38618237D01*
X172234326Y-38618237D01*
G37*
D17*
X171615608Y-38706625D03*
D16*
G36*
X171880773Y-38264683D02*
G01*
X172057550Y-38441460D01*
X171350443Y-39148567D01*
X171173666Y-38971790D01*
X171880773Y-38264683D01*
X171880773Y-38264683D01*
G37*
D17*
X171262054Y-38353072D03*
D16*
G36*
X171527219Y-37911130D02*
G01*
X171703996Y-38087907D01*
X170996889Y-38795014D01*
X170820112Y-38618237D01*
X171527219Y-37911130D01*
X171527219Y-37911130D01*
G37*
D17*
X170908501Y-37999518D03*
D16*
G36*
X171173666Y-37557576D02*
G01*
X171350443Y-37734353D01*
X170643336Y-38441460D01*
X170466559Y-38264683D01*
X171173666Y-37557576D01*
X171173666Y-37557576D01*
G37*
D17*
X170554948Y-37645965D03*
D16*
G36*
X170820113Y-37204023D02*
G01*
X170996890Y-37380800D01*
X170289783Y-38087907D01*
X170113006Y-37911130D01*
X170820113Y-37204023D01*
X170820113Y-37204023D01*
G37*
D17*
X170201394Y-37292412D03*
D16*
G36*
X170466559Y-36850470D02*
G01*
X170643336Y-37027247D01*
X169936229Y-37734354D01*
X169759452Y-37557577D01*
X170466559Y-36850470D01*
X170466559Y-36850470D01*
G37*
D17*
X169847841Y-36938858D03*
D16*
G36*
X170113006Y-36496916D02*
G01*
X170289783Y-36673693D01*
X169582676Y-37380800D01*
X169405899Y-37204023D01*
X170113006Y-36496916D01*
X170113006Y-36496916D01*
G37*
D17*
X169847841Y-34181142D03*
D16*
G36*
X170289783Y-34446307D02*
G01*
X170113006Y-34623084D01*
X169405899Y-33915977D01*
X169582676Y-33739200D01*
X170289783Y-34446307D01*
X170289783Y-34446307D01*
G37*
D17*
X170201394Y-33827588D03*
D16*
G36*
X170643336Y-34092753D02*
G01*
X170466559Y-34269530D01*
X169759452Y-33562423D01*
X169936229Y-33385646D01*
X170643336Y-34092753D01*
X170643336Y-34092753D01*
G37*
D17*
X170554948Y-33474035D03*
D16*
G36*
X170996890Y-33739200D02*
G01*
X170820113Y-33915977D01*
X170113006Y-33208870D01*
X170289783Y-33032093D01*
X170996890Y-33739200D01*
X170996890Y-33739200D01*
G37*
D17*
X170908501Y-33120482D03*
D16*
G36*
X171350443Y-33385647D02*
G01*
X171173666Y-33562424D01*
X170466559Y-32855317D01*
X170643336Y-32678540D01*
X171350443Y-33385647D01*
X171350443Y-33385647D01*
G37*
D17*
X171262054Y-32766928D03*
D16*
G36*
X171703996Y-33032093D02*
G01*
X171527219Y-33208870D01*
X170820112Y-32501763D01*
X170996889Y-32324986D01*
X171703996Y-33032093D01*
X171703996Y-33032093D01*
G37*
D17*
X171615608Y-32413375D03*
D16*
G36*
X172057550Y-32678540D02*
G01*
X171880773Y-32855317D01*
X171173666Y-32148210D01*
X171350443Y-31971433D01*
X172057550Y-32678540D01*
X172057550Y-32678540D01*
G37*
D17*
X171969161Y-32059821D03*
D16*
G36*
X172411103Y-32324986D02*
G01*
X172234326Y-32501763D01*
X171527219Y-31794656D01*
X171703996Y-31617879D01*
X172411103Y-32324986D01*
X172411103Y-32324986D01*
G37*
D17*
X172322715Y-31706268D03*
D16*
G36*
X172764657Y-31971433D02*
G01*
X172587880Y-32148210D01*
X171880773Y-31441103D01*
X172057550Y-31264326D01*
X172764657Y-31971433D01*
X172764657Y-31971433D01*
G37*
D17*
X172676268Y-31352715D03*
D16*
G36*
X173118210Y-31617880D02*
G01*
X172941433Y-31794657D01*
X172234326Y-31087550D01*
X172411103Y-30910773D01*
X173118210Y-31617880D01*
X173118210Y-31617880D01*
G37*
D17*
X173029821Y-30999161D03*
D16*
G36*
X173471763Y-31264326D02*
G01*
X173294986Y-31441103D01*
X172587879Y-30733996D01*
X172764656Y-30557219D01*
X173471763Y-31264326D01*
X173471763Y-31264326D01*
G37*
D17*
X173383375Y-30645608D03*
D16*
G36*
X173825317Y-30910773D02*
G01*
X173648540Y-31087550D01*
X172941433Y-30380443D01*
X173118210Y-30203666D01*
X173825317Y-30910773D01*
X173825317Y-30910773D01*
G37*
D17*
X173736928Y-30292054D03*
D16*
G36*
X174178870Y-30557219D02*
G01*
X174002093Y-30733996D01*
X173294986Y-30026889D01*
X173471763Y-29850112D01*
X174178870Y-30557219D01*
X174178870Y-30557219D01*
G37*
D17*
X174090482Y-29938501D03*
D16*
G36*
X174532424Y-30203666D02*
G01*
X174355647Y-30380443D01*
X173648540Y-29673336D01*
X173825317Y-29496559D01*
X174532424Y-30203666D01*
X174532424Y-30203666D01*
G37*
D17*
X174444035Y-29584948D03*
D16*
G36*
X174885977Y-29850113D02*
G01*
X174709200Y-30026890D01*
X174002093Y-29319783D01*
X174178870Y-29143006D01*
X174885977Y-29850113D01*
X174885977Y-29850113D01*
G37*
D17*
X174797588Y-29231394D03*
D16*
G36*
X175239530Y-29496559D02*
G01*
X175062753Y-29673336D01*
X174355646Y-28966229D01*
X174532423Y-28789452D01*
X175239530Y-29496559D01*
X175239530Y-29496559D01*
G37*
D17*
X175151142Y-28877841D03*
D16*
G36*
X175593084Y-29143006D02*
G01*
X175416307Y-29319783D01*
X174709200Y-28612676D01*
X174885977Y-28435899D01*
X175593084Y-29143006D01*
X175593084Y-29143006D01*
G37*
D17*
X177908858Y-28877841D03*
D16*
G36*
X178174023Y-28435899D02*
G01*
X178350800Y-28612676D01*
X177643693Y-29319783D01*
X177466916Y-29143006D01*
X178174023Y-28435899D01*
X178174023Y-28435899D01*
G37*
D17*
X178262412Y-29231394D03*
D16*
G36*
X178527577Y-28789452D02*
G01*
X178704354Y-28966229D01*
X177997247Y-29673336D01*
X177820470Y-29496559D01*
X178527577Y-28789452D01*
X178527577Y-28789452D01*
G37*
D17*
X178615965Y-29584948D03*
D16*
G36*
X178881130Y-29143006D02*
G01*
X179057907Y-29319783D01*
X178350800Y-30026890D01*
X178174023Y-29850113D01*
X178881130Y-29143006D01*
X178881130Y-29143006D01*
G37*
D17*
X178969518Y-29938501D03*
D16*
G36*
X179234683Y-29496559D02*
G01*
X179411460Y-29673336D01*
X178704353Y-30380443D01*
X178527576Y-30203666D01*
X179234683Y-29496559D01*
X179234683Y-29496559D01*
G37*
D17*
X179323072Y-30292054D03*
D16*
G36*
X179588237Y-29850112D02*
G01*
X179765014Y-30026889D01*
X179057907Y-30733996D01*
X178881130Y-30557219D01*
X179588237Y-29850112D01*
X179588237Y-29850112D01*
G37*
D17*
X179676625Y-30645608D03*
D16*
G36*
X179941790Y-30203666D02*
G01*
X180118567Y-30380443D01*
X179411460Y-31087550D01*
X179234683Y-30910773D01*
X179941790Y-30203666D01*
X179941790Y-30203666D01*
G37*
D17*
X180030179Y-30999161D03*
D16*
G36*
X180295344Y-30557219D02*
G01*
X180472121Y-30733996D01*
X179765014Y-31441103D01*
X179588237Y-31264326D01*
X180295344Y-30557219D01*
X180295344Y-30557219D01*
G37*
D17*
X180383732Y-31352715D03*
D16*
G36*
X180648897Y-30910773D02*
G01*
X180825674Y-31087550D01*
X180118567Y-31794657D01*
X179941790Y-31617880D01*
X180648897Y-30910773D01*
X180648897Y-30910773D01*
G37*
D17*
X180737285Y-31706268D03*
D16*
G36*
X181002450Y-31264326D02*
G01*
X181179227Y-31441103D01*
X180472120Y-32148210D01*
X180295343Y-31971433D01*
X181002450Y-31264326D01*
X181002450Y-31264326D01*
G37*
D17*
X181090839Y-32059821D03*
D16*
G36*
X181356004Y-31617879D02*
G01*
X181532781Y-31794656D01*
X180825674Y-32501763D01*
X180648897Y-32324986D01*
X181356004Y-31617879D01*
X181356004Y-31617879D01*
G37*
D17*
X181444392Y-32413375D03*
D16*
G36*
X181709557Y-31971433D02*
G01*
X181886334Y-32148210D01*
X181179227Y-32855317D01*
X181002450Y-32678540D01*
X181709557Y-31971433D01*
X181709557Y-31971433D01*
G37*
D17*
X181797946Y-32766928D03*
D16*
G36*
X182063111Y-32324986D02*
G01*
X182239888Y-32501763D01*
X181532781Y-33208870D01*
X181356004Y-33032093D01*
X182063111Y-32324986D01*
X182063111Y-32324986D01*
G37*
D17*
X182151499Y-33120482D03*
D16*
G36*
X182416664Y-32678540D02*
G01*
X182593441Y-32855317D01*
X181886334Y-33562424D01*
X181709557Y-33385647D01*
X182416664Y-32678540D01*
X182416664Y-32678540D01*
G37*
D17*
X182505052Y-33474035D03*
D16*
G36*
X182770217Y-33032093D02*
G01*
X182946994Y-33208870D01*
X182239887Y-33915977D01*
X182063110Y-33739200D01*
X182770217Y-33032093D01*
X182770217Y-33032093D01*
G37*
D17*
X182858606Y-33827588D03*
D16*
G36*
X183123771Y-33385646D02*
G01*
X183300548Y-33562423D01*
X182593441Y-34269530D01*
X182416664Y-34092753D01*
X183123771Y-33385646D01*
X183123771Y-33385646D01*
G37*
D17*
X183212159Y-34181142D03*
D16*
G36*
X183477324Y-33739200D02*
G01*
X183654101Y-33915977D01*
X182946994Y-34623084D01*
X182770217Y-34446307D01*
X183477324Y-33739200D01*
X183477324Y-33739200D01*
G37*
D17*
X183212159Y-36938858D03*
D16*
G36*
X183654101Y-37204023D02*
G01*
X183477324Y-37380800D01*
X182770217Y-36673693D01*
X182946994Y-36496916D01*
X183654101Y-37204023D01*
X183654101Y-37204023D01*
G37*
D17*
X182858606Y-37292412D03*
D16*
G36*
X183300548Y-37557577D02*
G01*
X183123771Y-37734354D01*
X182416664Y-37027247D01*
X182593441Y-36850470D01*
X183300548Y-37557577D01*
X183300548Y-37557577D01*
G37*
D17*
X182505052Y-37645965D03*
D16*
G36*
X182946994Y-37911130D02*
G01*
X182770217Y-38087907D01*
X182063110Y-37380800D01*
X182239887Y-37204023D01*
X182946994Y-37911130D01*
X182946994Y-37911130D01*
G37*
D17*
X182151499Y-37999518D03*
D16*
G36*
X182593441Y-38264683D02*
G01*
X182416664Y-38441460D01*
X181709557Y-37734353D01*
X181886334Y-37557576D01*
X182593441Y-38264683D01*
X182593441Y-38264683D01*
G37*
D17*
X181797946Y-38353072D03*
D16*
G36*
X182239888Y-38618237D02*
G01*
X182063111Y-38795014D01*
X181356004Y-38087907D01*
X181532781Y-37911130D01*
X182239888Y-38618237D01*
X182239888Y-38618237D01*
G37*
D17*
X181444392Y-38706625D03*
D16*
G36*
X181886334Y-38971790D02*
G01*
X181709557Y-39148567D01*
X181002450Y-38441460D01*
X181179227Y-38264683D01*
X181886334Y-38971790D01*
X181886334Y-38971790D01*
G37*
D17*
X181090839Y-39060179D03*
D16*
G36*
X181532781Y-39325344D02*
G01*
X181356004Y-39502121D01*
X180648897Y-38795014D01*
X180825674Y-38618237D01*
X181532781Y-39325344D01*
X181532781Y-39325344D01*
G37*
D17*
X180737285Y-39413732D03*
D16*
G36*
X181179227Y-39678897D02*
G01*
X181002450Y-39855674D01*
X180295343Y-39148567D01*
X180472120Y-38971790D01*
X181179227Y-39678897D01*
X181179227Y-39678897D01*
G37*
D17*
X180383732Y-39767285D03*
D16*
G36*
X180825674Y-40032450D02*
G01*
X180648897Y-40209227D01*
X179941790Y-39502120D01*
X180118567Y-39325343D01*
X180825674Y-40032450D01*
X180825674Y-40032450D01*
G37*
D17*
X180030179Y-40120839D03*
D16*
G36*
X180472121Y-40386004D02*
G01*
X180295344Y-40562781D01*
X179588237Y-39855674D01*
X179765014Y-39678897D01*
X180472121Y-40386004D01*
X180472121Y-40386004D01*
G37*
D17*
X179676625Y-40474392D03*
D16*
G36*
X180118567Y-40739557D02*
G01*
X179941790Y-40916334D01*
X179234683Y-40209227D01*
X179411460Y-40032450D01*
X180118567Y-40739557D01*
X180118567Y-40739557D01*
G37*
D17*
X179323072Y-40827946D03*
D16*
G36*
X179765014Y-41093111D02*
G01*
X179588237Y-41269888D01*
X178881130Y-40562781D01*
X179057907Y-40386004D01*
X179765014Y-41093111D01*
X179765014Y-41093111D01*
G37*
D17*
X178969518Y-41181499D03*
D16*
G36*
X179411460Y-41446664D02*
G01*
X179234683Y-41623441D01*
X178527576Y-40916334D01*
X178704353Y-40739557D01*
X179411460Y-41446664D01*
X179411460Y-41446664D01*
G37*
D17*
X178615965Y-41535052D03*
D16*
G36*
X179057907Y-41800217D02*
G01*
X178881130Y-41976994D01*
X178174023Y-41269887D01*
X178350800Y-41093110D01*
X179057907Y-41800217D01*
X179057907Y-41800217D01*
G37*
D17*
X178262412Y-41888606D03*
D16*
G36*
X178704354Y-42153771D02*
G01*
X178527577Y-42330548D01*
X177820470Y-41623441D01*
X177997247Y-41446664D01*
X178704354Y-42153771D01*
X178704354Y-42153771D01*
G37*
D17*
X177908858Y-42242159D03*
D16*
G36*
X178350800Y-42507324D02*
G01*
X178174023Y-42684101D01*
X177466916Y-41976994D01*
X177643693Y-41800217D01*
X178350800Y-42507324D01*
X178350800Y-42507324D01*
G37*
D18*
X176149000Y-20844000D03*
X177099000Y-22844000D03*
X175199000Y-22844000D03*
M02*
